SplineFontDB: 3.2
FontName: KoreeneSans-ExtraBold
FullName: Koreene Sans ExtraBold
FamilyName: Koreene Sans ExtraBold
Weight: Heavy
Copyright: (C) Copyright HanYang I&C Co.,Ltd. All rights reserved.
Version: 2.50; ttfautohint (v1.8.4.7-5d5b-dirty)
ItalicAngle: 0
UnderlinePosition: -122
UnderlineWidth: 45
Ascent: 819
Descent: 205
InvalidEm: 0
sfntRevision: 0x00020147
LayerCount: 2
Layer: 0 1 "Back" 1
Layer: 1 1 "Fore" 0
XUID: [1021 531 -1996577725 5923393]
StyleMap: 0x0040
FSType: 0
OS2Version: 4
OS2_WeightWidthSlopeOnly: 0
OS2_UseTypoMetrics: 1
CreationTime: 1068260456
ModificationTime: 1702473899
PfmFamily: 81
TTFWeight: 800
TTFWidth: 5
LineGap: 256
VLineGap: 0
Panose: 0 0 0 0 0 0 0 0 0 0
OS2TypoAscent: 970
OS2TypoAOffset: 0
OS2TypoDescent: -235
OS2TypoDOffset: 0
OS2TypoLinegap: 256
OS2WinAscent: 1098
OS2WinAOffset: 0
OS2WinDescent: 363
OS2WinDOffset: 0
HheadAscent: 970
HheadAOffset: 0
HheadDescent: -235
HheadDOffset: 0
OS2SubXSize: 205
OS2SubYSize: 205
OS2SubXOff: 0
OS2SubYOff: 287
OS2SupXSize: 205
OS2SupYSize: 205
OS2SupXOff: 0
OS2SupYOff: 963
OS2StrikeYSize: 102
OS2StrikeYPos: 512
OS2CapHeight: 735
OS2XHeight: 538
OS2Vendor: 'HY  '
OS2CodePages: 2000019f.00000000
OS2UnicodeRanges: e10002ff.4000001b.00000000.00000000
Lookup: 1 0 0 "'aalt' Access All Alternates lookup 0" { "'aalt' Access All Alternates lookup 0 subtable"  } ['aalt' ('DFLT' <'dflt' > 'cyrl' <'dflt' > 'grek' <'dflt' > 'hang' <'dflt' > 'jamo' <'dflt' > 'latn' <'dflt' > ) ]
Lookup: 3 0 0 "'aalt' Access All Alternates lookup 1" { "'aalt' Access All Alternates lookup 1 subtable"  } ['aalt' ('DFLT' <'dflt' > 'cyrl' <'dflt' > 'grek' <'dflt' > 'hang' <'dflt' > 'jamo' <'dflt' > 'latn' <'dflt' > ) ]
Lookup: 1 0 0 "'locl' Localized Forms in Latin lookup 2" { "'locl' Localized Forms in Latin lookup 2 subtable"  } ['locl' ('latn' <'MOL ' > ) ]
Lookup: 1 0 0 "'locl' Localized Forms in Latin lookup 3" { "'locl' Localized Forms in Latin lookup 3 subtable"  } ['locl' ('latn' <'ROM ' > ) ]

StartChar: exclam
Encoding: 33 33 4
Width: 310
GlyphClass: 2
Flags: W
LayerCount: 2
Fore
SplineSet
71 -3 m 1,0,-1
 71 147 l 1,1,-1
 239 147 l 1,2,-1
 239 -3 l 1,3,-1
 71 -3 l 1,0,-1
219 210 m 1,4,-1
 92 210 l 1,5,-1
 83 740 l 1,6,-1
 227 740 l 1,7,-1
 219 210 l 1,4,-1
EndSplineSet
EndChar

StartChar: quotedbl
Encoding: 34 34 5
Width: 575
GlyphClass: 2
Flags: W
LayerCount: 2
Fore
SplineSet
297 509 m 1,0,-1
 390 814 l 1,1,-1
 533 814 l 1,2,-1
 404 509 l 1,3,-1
 297 509 l 1,0,-1
67 509 m 1,4,-1
 159 814 l 1,5,-1
 302 814 l 1,6,-1
 173 509 l 1,7,-1
 67 509 l 1,4,-1
EndSplineSet
EndChar

StartChar: numbersign
Encoding: 35 35 6
Width: 741
GlyphClass: 2
Flags: W
LayerCount: 2
Fore
SplineSet
50 178 m 1,0,-1
 50 279 l 1,1,-1
 171 279 l 1,2,-1
 191 437 l 1,3,-1
 81 437 l 1,4,-1
 81 538 l 1,5,-1
 205 538 l 1,6,-1
 228 716 l 1,7,-1
 348 716 l 1,8,-1
 325 538 l 1,9,-1
 465 538 l 1,10,-1
 488 716 l 1,11,-1
 609 716 l 1,12,-1
 585 538 l 1,13,-1
 691 538 l 1,14,-1
 691 437 l 1,15,-1
 572 437 l 1,16,-1
 552 279 l 1,17,-1
 661 279 l 1,18,-1
 661 178 l 1,19,-1
 539 178 l 1,20,-1
 516 2 l 1,21,-1
 394 2 l 1,22,-1
 418 178 l 1,23,-1
 278 178 l 1,24,-1
 255 2 l 1,25,-1
 133 2 l 1,26,-1
 157 178 l 1,27,-1
 50 178 l 1,0,-1
291 279 m 1,28,-1
 431 279 l 1,29,-1
 452 437 l 1,30,-1
 311 437 l 1,31,-1
 291 279 l 1,28,-1
EndSplineSet
EndChar

StartChar: dollar
Encoding: 36 36 7
Width: 582
GlyphClass: 2
Flags: W
LayerCount: 2
Fore
SplineSet
39 160 m 1,0,-1
 138 205 l 1,1,2
 197 112 197 112 299 112 c 0,3,4
 341 112 341 112 371 137 c 128,-1,5
 401 162 401 162 401 205 c 0,6,7
 401 229 401 229 391.5 246 c 128,-1,8
 382 263 382 263 360 276.5 c 128,-1,9
 338 290 338 290 316 300 c 128,-1,10
 294 310 294 310 253.5 327 c 128,-1,11
 213 344 213 344 182 360 c 0,12,13
 64 420 64 420 64 539 c 0,14,15
 64 599 64 599 106 654.5 c 128,-1,16
 148 710 148 710 233 727 c 1,17,-1
 233 808 l 1,18,-1
 356 808 l 1,19,-1
 356 726 l 1,20,21
 410 720 410 720 459.5 678 c 128,-1,22
 509 636 509 636 528 592 c 1,23,-1
 426 543 l 1,24,25
 374 622 374 622 294 622 c 0,26,27
 251 622 251 622 224.5 598 c 128,-1,28
 198 574 198 574 198 538 c 0,29,30
 198 520 198 520 205 506 c 128,-1,31
 212 492 212 492 221 482.5 c 128,-1,32
 230 473 230 473 250.5 461.5 c 128,-1,33
 271 450 271 450 287.5 443 c 128,-1,34
 304 436 304 436 338 422.5 c 128,-1,35
 372 409 372 409 395 399 c 0,36,37
 537 337 537 337 537 217 c 0,38,39
 537 134 537 134 487.5 78 c 128,-1,40
 438 22 438 22 356 5 c 1,41,-1
 356 -70 l 1,42,-1
 233 -70 l 1,43,-1
 233 8 l 1,44,45
 176 15 176 15 120 59 c 128,-1,46
 64 103 64 103 39 160 c 1,0,-1
EndSplineSet
EndChar

StartChar: percent
Encoding: 37 37 8
Width: 1010
GlyphClass: 2
Flags: W
LayerCount: 2
Fore
SplineSet
666 173 m 0,0,1
 666 130 666 130 690 106 c 128,-1,2
 714 82 714 82 747 82 c 0,3,4
 781 82 781 82 804 106 c 128,-1,5
 827 130 827 130 827 173 c 0,6,7
 827 214 827 214 804.5 238.5 c 128,-1,8
 782 263 782 263 747 263 c 0,9,10
 713 263 713 263 689.5 239 c 128,-1,11
 666 215 666 215 666 173 c 0,0,1
183 562 m 0,12,13
 183 519 183 519 207 495.5 c 128,-1,14
 231 472 231 472 264 472 c 0,15,16
 299 472 299 472 321.5 496.5 c 128,-1,17
 344 521 344 521 344 562 c 0,18,19
 344 604 344 604 321.5 628.5 c 128,-1,20
 299 653 299 653 264 653 c 256,21,22
 229 653 229 653 206 628.5 c 128,-1,23
 183 604 183 604 183 562 c 0,12,13
181 -6 m 1,24,-1
 696 741 l 1,25,-1
 832 741 l 1,26,-1
 315 -6 l 1,27,-1
 181 -6 l 1,24,-1
543 173 m 0,28,29
 543 254 543 254 599.5 308 c 128,-1,30
 656 362 656 362 747 362 c 256,31,32
 838 362 838 362 894.5 308 c 128,-1,33
 951 254 951 254 951 173 c 0,34,35
 951 89 951 89 893 36.5 c 128,-1,36
 835 -16 835 -16 747 -16 c 0,37,38
 656 -16 656 -16 599.5 37.5 c 128,-1,39
 543 91 543 91 543 173 c 0,28,29
60 562 m 0,40,41
 60 643 60 643 116.5 697 c 128,-1,42
 173 751 173 751 264 751 c 256,43,44
 355 751 355 751 411 697.5 c 128,-1,45
 467 644 467 644 467 562 c 0,46,47
 467 479 467 479 410 426 c 128,-1,48
 353 373 353 373 264 373 c 0,49,50
 173 373 173 373 116.5 426.5 c 128,-1,51
 60 480 60 480 60 562 c 0,40,41
EndSplineSet
EndChar

StartChar: ampersand
Encoding: 38 38 9
Width: 687
GlyphClass: 2
Flags: W
LayerCount: 2
Fore
SplineSet
176 199 m 0,0,1
 176 151 176 151 207.5 123 c 128,-1,2
 239 95 239 95 289 95 c 0,3,4
 352 95 352 95 406 149 c 1,5,-1
 258 341 l 1,6,7
 176 277 176 277 176 199 c 0,0,1
42 197 m 0,8,9
 42 333 42 333 194 432 c 1,10,-1
 186 443 l 2,11,12
 177 455 177 455 175.5 456.5 c 128,-1,13
 174 458 174 458 166.5 468.5 c 128,-1,14
 159 479 159 479 157 483.5 c 128,-1,15
 155 488 155 488 149 498 c 128,-1,16
 143 508 143 508 141.5 514 c 128,-1,17
 140 520 140 520 136.5 529.5 c 128,-1,18
 133 539 133 539 132 547.5 c 128,-1,19
 131 556 131 556 131 565 c 0,20,21
 131 642 131 642 185.5 687 c 128,-1,22
 240 732 240 732 331 732 c 0,23,24
 412 732 412 732 467 691.5 c 128,-1,25
 522 651 522 651 546 591 c 1,26,-1
 449 550 l 1,27,28
 406 622 406 622 343 622 c 0,29,30
 307 622 307 622 287 606 c 128,-1,31
 267 590 267 590 267 561 c 0,32,33
 267 551 267 551 271.5 538.5 c 128,-1,34
 276 526 276 526 287.5 507.5 c 128,-1,35
 299 489 299 489 309.5 472.5 c 128,-1,36
 320 456 320 456 341 428.5 c 128,-1,37
 362 401 362 401 378.5 380.5 c 128,-1,38
 395 360 395 360 424 323 c 128,-1,39
 453 286 453 286 472 261 c 1,40,41
 488 303 488 303 500 371 c 1,42,-1
 620 351 l 1,43,44
 603 236 603 236 553 155 c 1,45,-1
 677 0 l 1,46,-1
 519 0 l 1,47,-1
 477 52 l 1,48,49
 400 -17 400 -17 289 -17 c 0,50,51
 173 -17 173 -17 107.5 45 c 128,-1,52
 42 107 42 107 42 197 c 0,8,9
EndSplineSet
EndChar

StartChar: quotesingle
Encoding: 39 39 10
Width: 359
GlyphClass: 2
Flags: W
LayerCount: 2
Fore
SplineSet
84 509 m 1,0,-1
 177 814 l 1,1,-1
 320 814 l 1,2,-1
 191 509 l 1,3,-1
 84 509 l 1,0,-1
EndSplineSet
EndChar

StartChar: parenleft
Encoding: 40 40 11
Width: 442
GlyphClass: 2
Flags: W
LayerCount: 2
Fore
SplineSet
118 354 m 0,0,1
 118 624 118 624 288 852 c 1,2,-1
 383 795 l 2,3,4
 382 792 382 792 367 767.5 c 128,-1,5
 352 743 352 743 348.5 736.5 c 128,-1,6
 345 730 345 730 331 705.5 c 128,-1,7
 317 681 317 681 312.5 669 c 128,-1,8
 308 657 308 657 296.5 630 c 128,-1,9
 285 603 285 603 280.5 585 c 128,-1,10
 276 567 276 567 268 537.5 c 128,-1,11
 260 508 260 508 257 482 c 128,-1,12
 254 456 254 456 251 422.5 c 128,-1,13
 248 389 248 389 248 354 c 0,14,15
 248 216 248 216 282 116.5 c 128,-1,16
 316 17 316 17 383 -89 c 1,17,-1
 288 -145 l 1,18,19
 205 -30 205 -30 161.5 89.5 c 128,-1,20
 118 209 118 209 118 354 c 0,0,1
EndSplineSet
Substitution2: "'sups' Superscript lookup 5 subtable" uni207D
Substitution2: "'aalt' Access All Alternates lookup 0 subtable" uni207D
EndChar

StartChar: parenright
Encoding: 41 41 12
Width: 442
GlyphClass: 2
Flags: W
LayerCount: 2
Fore
SplineSet
58 -89 m 1,0,1
 131 22 131 22 162.5 124.5 c 128,-1,2
 194 227 194 227 194 353 c 0,3,4
 194 430 194 430 183.5 495.5 c 128,-1,5
 173 561 173 561 151.5 616 c 128,-1,6
 130 671 130 671 110 707.5 c 128,-1,7
 90 744 90 744 58 795 c 1,8,-1
 155 852 l 1,9,10
 233 747 233 747 278.5 628 c 128,-1,11
 324 509 324 509 324 353 c 0,12,13
 324 204 324 204 280 85 c 128,-1,14
 236 -34 236 -34 155 -145 c 1,15,-1
 58 -89 l 1,0,1
EndSplineSet
Substitution2: "'sups' Superscript lookup 5 subtable" uni207E
Substitution2: "'aalt' Access All Alternates lookup 0 subtable" uni207E
EndChar

StartChar: asterisk
Encoding: 42 42 13
Width: 557
GlyphClass: 2
Flags: W
LayerCount: 2
Fore
SplineSet
16 396 m 1,0,-1
 61 503 l 1,1,-1
 225 439 l 1,2,-1
 219 614 l 1,3,-1
 338 614 l 1,4,-1
 332 439 l 1,5,-1
 496 503 l 1,6,-1
 540 396 l 1,7,-1
 356 344 l 1,8,-1
 498 193 l 1,9,-1
 397 118 l 1,10,-1
 278 286 l 1,11,-1
 159 118 l 1,12,-1
 58 193 l 1,13,-1
 201 344 l 1,14,-1
 16 396 l 1,0,-1
EndSplineSet
EndChar

StartChar: plus
Encoding: 43 43 14
Width: 557
GlyphClass: 2
Flags: W
LayerCount: 2
Fore
SplineSet
26 304 m 1,0,-1
 26 420 l 1,1,-1
 213 420 l 1,2,-1
 213 610 l 1,3,-1
 343 610 l 1,4,-1
 343 420 l 1,5,-1
 530 420 l 1,6,-1
 530 304 l 1,7,-1
 343 304 l 1,8,-1
 343 107 l 1,9,-1
 213 107 l 1,10,-1
 213 304 l 1,11,-1
 26 304 l 1,0,-1
EndSplineSet
Substitution2: "'sups' Superscript lookup 5 subtable" uni207A
Substitution2: "'aalt' Access All Alternates lookup 0 subtable" uni207A
EndChar

StartChar: comma
Encoding: 44 44 15
Width: 275
GlyphClass: 2
Flags: W
LayerCount: 2
Fore
SplineSet
-1 -152 m 1,0,-1
 91 152 l 1,1,-1
 236 152 l 1,2,-1
 105 -152 l 1,3,-1
 -1 -152 l 1,0,-1
EndSplineSet
EndChar

StartChar: hyphen
Encoding: 45 45 16
Width: 390
GlyphClass: 2
Flags: W
LayerCount: 2
Fore
SplineSet
34 304 m 1,0,-1
 34 420 l 1,1,-1
 356 420 l 1,2,-1
 356 304 l 1,3,-1
 34 304 l 1,0,-1
EndSplineSet
EndChar

StartChar: period
Encoding: 46 46 17
Width: 275
GlyphClass: 2
Flags: W
LayerCount: 2
Fore
SplineSet
54 0 m 1,0,-1
 54 152 l 1,1,-1
 221 152 l 1,2,-1
 221 0 l 1,3,-1
 54 0 l 1,0,-1
EndSplineSet
EndChar

StartChar: slash
Encoding: 47 47 18
Width: 389
GlyphClass: 2
Flags: W
LayerCount: 2
Fore
SplineSet
-16 -53 m 1,0,-1
 268 783 l 1,1,-1
 404 783 l 1,2,-1
 121 -53 l 1,3,-1
 -16 -53 l 1,0,-1
EndSplineSet
EndChar

StartChar: zero
Encoding: 48 48 19
Width: 550
GlyphClass: 2
Flags: W
LayerCount: 2
Fore
SplineSet
170 367 m 256,0,1
 170 95 170 95 275 95 c 0,2,3
 379 95 379 95 379 367 c 256,4,5
 379 639 379 639 274 639 c 0,6,7
 170 639 170 639 170 367 c 256,0,1
30 367 m 0,8,9
 30 456 30 456 45.5 525.5 c 128,-1,10
 61 595 61 595 85 636.5 c 128,-1,11
 109 678 109 678 142.5 705 c 128,-1,12
 176 732 176 732 208 741.5 c 128,-1,13
 240 751 240 751 274 751 c 0,14,15
 393 751 393 751 456.5 649 c 128,-1,16
 520 547 520 547 520 367 c 0,17,18
 520 189 520 189 456.5 86 c 128,-1,19
 393 -17 393 -17 275 -17 c 0,20,21
 243 -17 243 -17 211.5 -8 c 128,-1,22
 180 1 180 1 146.5 27 c 128,-1,23
 113 53 113 53 88 94 c 128,-1,24
 63 135 63 135 46.5 205.5 c 128,-1,25
 30 276 30 276 30 367 c 0,8,9
EndSplineSet
EndChar

StartChar: one
Encoding: 49 49 20
Width: 550
GlyphClass: 2
Flags: W
LayerCount: 2
Fore
SplineSet
70 505 m 1,0,-1
 70 607 l 1,1,-1
 105 607 l 2,2,3
 187 607 187 607 222 640 c 128,-1,4
 257 673 257 673 257 723 c 2,5,-1
 257 740 l 1,6,-1
 376 740 l 1,7,-1
 376 -7 l 1,8,-1
 236 -7 l 1,9,-1
 236 505 l 1,10,-1
 70 505 l 1,0,-1
EndSplineSet
Substitution2: "'subs' Subscript lookup 6 subtable" uni2081
Substitution2: "'sups' Superscript lookup 5 subtable" onesuperior
Substitution2: "'sinf' Scientific Inferiors lookup 4 subtable" uni2081
AlternateSubs2: "'aalt' Access All Alternates lookup 1 subtable" uni2081 onesuperior
EndChar

StartChar: two
Encoding: 50 50 21
Width: 550
GlyphClass: 2
Flags: W
LayerCount: 2
Fore
SplineSet
35 549 m 1,0,1
 56 643 56 643 116 697 c 128,-1,2
 176 751 176 751 271 751 c 0,3,4
 372 751 372 751 436 693 c 128,-1,5
 500 635 500 635 500 537 c 0,6,7
 500 473 500 473 471 422 c 128,-1,8
 442 371 442 371 388 318 c 0,9,10
 375 305 375 305 341.5 273 c 128,-1,11
 308 241 308 241 290.5 222.5 c 128,-1,12
 273 204 273 204 249 173 c 128,-1,13
 225 142 225 142 209 111 c 1,14,-1
 497 111 l 1,15,-1
 497 0 l 1,16,-1
 43 0 l 1,17,18
 43 46 43 46 57.5 91.5 c 128,-1,19
 72 137 72 137 90.5 170.5 c 128,-1,20
 109 204 109 204 144 244.5 c 128,-1,21
 179 285 179 285 202 308.5 c 128,-1,22
 225 332 225 332 266 371 c 0,23,24
 276 381 276 381 282 385 c 0,25,26
 359 458 359 458 359 540 c 0,27,28
 359 585 359 585 334 612 c 128,-1,29
 309 639 309 639 269 639 c 0,30,31
 179 639 179 639 150 514 c 1,32,-1
 35 549 l 1,0,1
EndSplineSet
Substitution2: "'subs' Subscript lookup 6 subtable" uni2082
Substitution2: "'sups' Superscript lookup 5 subtable" twosuperior
Substitution2: "'sinf' Scientific Inferiors lookup 4 subtable" uni2082
AlternateSubs2: "'aalt' Access All Alternates lookup 1 subtable" uni2082 twosuperior
EndChar

StartChar: three
Encoding: 51 51 22
Width: 550
GlyphClass: 2
Flags: W
LayerCount: 2
Fore
SplineSet
22 155 m 1,0,-1
 129 194 l 1,1,2
 171 95 171 95 264 95 c 0,3,4
 312 95 312 95 345.5 126 c 128,-1,5
 379 157 379 157 379 212 c 0,6,7
 379 262 379 262 342.5 294.5 c 128,-1,8
 306 327 306 327 247 327 c 0,9,10
 213 327 213 327 178 323 c 1,11,-1
 178 434 l 1,12,13
 202 432 202 432 243 432 c 0,14,15
 289 432 289 432 321 460.5 c 128,-1,16
 353 489 353 489 353 540 c 0,17,18
 353 583 353 583 326 611 c 128,-1,19
 299 639 299 639 258 639 c 0,20,21
 182 639 182 639 148 536 c 1,22,-1
 37 570 l 1,23,24
 56 651 56 651 116 701 c 128,-1,25
 176 751 176 751 265 751 c 0,26,27
 369 751 369 751 431 695 c 128,-1,28
 493 639 493 639 493 552 c 0,29,30
 493 498 493 498 465.5 454 c 128,-1,31
 438 410 438 410 397 387 c 1,32,33
 445 370 445 370 482 324.5 c 128,-1,34
 519 279 519 279 519 212 c 0,35,36
 519 105 519 105 450 44.5 c 128,-1,37
 381 -16 381 -16 265 -16 c 0,38,39
 171 -16 171 -16 106 34 c 128,-1,40
 41 84 41 84 22 155 c 1,0,-1
EndSplineSet
Substitution2: "'subs' Subscript lookup 6 subtable" uni2083
Substitution2: "'sups' Superscript lookup 5 subtable" threesuperior
Substitution2: "'sinf' Scientific Inferiors lookup 4 subtable" uni2083
AlternateSubs2: "'aalt' Access All Alternates lookup 1 subtable" uni2083 threesuperior
EndChar

StartChar: four
Encoding: 52 52 23
Width: 550
GlyphClass: 2
Flags: W
LayerCount: 2
Fore
SplineSet
16 258 m 1,0,-1
 334 740 l 1,1,-1
 451 740 l 1,2,-1
 451 260 l 1,3,-1
 536 260 l 1,4,-1
 536 149 l 1,5,-1
 451 149 l 1,6,-1
 451 -5 l 1,7,-1
 316 -5 l 1,8,-1
 316 149 l 1,9,-1
 16 149 l 1,10,-1
 16 258 l 1,0,-1
143 260 m 1,11,-1
 316 260 l 1,12,-1
 316 445 l 2,13,14
 316 492 316 492 319 536 c 1,15,-1
 315 536 l 1,16,17
 279 473 279 473 269 457 c 2,18,-1
 143 260 l 1,11,-1
EndSplineSet
Substitution2: "'subs' Subscript lookup 6 subtable" uni2084
Substitution2: "'sups' Superscript lookup 5 subtable" uni2074
Substitution2: "'sinf' Scientific Inferiors lookup 4 subtable" uni2084
AlternateSubs2: "'aalt' Access All Alternates lookup 1 subtable" uni2084 uni2074
EndChar

StartChar: five
Encoding: 53 53 24
Width: 550
GlyphClass: 2
Flags: W
LayerCount: 2
Fore
SplineSet
30 142 m 1,0,-1
 142 183 l 1,1,2
 157 145 157 145 187.5 120 c 128,-1,3
 218 95 218 95 254 95 c 0,4,5
 307 95 307 95 339.5 132 c 128,-1,6
 372 169 372 169 372 231 c 0,7,8
 372 290 372 290 338.5 329.5 c 128,-1,9
 305 369 305 369 253 369 c 0,10,11
 189 369 189 369 140 300 c 1,12,-1
 54 333 l 1,13,-1
 94 735 l 1,14,-1
 473 735 l 1,15,-1
 473 623 l 1,16,-1
 218 623 l 1,17,-1
 198 449 l 1,18,19
 240 479 240 479 300 479 c 0,20,21
 394 479 394 479 453 413 c 128,-1,22
 512 347 512 347 512 235 c 0,23,24
 512 187 512 187 497.5 144 c 128,-1,25
 483 101 483 101 454 64 c 128,-1,26
 425 27 425 27 375 5.5 c 128,-1,27
 325 -16 325 -16 260 -16 c 0,28,29
 173 -16 173 -16 115.5 27 c 128,-1,30
 58 70 58 70 30 142 c 1,0,-1
EndSplineSet
EndChar

StartChar: six
Encoding: 54 54 25
Width: 550
GlyphClass: 2
Flags: W
LayerCount: 2
Fore
SplineSet
175 236 m 0,0,1
 175 169 175 169 204 132 c 128,-1,2
 233 95 233 95 280 95 c 0,3,4
 326 95 326 95 354 131.5 c 128,-1,5
 382 168 382 168 382 236 c 256,6,7
 382 304 382 304 354 340.5 c 128,-1,8
 326 377 326 377 279 377 c 256,9,10
 232 377 232 377 203.5 338.5 c 128,-1,11
 175 300 175 300 175 236 c 0,0,1
34 336 m 0,12,13
 34 452 34 452 60.5 543 c 128,-1,14
 87 634 87 634 149 692.5 c 128,-1,15
 211 751 211 751 302 751 c 0,16,17
 452 751 452 751 518 593 c 1,18,-1
 411 557 l 1,19,20
 370 639 370 639 302 639 c 0,21,22
 221 639 221 639 187 509 c 0,23,24
 175 462 175 462 172 427 c 1,25,26
 215 488 215 488 298 488 c 0,27,28
 397 488 397 488 459 417 c 128,-1,29
 521 346 521 346 521 236 c 0,30,31
 521 125 521 125 458 54.5 c 128,-1,32
 395 -16 395 -16 284 -16 c 0,33,34
 167 -16 167 -16 106 62 c 0,35,36
 34 151 34 151 34 336 c 0,12,13
EndSplineSet
EndChar

StartChar: seven
Encoding: 55 55 26
Width: 550
GlyphClass: 2
Flags: W
LayerCount: 2
Fore
SplineSet
39 620 m 1,0,-1
 39 735 l 1,1,-1
 510 735 l 1,2,-1
 510 643 l 1,3,4
 345 383 345 383 256 -5 c 1,5,-1
 115 -5 l 1,6,7
 175 315 175 315 351 620 c 1,8,-1
 39 620 l 1,0,-1
EndSplineSet
EndChar

StartChar: eight
Encoding: 56 56 27
Width: 550
GlyphClass: 2
Flags: W
LayerCount: 2
Fore
SplineSet
189 540 m 0,0,1
 189 495 189 495 213 467 c 128,-1,2
 237 439 237 439 274 439 c 0,3,4
 313 439 313 439 336.5 467.5 c 128,-1,5
 360 496 360 496 360 540 c 0,6,7
 360 582 360 582 337 610.5 c 128,-1,8
 314 639 314 639 274 639 c 256,9,10
 234 639 234 639 211.5 610.5 c 128,-1,11
 189 582 189 582 189 540 c 0,0,1
26 204 m 0,12,13
 26 276 26 276 64 320.5 c 128,-1,14
 102 365 102 365 150 386 c 1,15,16
 48 443 48 443 48 546 c 0,17,18
 48 635 48 635 113 693 c 128,-1,19
 178 751 178 751 274 751 c 0,20,21
 372 751 372 751 436.5 693 c 128,-1,22
 501 635 501 635 501 546 c 0,23,24
 501 444 501 444 399 386 c 1,25,26
 451 363 451 363 487.5 318 c 128,-1,27
 524 273 524 273 524 204 c 0,28,29
 524 105 524 105 454.5 44.5 c 128,-1,30
 385 -16 385 -16 274 -16 c 0,31,32
 171 -16 171 -16 98.5 41.5 c 128,-1,33
 26 99 26 99 26 204 c 0,12,13
167 211 m 0,34,35
 167 161 167 161 196.5 128 c 128,-1,36
 226 95 226 95 274 95 c 256,37,38
 322 95 322 95 352.5 128.5 c 128,-1,39
 383 162 383 162 383 211 c 0,40,41
 383 258 383 258 353 293.5 c 128,-1,42
 323 329 323 329 274 329 c 0,43,44
 226 329 226 329 196.5 294 c 128,-1,45
 167 259 167 259 167 211 c 0,34,35
EndSplineSet
EndChar

StartChar: nine
Encoding: 57 57 28
Width: 550
GlyphClass: 2
Flags: W
LayerCount: 2
Fore
SplineSet
166 501 m 0,0,1
 166 437 166 437 194 399.5 c 128,-1,2
 222 362 222 362 267 362 c 0,3,4
 313 362 313 362 341 401 c 128,-1,5
 369 440 369 440 369 502 c 0,6,7
 369 561 369 561 342 600 c 128,-1,8
 315 639 315 639 267 639 c 0,9,10
 221 639 221 639 193.5 600 c 128,-1,11
 166 561 166 561 166 501 c 0,0,1
26 141 m 1,12,-1
 136 176 l 1,13,14
 177 95 177 95 244 95 c 0,15,16
 280 95 280 95 306 114.5 c 128,-1,17
 332 134 332 134 346 167.5 c 128,-1,18
 360 201 360 201 367 236 c 128,-1,19
 374 271 374 271 375 310 c 1,20,21
 332 252 332 252 248 252 c 0,22,23
 155 252 155 252 92 319.5 c 128,-1,24
 29 387 29 387 29 500 c 0,25,26
 29 612 29 612 95.5 681.5 c 128,-1,27
 162 751 162 751 267 751 c 0,28,29
 356 751 356 751 415 695 c 128,-1,30
 474 639 474 639 495 546 c 0,31,32
 509 487 509 487 509 401 c 0,33,34
 509 199 509 199 443.5 91.5 c 128,-1,35
 378 -16 378 -16 243 -16 c 0,36,37
 165 -16 165 -16 106.5 31.5 c 128,-1,38
 48 79 48 79 26 141 c 1,12,-1
EndSplineSet
EndChar

StartChar: colon
Encoding: 58 58 29
Width: 275
GlyphClass: 2
Flags: W
LayerCount: 2
Fore
SplineSet
54 0 m 1,0,-1
 54 153 l 1,1,-1
 221 153 l 1,2,-1
 221 0 l 1,3,-1
 54 0 l 1,0,-1
54 395 m 1,4,-1
 54 548 l 1,5,-1
 221 548 l 1,6,-1
 221 395 l 1,7,-1
 54 395 l 1,4,-1
EndSplineSet
EndChar

StartChar: semicolon
Encoding: 59 59 30
Width: 275
GlyphClass: 2
Flags: W
LayerCount: 2
Fore
SplineSet
-1 -152 m 1,0,-1
 91 153 l 1,1,-1
 236 153 l 1,2,-1
 105 -152 l 1,3,-1
 -1 -152 l 1,0,-1
60 395 m 1,4,-1
 60 548 l 1,5,-1
 228 548 l 1,6,-1
 228 395 l 1,7,-1
 60 395 l 1,4,-1
EndSplineSet
EndChar

StartChar: less
Encoding: 60 60 31
Width: 557
GlyphClass: 2
Flags: W
LayerCount: 2
Fore
SplineSet
37 296 m 1,0,-1
 37 416 l 1,1,-1
 439 719 l 1,2,-1
 510 620 l 1,3,-1
 164 357 l 1,4,-1
 510 92 l 1,5,-1
 439 -6 l 1,6,-1
 37 296 l 1,0,-1
EndSplineSet
EndChar

StartChar: equal
Encoding: 61 61 32
Width: 557
GlyphClass: 2
Flags: W
LayerCount: 2
Fore
SplineSet
48 201 m 1,0,-1
 48 316 l 1,1,-1
 509 316 l 1,2,-1
 509 201 l 1,3,-1
 48 201 l 1,0,-1
48 408 m 1,4,-1
 48 525 l 1,5,-1
 509 525 l 1,6,-1
 509 408 l 1,7,-1
 48 408 l 1,4,-1
EndSplineSet
Substitution2: "'sups' Superscript lookup 5 subtable" uni207C
Substitution2: "'aalt' Access All Alternates lookup 0 subtable" uni207C
EndChar

StartChar: greater
Encoding: 62 62 33
Width: 557
GlyphClass: 2
Flags: W
LayerCount: 2
Fore
SplineSet
117 -6 m 1,0,-1
 47 92 l 1,1,-1
 391 357 l 1,2,-1
 47 620 l 1,3,-1
 117 719 l 1,4,-1
 520 416 l 1,5,-1
 520 296 l 1,6,-1
 117 -6 l 1,0,-1
EndSplineSet
EndChar

StartChar: question
Encoding: 63 63 34
Width: 577
GlyphClass: 2
Flags: W
LayerCount: 2
Fore
SplineSet
58 572 m 1,0,1
 79 649 79 649 140.5 702.5 c 128,-1,2
 202 756 202 756 294 756 c 0,3,4
 394 756 394 756 456.5 698 c 128,-1,5
 519 640 519 640 519 545 c 0,6,7
 519 501 519 501 502 466 c 128,-1,8
 485 431 485 431 460.5 407.5 c 128,-1,9
 436 384 436 384 412 362 c 128,-1,10
 388 340 388 340 371 309.5 c 128,-1,11
 354 279 354 279 354 242 c 2,12,-1
 354 208 l 1,13,-1
 217 208 l 1,14,-1
 217 252 l 2,15,16
 217 297 217 297 233.5 334 c 128,-1,17
 250 371 250 371 274 395 c 128,-1,18
 298 419 298 419 321.5 441 c 128,-1,19
 345 463 345 463 361.5 491 c 128,-1,20
 378 519 378 519 378 551 c 0,21,22
 378 592 378 592 355.5 616.5 c 128,-1,23
 333 641 333 641 296 641 c 0,24,25
 219 641 219 641 179 532 c 1,26,-1
 58 572 l 1,0,1
202 -3 m 1,27,-1
 202 147 l 1,28,-1
 369 147 l 1,29,-1
 369 -3 l 1,30,-1
 202 -3 l 1,27,-1
EndSplineSet
EndChar

StartChar: at
Encoding: 64 64 35
Width: 930
GlyphClass: 2
Flags: W
LayerCount: 2
Fore
SplineSet
46 346 m 0,0,1
 46 532 46 532 168.5 652 c 128,-1,2
 291 772 291 772 484 772 c 0,3,4
 660 772 660 772 773 665.5 c 128,-1,5
 886 559 886 559 886 398 c 0,6,7
 886 336 886 336 871.5 286 c 128,-1,8
 857 236 857 236 835 204.5 c 128,-1,9
 813 173 813 173 783.5 152 c 128,-1,10
 754 131 754 131 724.5 122 c 128,-1,11
 695 113 695 113 665 113 c 0,12,13
 625 113 625 113 595 135 c 128,-1,14
 565 157 565 157 556 191 c 1,15,-1
 555 191 l 1,16,17
 542 162 542 162 506 138 c 128,-1,18
 470 114 470 114 426 114 c 0,19,20
 353 114 353 114 303.5 169.5 c 128,-1,21
 254 225 254 225 254 315 c 0,22,23
 254 436 254 436 315 504.5 c 128,-1,24
 376 573 376 573 462 573 c 0,25,26
 494 573 494 573 519 559 c 128,-1,27
 544 545 544 545 557 530 c 1,28,-1
 560 567 l 1,29,-1
 659 567 l 1,30,-1
 643 269 l 2,31,32
 643 264 643 264 643 260 c 0,33,34
 643 212 643 212 673 212 c 0,35,36
 710 212 710 212 740.5 260.5 c 128,-1,37
 771 309 771 309 771 392 c 0,38,39
 771 518 771 518 692.5 597.5 c 128,-1,40
 614 677 614 677 484 677 c 0,41,42
 342 677 342 677 252 582.5 c 128,-1,43
 162 488 162 488 162 346 c 0,44,45
 162 193 162 193 249 104.5 c 128,-1,46
 336 16 336 16 475 16 c 0,47,48
 577 16 577 16 678 45 c 1,49,-1
 698 -45 l 1,50,51
 602 -79 602 -79 475 -79 c 0,52,53
 278 -79 278 -79 162 38.5 c 128,-1,54
 46 156 46 156 46 346 c 0,0,1
376 317 m 0,55,56
 376 278 376 278 394.5 248.5 c 128,-1,57
 413 219 413 219 444 219 c 0,58,59
 479 219 479 219 508 260.5 c 128,-1,60
 537 302 537 302 537 398 c 0,61,62
 537 434 537 434 520.5 455 c 128,-1,63
 504 476 504 476 473 476 c 0,64,65
 436 476 436 476 406 431.5 c 128,-1,66
 376 387 376 387 376 317 c 0,55,56
EndSplineSet
EndChar

StartChar: A
Encoding: 65 65 36
Width: 664
GlyphClass: 2
Flags: W
LayerCount: 2
Fore
SplineSet
231 282 m 1,0,-1
 433 282 l 1,1,-1
 379 456 l 2,2,3
 361 516 361 516 335 603 c 1,4,-1
 330 603 l 1,5,6
 322 577 322 577 307 527 c 128,-1,7
 292 477 292 477 286 456 c 2,8,-1
 231 282 l 1,0,-1
-4 0 m 1,9,-1
 259 735 l 1,10,-1
 405 735 l 1,11,-1
 668 0 l 1,12,-1
 524 0 l 1,13,-1
 468 173 l 1,14,-1
 196 173 l 1,15,-1
 141 0 l 1,16,-1
 -4 0 l 1,9,-1
EndSplineSet
Substitution2: "Single Substitution lookup 12 subtable" ordfeminine
EndChar

StartChar: B
Encoding: 66 66 37
Width: 661
GlyphClass: 2
Flags: W
LayerCount: 2
Fore
SplineSet
77 0 m 1,0,-1
 77 735 l 1,1,-1
 358 735 l 2,2,3
 479 735 479 735 538 683 c 128,-1,4
 597 631 597 631 597 540 c 0,5,6
 597 488 597 488 573.5 449.5 c 128,-1,7
 550 411 550 411 511 390 c 1,8,9
 555 373 555 373 589 328 c 128,-1,10
 623 283 623 283 623 216 c 0,11,12
 623 122 623 122 562.5 61 c 128,-1,13
 502 0 502 0 394 0 c 2,14,-1
 77 0 l 1,0,-1
213 116 m 1,15,-1
 373 116 l 2,16,17
 417 116 417 116 449.5 142 c 128,-1,18
 482 168 482 168 482 216 c 0,19,20
 482 262 482 262 453 291 c 128,-1,21
 424 320 424 320 370 320 c 2,22,-1
 213 320 l 1,23,-1
 213 116 l 1,15,-1
213 436 m 1,24,-1
 347 436 l 2,25,26
 396 436 396 436 426 458.5 c 128,-1,27
 456 481 456 481 456 529 c 0,28,29
 456 618 456 618 350 618 c 2,30,-1
 213 618 l 1,31,-1
 213 436 l 1,24,-1
EndSplineSet
EndChar

StartChar: C
Encoding: 67 67 38
Width: 666
GlyphClass: 2
Flags: W
LayerCount: 2
Fore
SplineSet
36 368 m 0,0,1
 36 544 36 544 127.5 647.5 c 128,-1,2
 219 751 219 751 365 751 c 0,3,4
 461 751 461 751 529.5 699 c 128,-1,5
 598 647 598 647 631 569 c 1,6,-1
 514 530 l 1,7,8
 455 635 455 635 363 635 c 0,9,10
 278 635 278 635 227 562 c 128,-1,11
 176 489 176 489 176 368 c 0,12,13
 176 245 176 245 227 172.5 c 128,-1,14
 278 100 278 100 363 100 c 0,15,16
 419 100 419 100 463 135 c 128,-1,17
 507 170 507 170 526 220 c 1,18,-1
 649 183 l 1,19,20
 635 148 635 148 613.5 116 c 128,-1,21
 592 84 592 84 558 52.5 c 128,-1,22
 524 21 524 21 474.5 2.5 c 128,-1,23
 425 -16 425 -16 365 -16 c 0,24,25
 222 -16 222 -16 129 86 c 128,-1,26
 36 188 36 188 36 368 c 0,0,1
EndSplineSet
EndChar

StartChar: D
Encoding: 68 68 39
Width: 684
GlyphClass: 2
Flags: W
LayerCount: 2
Fore
SplineSet
77 0 m 1,0,-1
 77 735 l 1,1,-1
 300 735 l 2,2,3
 469 735 469 735 559 640 c 128,-1,4
 649 545 649 545 649 368 c 0,5,6
 649 310 649 310 639 258.5 c 128,-1,7
 629 207 629 207 604 158.5 c 128,-1,8
 579 110 579 110 540 76 c 128,-1,9
 501 42 501 42 440 21 c 128,-1,10
 379 0 379 0 300 0 c 2,11,-1
 77 0 l 1,0,-1
213 115 m 1,12,-1
 286 115 l 2,13,14
 395 115 395 115 451.5 175.5 c 128,-1,15
 508 236 508 236 508 368 c 0,16,17
 508 504 508 504 450 562 c 128,-1,18
 392 620 392 620 288 620 c 2,19,-1
 213 620 l 1,20,-1
 213 115 l 1,12,-1
EndSplineSet
EndChar

StartChar: E
Encoding: 69 69 40
Width: 603
GlyphClass: 2
Flags: W
LayerCount: 2
Fore
SplineSet
77 0 m 1,0,-1
 77 735 l 1,1,-1
 566 735 l 1,2,-1
 566 618 l 1,3,-1
 213 618 l 1,4,-1
 213 437 l 1,5,-1
 531 437 l 1,6,-1
 531 322 l 1,7,-1
 213 322 l 1,8,-1
 213 116 l 1,9,-1
 575 116 l 1,10,-1
 575 0 l 1,11,-1
 77 0 l 1,0,-1
EndSplineSet
EndChar

StartChar: F
Encoding: 70 70 41
Width: 564
GlyphClass: 2
Flags: W
LayerCount: 2
Fore
SplineSet
77 0 m 1,0,-1
 77 735 l 1,1,-1
 551 735 l 1,2,-1
 551 618 l 1,3,-1
 213 618 l 1,4,-1
 213 425 l 1,5,-1
 517 425 l 1,6,-1
 517 310 l 1,7,-1
 213 310 l 1,8,-1
 213 0 l 1,9,-1
 77 0 l 1,0,-1
EndSplineSet
EndChar

StartChar: G
Encoding: 71 71 42
Width: 708
GlyphClass: 2
Flags: W
LayerCount: 2
Fore
SplineSet
36 368 m 0,0,1
 36 536 36 536 127 643.5 c 128,-1,2
 218 751 218 751 371 751 c 0,3,4
 418 751 418 751 460 737.5 c 128,-1,5
 502 724 502 724 531 704.5 c 128,-1,6
 560 685 560 685 584 659 c 128,-1,7
 608 633 608 633 621 612 c 128,-1,8
 634 591 634 591 643 570 c 1,9,-1
 526 532 l 1,10,11
 511 554 511 554 500 568 c 128,-1,12
 489 582 489 582 470 599.5 c 128,-1,13
 451 617 451 617 426.5 626 c 128,-1,14
 402 635 402 635 372 635 c 0,15,16
 279 635 279 635 227.5 562 c 128,-1,17
 176 489 176 489 176 368 c 0,18,19
 176 246 176 246 229 173 c 128,-1,20
 282 100 282 100 366 100 c 0,21,22
 437 100 437 100 478 139 c 128,-1,23
 519 178 519 178 527 241 c 0,24,25
 530 292 530 292 530 299 c 1,26,-1
 358 299 l 1,27,-1
 358 415 l 1,28,-1
 662 415 l 1,29,-1
 662 0 l 1,30,-1
 569 0 l 1,31,-1
 556 66 l 1,32,33
 494 -16 494 -16 362 -16 c 0,34,35
 222 -16 222 -16 129 88 c 128,-1,36
 36 192 36 192 36 368 c 0,0,1
EndSplineSet
EndChar

StartChar: H
Encoding: 72 72 43
Width: 700
GlyphClass: 2
Flags: W
LayerCount: 2
Fore
SplineSet
77 0 m 1,0,-1
 77 735 l 1,1,-1
 212 735 l 1,2,-1
 212 436 l 1,3,-1
 488 436 l 1,4,-1
 488 735 l 1,5,-1
 624 735 l 1,6,-1
 624 0 l 1,7,-1
 488 0 l 1,8,-1
 488 320 l 1,9,-1
 212 320 l 1,10,-1
 212 0 l 1,11,-1
 77 0 l 1,0,-1
EndSplineSet
EndChar

StartChar: I
Encoding: 73 73 44
Width: 288
GlyphClass: 2
Flags: W
LayerCount: 2
Fore
SplineSet
77 0 m 1,0,-1
 77 735 l 1,1,-1
 213 735 l 1,2,-1
 213 0 l 1,3,-1
 77 0 l 1,0,-1
EndSplineSet
EndChar

StartChar: J
Encoding: 74 74 45
Width: 519
GlyphClass: 2
Flags: W
LayerCount: 2
Fore
SplineSet
7 142 m 1,0,-1
 119 187 l 1,1,2
 128 152 128 152 153 126 c 128,-1,3
 178 100 178 100 215 100 c 0,4,5
 259 100 259 100 282.5 133.5 c 128,-1,6
 306 167 306 167 306 229 c 2,7,-1
 306 735 l 1,8,-1
 443 735 l 1,9,-1
 443 212 l 2,10,11
 443 103 443 103 384.5 43.5 c 128,-1,12
 326 -16 326 -16 219 -16 c 0,13,14
 132 -16 132 -16 79 31 c 128,-1,15
 26 78 26 78 7 142 c 1,0,-1
EndSplineSet
EndChar

StartChar: K
Encoding: 75 75 46
Width: 655
GlyphClass: 2
Flags: W
LayerCount: 2
Fore
SplineSet
77 0 m 1,0,-1
 77 735 l 1,1,-1
 213 735 l 1,2,-1
 213 420 l 1,3,-1
 215 420 l 1,4,-1
 486 735 l 1,5,-1
 656 735 l 1,6,-1
 371 413 l 1,7,-1
 661 0 l 1,8,-1
 498 0 l 1,9,-1
 285 317 l 1,10,-1
 213 235 l 1,11,-1
 213 0 l 1,12,-1
 77 0 l 1,0,-1
EndSplineSet
EndChar

StartChar: L
Encoding: 76 76 47
Width: 551
GlyphClass: 2
Flags: W
LayerCount: 2
Fore
SplineSet
77 0 m 1,0,-1
 77 735 l 1,1,-1
 213 735 l 1,2,-1
 213 116 l 1,3,-1
 540 116 l 1,4,-1
 540 0 l 1,5,-1
 77 0 l 1,0,-1
EndSplineSet
EndChar

StartChar: M
Encoding: 77 77 48
Width: 847
GlyphClass: 2
Flags: W
LayerCount: 2
Fore
SplineSet
77 0 m 1,0,-1
 77 735 l 1,1,-1
 242 735 l 1,2,-1
 360 409 l 2,3,4
 373 373 373 373 394 308 c 128,-1,5
 415 243 415 243 422 220 c 1,6,-1
 425 220 l 1,7,8
 432 238 432 238 453.5 303 c 128,-1,9
 475 368 475 368 489 409 c 2,10,-1
 605 735 l 1,11,-1
 771 735 l 1,12,-1
 771 0 l 1,13,-1
 637 0 l 1,14,-1
 637 308 l 2,15,16
 637 394 637 394 652 537 c 1,17,-1
 647 537 l 1,18,-1
 590 362 l 1,19,-1
 473 38 l 1,20,-1
 375 38 l 1,21,-1
 260 362 l 1,22,-1
 201 538 l 1,23,-1
 196 538 l 1,24,25
 212 404 212 404 212 308 c 2,26,-1
 212 0 l 1,27,-1
 77 0 l 1,0,-1
EndSplineSet
EndChar

StartChar: N
Encoding: 78 78 49
Width: 705
GlyphClass: 2
Flags: W
LayerCount: 2
Fore
SplineSet
77 0 m 1,0,-1
 77 735 l 1,1,-1
 216 735 l 1,2,-1
 424 352 l 1,3,-1
 503 204 l 1,4,-1
 508 204 l 1,5,6
 493 310 493 310 493 417 c 2,7,-1
 493 735 l 1,8,-1
 629 735 l 1,9,-1
 629 0 l 1,10,-1
 489 0 l 1,11,-1
 283 373 l 1,12,-1
 202 528 l 1,13,-1
 198 528 l 1,14,15
 213 426 213 426 213 314 c 2,16,-1
 213 0 l 1,17,-1
 77 0 l 1,0,-1
EndSplineSet
EndChar

StartChar: O
Encoding: 79 79 50
Width: 708
GlyphClass: 2
Flags: W
LayerCount: 2
Fore
SplineSet
36 367 m 256,0,1
 36 540 36 540 123.5 645.5 c 128,-1,2
 211 751 211 751 354 751 c 0,3,4
 498 751 498 751 585.5 645.5 c 128,-1,5
 673 540 673 540 673 367 c 256,6,7
 673 194 673 194 585.5 89 c 128,-1,8
 498 -16 498 -16 354 -16 c 256,9,10
 210 -16 210 -16 123 89 c 128,-1,11
 36 194 36 194 36 367 c 256,0,1
176 367 m 256,12,13
 176 244 176 244 223 172 c 128,-1,14
 270 100 270 100 354 100 c 0,15,16
 437 100 437 100 484 171.5 c 128,-1,17
 531 243 531 243 531 367 c 0,18,19
 531 490 531 490 484.5 562.5 c 128,-1,20
 438 635 438 635 354 635 c 0,21,22
 271 635 271 635 223.5 562.5 c 128,-1,23
 176 490 176 490 176 367 c 256,12,13
EndSplineSet
Substitution2: "Single Substitution lookup 12 subtable" ordmasculine
EndChar

StartChar: P
Encoding: 80 80 51
Width: 645
GlyphClass: 2
Flags: W
LayerCount: 2
Fore
SplineSet
77 0 m 1,0,-1
 77 735 l 1,1,-1
 367 735 l 2,2,3
 485 735 485 735 550 672 c 128,-1,4
 615 609 615 609 615 507 c 0,5,6
 615 401 615 401 548 340 c 128,-1,7
 481 279 481 279 370 279 c 2,8,-1
 213 279 l 1,9,-1
 213 0 l 1,10,-1
 77 0 l 1,0,-1
213 395 m 1,11,-1
 351 395 l 2,12,13
 410 395 410 395 443 424 c 128,-1,14
 476 453 476 453 476 507 c 256,15,16
 476 561 476 561 444 589.5 c 128,-1,17
 412 618 412 618 351 618 c 2,18,-1
 213 618 l 1,19,-1
 213 395 l 1,11,-1
EndSplineSet
EndChar

StartChar: Q
Encoding: 81 81 52
Width: 708
GlyphClass: 2
Flags: W
LayerCount: 2
Fore
SplineSet
36 367 m 256,0,1
 36 540 36 540 123.5 645.5 c 128,-1,2
 211 751 211 751 354 751 c 0,3,4
 498 751 498 751 585.5 645.5 c 128,-1,5
 673 540 673 540 673 367 c 0,6,7
 673 202 673 202 593 99 c 1,8,-1
 672 16 l 1,9,-1
 597 -51 l 1,10,-1
 519 30 l 1,11,12
 449 -16 449 -16 354 -16 c 0,13,14
 210 -16 210 -16 123 89 c 128,-1,15
 36 194 36 194 36 367 c 256,0,1
323 234 m 1,16,-1
 399 302 l 1,17,-1
 499 198 l 1,18,19
 531 264 531 264 531 367 c 0,20,21
 531 491 531 491 484 563 c 128,-1,22
 437 635 437 635 354 635 c 256,23,24
 271 635 271 635 223.5 562.5 c 128,-1,25
 176 490 176 490 176 367 c 256,26,27
 176 244 176 244 223 172 c 128,-1,28
 270 100 270 100 354 100 c 0,29,30
 398 100 398 100 432 120 c 1,31,-1
 323 234 l 1,16,-1
EndSplineSet
EndChar

StartChar: R
Encoding: 82 82 53
Width: 668
GlyphClass: 2
Flags: W
LayerCount: 2
Fore
SplineSet
213 402 m 1,0,-1
 353 402 l 2,1,2
 412 402 412 402 444 430 c 128,-1,3
 476 458 476 458 476 513 c 0,4,5
 476 561 476 561 443.5 589.5 c 128,-1,6
 411 618 411 618 352 618 c 2,7,-1
 213 618 l 1,8,-1
 213 402 l 1,0,-1
77 0 m 1,9,-1
 77 735 l 1,10,-1
 378 735 l 2,11,12
 493 735 493 735 554.5 675 c 128,-1,13
 616 615 616 615 616 524 c 0,14,15
 616 448 616 448 584 402 c 128,-1,16
 552 356 552 356 509 338 c 1,17,18
 542 314 542 314 557 288 c 128,-1,19
 572 262 572 262 581 207 c 0,20,21
 600 107 600 107 663 0 c 1,22,-1
 511 0 l 1,23,24
 464 79 464 79 438 197 c 0,25,26
 428 243 428 243 410.5 264.5 c 128,-1,27
 393 286 393 286 354 286 c 2,28,-1
 213 286 l 1,29,-1
 213 0 l 1,30,-1
 77 0 l 1,9,-1
EndSplineSet
EndChar

StartChar: S
Encoding: 83 83 54
Width: 607
GlyphClass: 2
Flags: W
LayerCount: 2
Fore
SplineSet
20 163 m 1,0,-1
 140 203 l 1,1,2
 164 158 164 158 213 129 c 128,-1,3
 262 100 262 100 317 100 c 0,4,5
 373 100 373 100 407 127 c 128,-1,6
 441 154 441 154 441 196 c 0,7,8
 441 243 441 243 403 270.5 c 128,-1,9
 365 298 365 298 294 321 c 0,10,11
 187 357 187 357 151 377 c 0,12,13
 47 435 47 435 47 546 c 0,14,15
 47 638 47 638 120 694.5 c 128,-1,16
 193 751 193 751 309 751 c 0,17,18
 406 751 406 751 474.5 705.5 c 128,-1,19
 543 660 543 660 575 589 c 1,20,-1
 461 551 l 1,21,22
 401 635 401 635 308 635 c 0,23,24
 252 635 252 635 220 610 c 128,-1,25
 188 585 188 585 188 546 c 0,26,27
 188 533 188 533 191 522 c 128,-1,28
 194 511 194 511 201.5 502 c 128,-1,29
 209 493 209 493 216.5 485 c 128,-1,30
 224 477 224 477 237.5 470 c 128,-1,31
 251 463 251 463 260.5 458 c 128,-1,32
 270 453 270 453 289 446 c 128,-1,33
 308 439 308 439 318.5 436 c 128,-1,34
 329 433 329 433 351 426 c 128,-1,35
 373 419 373 419 383 415 c 0,36,37
 425 402 425 402 456.5 386.5 c 128,-1,38
 488 371 488 371 519 346 c 128,-1,39
 550 321 550 321 566 284.5 c 128,-1,40
 582 248 582 248 582 203 c 0,41,42
 582 99 582 99 506 41.5 c 128,-1,43
 430 -16 430 -16 313 -16 c 0,44,45
 212 -16 212 -16 134 32 c 128,-1,46
 56 80 56 80 20 163 c 1,0,-1
EndSplineSet
EndChar

StartChar: T
Encoding: 84 84 55
Width: 571
GlyphClass: 2
Flags: W
LayerCount: 2
Fore
SplineSet
10 618 m 1,0,-1
 10 735 l 1,1,-1
 562 735 l 1,2,-1
 562 618 l 1,3,-1
 354 618 l 1,4,-1
 354 0 l 1,5,-1
 218 0 l 1,6,-1
 218 618 l 1,7,-1
 10 618 l 1,0,-1
EndSplineSet
EndChar

StartChar: U
Encoding: 85 85 56
Width: 695
GlyphClass: 2
Flags: W
LayerCount: 2
Fore
SplineSet
73 278 m 2,0,-1
 73 735 l 1,1,-1
 210 735 l 1,2,-1
 210 277 l 2,3,4
 210 100 210 100 348 100 c 0,5,6
 487 100 487 100 487 277 c 2,7,-1
 487 735 l 1,8,-1
 624 735 l 1,9,-1
 624 278 l 2,10,11
 624 135 624 135 555 59.5 c 128,-1,12
 486 -16 486 -16 348 -16 c 0,13,14
 215 -16 215 -16 144 57 c 128,-1,15
 73 130 73 130 73 278 c 2,0,-1
EndSplineSet
EndChar

StartChar: V
Encoding: 86 86 57
Width: 621
GlyphClass: 2
Flags: W
LayerCount: 2
Fore
SplineSet
2 735 m 1,0,-1
 149 735 l 1,1,-1
 261 336 l 1,2,3
 308 147 308 147 309 143 c 1,4,-1
 313 143 l 1,5,6
 360 332 360 332 361 336 c 2,7,-1
 472 735 l 1,8,-1
 620 735 l 1,9,-1
 385 0 l 1,10,-1
 236 0 l 1,11,-1
 2 735 l 1,0,-1
EndSplineSet
EndChar

StartChar: W
Encoding: 87 87 58
Width: 882
GlyphClass: 2
Flags: W
LayerCount: 2
Fore
SplineSet
12 735 m 1,0,-1
 154 735 l 1,1,-1
 221 358 l 2,2,3
 225 338 225 338 232 292 c 128,-1,4
 239 246 239 246 245 209 c 128,-1,5
 251 172 251 172 255 146 c 1,6,-1
 259 146 l 1,7,8
 291 323 291 323 298 358 c 2,9,-1
 373 735 l 1,10,-1
 509 735 l 1,11,-1
 586 358 l 2,12,13
 593 325 593 325 607 243 c 128,-1,14
 621 161 621 161 624 146 c 1,15,-1
 628 146 l 1,16,17
 633 175 633 175 645.5 251.5 c 128,-1,18
 658 328 658 328 663 358 c 2,19,-1
 728 735 l 1,20,-1
 871 735 l 1,21,-1
 707 0 l 1,22,-1
 552 0 l 1,23,-1
 479 372 l 2,24,25
 447 548 447 548 444 571 c 1,26,-1
 439 571 l 1,27,28
 434 531 434 531 420 456 c 128,-1,29
 406 381 406 381 404 372 c 2,30,-1
 331 0 l 1,31,-1
 176 0 l 1,32,-1
 12 735 l 1,0,-1
EndSplineSet
EndChar

StartChar: X
Encoding: 88 88 59
Width: 629
GlyphClass: 2
Flags: W
LayerCount: 2
Fore
SplineSet
4 0 m 1,0,-1
 236 377 l 1,1,-1
 16 735 l 1,2,-1
 174 735 l 1,3,-1
 258 581 l 2,4,5
 268 561 268 561 286.5 527 c 128,-1,6
 305 493 305 493 313 478 c 1,7,-1
 317 478 l 1,8,9
 335 513 335 513 373 581 c 2,10,-1
 457 735 l 1,11,-1
 615 735 l 1,12,-1
 394 377 l 1,13,-1
 628 0 l 1,14,-1
 471 0 l 1,15,-1
 376 168 l 2,16,17
 326 257 326 257 317 273 c 1,18,-1
 313 273 l 1,19,20
 257 171 257 171 255 168 c 2,21,-1
 161 0 l 1,22,-1
 4 0 l 1,0,-1
EndSplineSet
EndChar

StartChar: Y
Encoding: 89 89 60
Width: 638
GlyphClass: 2
Flags: W
LayerCount: 2
Fore
SplineSet
-2 735 m 1,0,-1
 154 735 l 1,1,-1
 262 521 l 2,2,3
 299 446 299 446 318 406 c 1,4,-1
 321 406 l 1,5,6
 360 483 360 483 378 521 c 2,7,-1
 487 735 l 1,8,-1
 642 735 l 1,9,-1
 388 298 l 1,10,-1
 388 0 l 1,11,-1
 252 0 l 1,12,-1
 252 298 l 1,13,-1
 -2 735 l 1,0,-1
EndSplineSet
EndChar

StartChar: Z
Encoding: 90 90 61
Width: 601
GlyphClass: 2
Flags: W
LayerCount: 2
Fore
SplineSet
27 99 m 1,0,-1
 398 618 l 1,1,-1
 58 618 l 1,2,-1
 58 735 l 1,3,-1
 567 735 l 1,4,-1
 567 634 l 1,5,-1
 195 116 l 1,6,-1
 577 116 l 1,7,-1
 577 0 l 1,8,-1
 27 0 l 1,9,-1
 27 99 l 1,0,-1
EndSplineSet
EndChar

StartChar: bracketleft
Encoding: 91 91 62
Width: 442
GlyphClass: 2
Flags: W
LayerCount: 2
Fore
SplineSet
116 -117 m 1,0,-1
 116 824 l 1,1,-1
 362 824 l 1,2,-1
 362 717 l 1,3,-1
 247 717 l 1,4,-1
 247 -9 l 1,5,-1
 362 -9 l 1,6,-1
 362 -117 l 1,7,-1
 116 -117 l 1,0,-1
EndSplineSet
EndChar

StartChar: backslash
Encoding: 92 92 63
Width: 374
GlyphClass: 2
Flags: W
LayerCount: 2
Fore
SplineSet
-16 783 m 1,0,-1
 121 783 l 1,1,-1
 392 -52 l 1,2,-1
 256 -52 l 1,3,-1
 -16 783 l 1,0,-1
EndSplineSet
EndChar

StartChar: bracketright
Encoding: 93 93 64
Width: 442
GlyphClass: 2
Flags: W
LayerCount: 2
Fore
SplineSet
80 -9 m 1,0,-1
 195 -9 l 1,1,-1
 195 717 l 1,2,-1
 80 717 l 1,3,-1
 80 824 l 1,4,-1
 327 824 l 1,5,-1
 327 -117 l 1,6,-1
 80 -117 l 1,7,-1
 80 -9 l 1,0,-1
EndSplineSet
EndChar

StartChar: asciicircum
Encoding: 94 94 65
Width: 540
GlyphClass: 2
Flags: W
LayerCount: 2
Fore
SplineSet
9 455 m 1,0,-1
 209 810 l 1,1,-1
 331 810 l 1,2,-1
 531 455 l 1,3,-1
 395 455 l 1,4,-1
 303 639 l 1,5,-1
 271 706 l 1,6,-1
 269 706 l 1,7,-1
 236 637 l 1,8,-1
 143 455 l 1,9,-1
 9 455 l 1,0,-1
EndSplineSet
EndChar

StartChar: underscore
Encoding: 95 95 66
Width: 498
GlyphClass: 2
Flags: W
LayerCount: 2
Fore
SplineSet
5 -6 m 1,0,-1
 496 -6 l 1,1,-1
 496 -113 l 1,2,-1
 5 -113 l 1,3,-1
 5 -6 l 1,0,-1
EndSplineSet
EndChar

StartChar: grave
Encoding: 96 96 67
Width: 359
GlyphClass: 2
Flags: W
LayerCount: 2
Fore
SplineSet
169 509 m 1,0,-1
 38 814 l 1,1,-1
 182 814 l 1,2,-1
 275 509 l 1,3,-1
 169 509 l 1,0,-1
EndSplineSet
EndChar

StartChar: a
Encoding: 97 97 68
Width: 546
GlyphClass: 2
Flags: W
LayerCount: 2
Fore
SplineSet
163 155 m 0,0,1
 163 129 163 129 183.5 110.5 c 128,-1,2
 204 92 204 92 238 92 c 0,3,4
 290 92 290 92 326.5 127 c 128,-1,5
 363 162 363 162 363 218 c 2,6,-1
 363 260 l 1,7,8
 327 251 327 251 270 243 c 0,9,10
 163 226 163 226 163 155 c 0,0,1
29 144 m 0,11,12
 29 218 29 218 85.5 265.5 c 128,-1,13
 142 313 142 313 253 330 c 0,14,15
 341 344 341 344 363 351 c 1,16,-1
 363 379 l 2,17,18
 363 415 363 415 337.5 433.5 c 128,-1,19
 312 452 312 452 270 452 c 0,20,21
 186 452 186 452 122 383 c 1,22,-1
 44 450 l 1,23,24
 131 554 131 554 269 554 c 0,25,26
 391 554 391 554 442.5 496 c 128,-1,27
 494 438 494 438 494 331 c 2,28,-1
 494 0 l 1,29,-1
 367 0 l 1,30,-1
 367 61 l 1,31,32
 350 29 350 29 310 6.5 c 128,-1,33
 270 -16 270 -16 219 -16 c 0,34,35
 131 -16 131 -16 80 28.5 c 128,-1,36
 29 73 29 73 29 144 c 0,11,12
EndSplineSet
Substitution2: "Single Substitution lookup 12 subtable" ordfeminine
EndChar

StartChar: b
Encoding: 98 98 69
Width: 584
GlyphClass: 2
Flags: W
LayerCount: 2
Fore
SplineSet
66 0 m 1,0,-1
 66 759 l 1,1,-1
 194 759 l 1,2,-1
 194 489 l 1,3,4
 247 554 247 554 325 554 c 0,5,6
 424 554 424 554 489 478.5 c 128,-1,7
 554 403 554 403 554 269 c 0,8,9
 554 194 554 194 533 136.5 c 128,-1,10
 512 79 512 79 478 47 c 128,-1,11
 444 15 444 15 405.5 -0.5 c 128,-1,12
 367 -16 367 -16 327 -16 c 0,13,14
 282 -16 282 -16 245 7 c 128,-1,15
 208 30 208 30 192 61 c 1,16,-1
 192 0 l 1,17,-1
 66 0 l 1,0,-1
194 269 m 0,18,19
 194 188 194 188 224.5 141.5 c 128,-1,20
 255 95 255 95 307 95 c 0,21,22
 356 95 356 95 388 139.5 c 128,-1,23
 420 184 420 184 420 269 c 0,24,25
 420 350 420 350 390 396.5 c 128,-1,26
 360 443 360 443 307 443 c 0,27,28
 253 443 253 443 223.5 395 c 128,-1,29
 194 347 194 347 194 269 c 0,18,19
EndSplineSet
EndChar

StartChar: c
Encoding: 99 99 70
Width: 519
GlyphClass: 2
Flags: W
LayerCount: 2
Fore
SplineSet
31 268 m 0,0,1
 31 400 31 400 101.5 477 c 128,-1,2
 172 554 172 554 282 554 c 0,3,4
 365 554 365 554 421 503.5 c 128,-1,5
 477 453 477 453 490 389 c 1,6,-1
 380 359 l 1,7,8
 370 393 370 393 345 418 c 128,-1,9
 320 443 320 443 284 443 c 0,10,11
 226 443 226 443 195.5 393 c 128,-1,12
 165 343 165 343 165 268 c 0,13,14
 165 185 165 185 199 140 c 128,-1,15
 233 95 233 95 284 95 c 0,16,17
 324 95 324 95 353.5 123 c 128,-1,18
 383 151 383 151 393 186 c 1,19,-1
 503 155 l 1,20,21
 487 88 487 88 425.5 36 c 128,-1,22
 364 -16 364 -16 282 -16 c 0,23,24
 171 -16 171 -16 101 61.5 c 128,-1,25
 31 139 31 139 31 268 c 0,0,1
EndSplineSet
EndChar

StartChar: d
Encoding: 100 100 71
Width: 584
GlyphClass: 2
Flags: W
LayerCount: 2
Fore
SplineSet
31 269 m 0,0,1
 31 403 31 403 95.5 478.5 c 128,-1,2
 160 554 160 554 261 554 c 0,3,4
 304 554 304 554 337.5 534.5 c 128,-1,5
 371 515 371 515 389 488 c 1,6,-1
 389 759 l 1,7,-1
 519 759 l 1,8,-1
 519 0 l 1,9,-1
 393 0 l 1,10,-1
 393 61 l 1,11,12
 375 29 375 29 339 6.5 c 128,-1,13
 303 -16 303 -16 260 -16 c 256,14,15
 217 -16 217 -16 178 0 c 128,-1,16
 139 16 139 16 105 48 c 128,-1,17
 71 80 71 80 51 137 c 128,-1,18
 31 194 31 194 31 269 c 0,0,1
165 269 m 0,19,20
 165 185 165 185 195.5 140 c 128,-1,21
 226 95 226 95 279 95 c 0,22,23
 330 95 330 95 360.5 141.5 c 128,-1,24
 391 188 391 188 391 269 c 0,25,26
 391 347 391 347 361.5 395 c 128,-1,27
 332 443 332 443 279 443 c 0,28,29
 224 443 224 443 194.5 395.5 c 128,-1,30
 165 348 165 348 165 269 c 0,19,20
EndSplineSet
EndChar

StartChar: e
Encoding: 101 101 72
Width: 559
GlyphClass: 2
Flags: W
LayerCount: 2
Fore
SplineSet
31 271 m 256,0,1
 31 402 31 402 102.5 478 c 128,-1,2
 174 554 174 554 283 554 c 0,3,4
 389 554 389 554 459.5 476.5 c 128,-1,5
 530 399 530 399 530 274 c 0,6,7
 530 240 530 240 529 224 c 1,8,-1
 163 224 l 1,9,10
 163 168 163 168 197.5 128 c 128,-1,11
 232 88 232 88 291 88 c 0,12,13
 333 88 333 88 365.5 109.5 c 128,-1,14
 398 131 398 131 415 163 c 1,15,-1
 523 125 l 1,16,17
 498 65 498 65 437 24.5 c 128,-1,18
 376 -16 376 -16 288 -16 c 0,19,20
 174 -16 174 -16 102.5 62 c 128,-1,21
 31 140 31 140 31 271 c 256,0,1
164 314 m 1,22,-1
 398 314 l 1,23,24
 398 371 398 371 367.5 411 c 128,-1,25
 337 451 337 451 283 451 c 0,26,27
 228 451 228 451 196.5 410.5 c 128,-1,28
 165 370 165 370 164 314 c 1,22,-1
EndSplineSet
EndChar

StartChar: f
Encoding: 102 102 73
Width: 351
GlyphClass: 2
Flags: W
LayerCount: 2
Fore
SplineSet
22 427 m 1,0,-1
 22 538 l 1,1,-1
 101 538 l 1,2,-1
 101 590 l 2,3,4
 101 673 101 673 143 716 c 128,-1,5
 185 759 185 759 262 759 c 2,6,-1
 352 759 l 1,7,-1
 352 647 l 1,8,-1
 281 647 l 2,9,10
 256 647 256 647 244.5 631.5 c 128,-1,11
 233 616 233 616 233 581 c 2,12,-1
 233 538 l 1,13,-1
 340 538 l 1,14,-1
 340 427 l 1,15,-1
 233 427 l 1,16,-1
 233 0 l 1,17,-1
 101 0 l 1,18,-1
 101 427 l 1,19,-1
 22 427 l 1,0,-1
EndSplineSet
EndChar

StartChar: g
Encoding: 103 103 74
Width: 568
GlyphClass: 2
Flags: W
LayerCount: 2
Fore
SplineSet
167 279 m 256,0,1
 167 202 167 202 196.5 159.5 c 128,-1,2
 226 117 226 117 275 117 c 0,3,4
 323 117 323 117 351.5 159 c 128,-1,5
 380 201 380 201 380 280 c 256,6,7
 380 359 380 359 351 401 c 128,-1,8
 322 443 322 443 276 443 c 0,9,10
 226 443 226 443 196.5 399.5 c 128,-1,11
 167 356 167 356 167 279 c 256,0,1
34 278 m 0,12,13
 34 404 34 404 97.5 479 c 128,-1,14
 161 554 161 554 258 554 c 0,15,16
 304 554 304 554 335.5 532 c 128,-1,17
 367 510 367 510 381 484 c 1,18,-1
 381 538 l 1,19,-1
 511 538 l 1,20,-1
 511 78 l 2,21,22
 511 -75 511 -75 450.5 -147 c 128,-1,23
 390 -219 390 -219 266 -219 c 0,24,25
 127 -219 127 -219 52 -113 c 1,26,-1
 138 -53 l 1,27,28
 189 -115 189 -115 268 -115 c 0,29,30
 313 -115 313 -115 344.5 -80.5 c 128,-1,31
 376 -46 376 -46 380 9 c 0,32,33
 382 38 382 38 382 66 c 1,34,35
 364 39 364 39 330.5 22 c 128,-1,36
 297 5 297 5 262 5 c 0,37,38
 160 5 160 5 97 79.5 c 128,-1,39
 34 154 34 154 34 278 c 0,12,13
EndSplineSet
EndChar

StartChar: h
Encoding: 104 104 75
Width: 562
GlyphClass: 2
Flags: W
LayerCount: 2
Fore
SplineSet
66 0 m 1,0,-1
 66 759 l 1,1,-1
 194 759 l 1,2,-1
 194 493 l 1,3,-1
 197 493 l 1,4,5
 219 520 219 520 254 537 c 128,-1,6
 289 554 289 554 329 554 c 0,7,8
 405 554 405 554 457 504.5 c 128,-1,9
 509 455 509 455 509 345 c 2,10,-1
 509 0 l 1,11,-1
 380 0 l 1,12,-1
 380 331 l 2,13,14
 380 443 380 443 304 443 c 0,15,16
 257 443 257 443 225.5 402.5 c 128,-1,17
 194 362 194 362 194 305 c 2,18,-1
 194 0 l 1,19,-1
 66 0 l 1,0,-1
EndSplineSet
Substitution2: "'sups' Superscript lookup 5 subtable" uni02B0
Substitution2: "'aalt' Access All Alternates lookup 0 subtable" uni02B0
EndChar

StartChar: i
Encoding: 105 105 76
Width: 267
GlyphClass: 2
Flags: W
LayerCount: 2
Fore
SplineSet
66 606 m 1,0,-1
 66 745 l 1,1,-1
 201 745 l 1,2,-1
 201 606 l 1,3,-1
 66 606 l 1,0,-1
69 0 m 1,4,-1
 69 538 l 1,5,-1
 198 538 l 1,6,-1
 198 0 l 1,7,-1
 69 0 l 1,4,-1
EndSplineSet
EndChar

StartChar: j
Encoding: 106 106 77
Width: 274
GlyphClass: 2
Flags: W
LayerCount: 2
Fore
SplineSet
71 606 m 1,0,-1
 71 745 l 1,1,-1
 209 745 l 1,2,-1
 209 606 l 1,3,-1
 71 606 l 1,0,-1
-12 -95 m 1,4,-1
 5 -95 l 2,5,6
 40 -95 40 -95 57 -71.5 c 128,-1,7
 74 -48 74 -48 74 4 c 2,8,-1
 74 538 l 1,9,-1
 205 538 l 1,10,-1
 205 -1 l 2,11,12
 205 -103 205 -103 159 -155 c 128,-1,13
 113 -207 113 -207 26 -207 c 2,14,-1
 -12 -207 l 1,15,-1
 -12 -95 l 1,4,-1
EndSplineSet
Substitution2: "'sups' Superscript lookup 5 subtable" uni02B2
Substitution2: "'aalt' Access All Alternates lookup 0 subtable" uni02B2
EndChar

StartChar: k
Encoding: 107 107 78
Width: 533
GlyphClass: 2
Flags: W
LayerCount: 2
Fore
SplineSet
66 0 m 1,0,-1
 66 759 l 1,1,-1
 195 759 l 1,2,-1
 195 341 l 1,3,-1
 373 538 l 1,4,-1
 536 538 l 1,5,-1
 335 318 l 1,6,-1
 546 0 l 1,7,-1
 394 0 l 1,8,-1
 251 226 l 1,9,-1
 195 165 l 1,10,-1
 195 0 l 1,11,-1
 66 0 l 1,0,-1
EndSplineSet
EndChar

StartChar: l
Encoding: 108 108 79
Width: 268
GlyphClass: 2
Flags: W
LayerCount: 2
Fore
SplineSet
69 0 m 1,0,-1
 69 759 l 1,1,-1
 200 759 l 1,2,-1
 200 0 l 1,3,-1
 69 0 l 1,0,-1
EndSplineSet
Substitution2: "'sups' Superscript lookup 5 subtable" uni02E1
Substitution2: "'aalt' Access All Alternates lookup 0 subtable" uni02E1
EndChar

StartChar: m
Encoding: 109 109 80
Width: 827
GlyphClass: 2
Flags: W
LayerCount: 2
Fore
SplineSet
60 0 m 1,0,-1
 60 538 l 1,1,-1
 186 538 l 1,2,-1
 186 481 l 1,3,4
 201 506 201 506 236 530 c 128,-1,5
 271 554 271 554 320 554 c 0,6,7
 406 554 406 554 448 467 c 1,8,9
 458 484 458 484 473 501 c 128,-1,10
 488 518 488 518 525 536 c 128,-1,11
 562 554 562 554 607 554 c 0,12,13
 775 554 775 554 775 345 c 2,14,-1
 775 0 l 1,15,-1
 644 0 l 1,16,-1
 644 342 l 2,17,18
 644 393 644 393 629 418 c 128,-1,19
 614 443 614 443 579 443 c 0,20,21
 535 443 535 443 508 406 c 128,-1,22
 481 369 481 369 481 317 c 2,23,-1
 481 0 l 1,24,-1
 352 0 l 1,25,-1
 352 346 l 2,26,27
 352 443 352 443 288 443 c 0,28,29
 240 443 240 443 215.5 408.5 c 128,-1,30
 191 374 191 374 191 318 c 2,31,-1
 191 0 l 1,32,-1
 60 0 l 1,0,-1
EndSplineSet
EndChar

StartChar: n
Encoding: 110 110 81
Width: 559
GlyphClass: 2
Flags: W
LayerCount: 2
Fore
SplineSet
60 0 m 1,0,-1
 60 538 l 1,1,-1
 186 538 l 1,2,-1
 186 478 l 1,3,4
 200 506 200 506 236 530 c 128,-1,5
 272 554 272 554 330 554 c 0,6,7
 506 554 506 554 506 345 c 2,8,-1
 506 0 l 1,9,-1
 376 0 l 1,10,-1
 376 330 l 2,11,12
 376 392 376 392 357 417.5 c 128,-1,13
 338 443 338 443 300 443 c 0,14,15
 253 443 253 443 222 404.5 c 128,-1,16
 191 366 191 366 191 309 c 2,17,-1
 191 0 l 1,18,-1
 60 0 l 1,0,-1
EndSplineSet
Substitution2: "'sups' Superscript lookup 5 subtable" uni207F
Substitution2: "'aalt' Access All Alternates lookup 0 subtable" uni207F
EndChar

StartChar: o
Encoding: 111 111 82
Width: 561
GlyphClass: 2
Flags: W
LayerCount: 2
Fore
SplineSet
165 268 m 0,0,1
 165 177 165 177 200.5 136 c 128,-1,2
 236 95 236 95 281 95 c 256,3,4
 326 95 326 95 362 136.5 c 128,-1,5
 398 178 398 178 398 268 c 0,6,7
 398 360 398 360 362.5 401.5 c 128,-1,8
 327 443 327 443 281 443 c 0,9,10
 236 443 236 443 200.5 402 c 128,-1,11
 165 361 165 361 165 268 c 0,0,1
31 268 m 0,12,13
 31 388 31 388 94 471 c 128,-1,14
 157 554 157 554 281 554 c 0,15,16
 365 554 365 554 423.5 512 c 128,-1,17
 482 470 482 470 506.5 407.5 c 128,-1,18
 531 345 531 345 531 268 c 0,19,20
 531 232 531 232 525 196 c 128,-1,21
 519 160 519 160 501 120.5 c 128,-1,22
 483 81 483 81 456 51.5 c 128,-1,23
 429 22 429 22 384 3 c 128,-1,24
 339 -16 339 -16 281 -16 c 0,25,26
 225 -16 225 -16 180 2 c 128,-1,27
 135 20 135 20 107.5 49 c 128,-1,28
 80 78 80 78 62.5 116.5 c 128,-1,29
 45 155 45 155 38 192 c 128,-1,30
 31 229 31 229 31 268 c 0,12,13
EndSplineSet
Substitution2: "Single Substitution lookup 12 subtable" ordmasculine
EndChar

StartChar: p
Encoding: 112 112 83
Width: 584
GlyphClass: 2
Flags: W
LayerCount: 2
Fore
SplineSet
194 269 m 0,0,1
 194 189 194 189 223.5 142 c 128,-1,2
 253 95 253 95 307 95 c 0,3,4
 358 95 358 95 389 140 c 128,-1,5
 420 185 420 185 420 269 c 0,6,7
 420 350 420 350 390 396.5 c 128,-1,8
 360 443 360 443 307 443 c 0,9,10
 253 443 253 443 223.5 395 c 128,-1,11
 194 347 194 347 194 269 c 0,0,1
66 -215 m 1,12,-1
 66 538 l 1,13,-1
 191 538 l 1,14,-1
 191 477 l 1,15,16
 241 554 241 554 325 554 c 0,17,18
 424 554 424 554 489 477.5 c 128,-1,19
 554 401 554 401 554 269 c 0,20,21
 554 194 554 194 533 137 c 128,-1,22
 512 80 512 80 477.5 48 c 128,-1,23
 443 16 443 16 404 0 c 128,-1,24
 365 -16 365 -16 325 -16 c 0,25,26
 276 -16 276 -16 243.5 5 c 128,-1,27
 211 26 211 26 195 54 c 1,28,-1
 195 -215 l 1,29,-1
 66 -215 l 1,12,-1
EndSplineSet
EndChar

StartChar: q
Encoding: 113 113 84
Width: 583
GlyphClass: 2
Flags: W
LayerCount: 2
Fore
SplineSet
165 269 m 0,0,1
 165 186 165 186 195.5 140.5 c 128,-1,2
 226 95 226 95 278 95 c 256,3,4
 330 95 330 95 360.5 141.5 c 128,-1,5
 391 188 391 188 391 269 c 0,6,7
 391 347 391 347 361.5 395 c 128,-1,8
 332 443 332 443 278 443 c 256,9,10
 224 443 224 443 194.5 395.5 c 128,-1,11
 165 348 165 348 165 269 c 0,0,1
31 269 m 0,12,13
 31 401 31 401 96 477.5 c 128,-1,14
 161 554 161 554 259 554 c 0,15,16
 343 554 343 554 394 477 c 1,17,-1
 394 538 l 1,18,-1
 519 538 l 1,19,-1
 519 -215 l 1,20,-1
 389 -215 l 1,21,-1
 389 55 l 1,22,23
 371 26 371 26 338 5 c 128,-1,24
 305 -16 305 -16 259 -16 c 0,25,26
 218 -16 218 -16 180 0 c 128,-1,27
 142 16 142 16 107.5 47.5 c 128,-1,28
 73 79 73 79 52 136.5 c 128,-1,29
 31 194 31 194 31 269 c 0,12,13
EndSplineSet
EndChar

StartChar: r
Encoding: 114 114 85
Width: 376
GlyphClass: 2
Flags: W
LayerCount: 2
Fore
SplineSet
60 0 m 1,0,-1
 60 538 l 1,1,-1
 185 538 l 1,2,-1
 185 487 l 1,3,4
 202 514 202 514 234.5 534 c 128,-1,5
 267 554 267 554 310 554 c 0,6,7
 352 554 352 554 378 544 c 1,8,-1
 378 425 l 1,9,10
 346 435 346 435 310 435 c 0,11,12
 252 435 252 435 221.5 389 c 128,-1,13
 191 343 191 343 191 267 c 2,14,-1
 191 0 l 1,15,-1
 60 0 l 1,0,-1
EndSplineSet
Substitution2: "'sups' Superscript lookup 5 subtable" uni02B3
Substitution2: "'aalt' Access All Alternates lookup 0 subtable" uni02B3
EndChar

StartChar: s
Encoding: 115 115 86
Width: 498
GlyphClass: 2
Flags: W
LayerCount: 2
Fore
SplineSet
21 114 m 1,0,-1
 113 169 l 1,1,2
 168 89 168 89 255 89 c 0,3,4
 294 89 294 89 316.5 105 c 128,-1,5
 339 121 339 121 339 146 c 0,6,7
 339 154 339 154 336.5 161 c 128,-1,8
 334 168 334 168 328.5 174.5 c 128,-1,9
 323 181 323 181 318.5 185.5 c 128,-1,10
 314 190 314 190 303.5 195.5 c 128,-1,11
 293 201 293 201 286.5 204 c 128,-1,12
 280 207 280 207 266.5 212 c 128,-1,13
 253 217 253 217 245.5 219.5 c 128,-1,14
 238 222 238 222 221.5 227 c 128,-1,15
 205 232 205 232 198 235 c 0,16,17
 129 257 129 257 87 293 c 128,-1,18
 45 329 45 329 45 396 c 0,19,20
 45 468 45 468 107 511 c 128,-1,21
 169 554 169 554 256 554 c 0,22,23
 323 554 323 554 382.5 519.5 c 128,-1,24
 442 485 442 485 471 429 c 1,25,-1
 385 377 l 1,26,27
 329 449 329 449 257 449 c 0,28,29
 219 449 219 449 198.5 434 c 128,-1,30
 178 419 178 419 178 394 c 0,31,32
 178 386 178 386 180.5 379 c 128,-1,33
 183 372 183 372 188.5 365.5 c 128,-1,34
 194 359 194 359 199 354 c 128,-1,35
 204 349 204 349 213.5 343.5 c 128,-1,36
 223 338 223 338 229.5 334.5 c 128,-1,37
 236 331 236 331 249 326.5 c 128,-1,38
 262 322 262 322 269.5 320 c 128,-1,39
 277 318 277 318 291.5 313 c 128,-1,40
 306 308 306 308 312 306 c 0,41,42
 472 253 472 253 472 145 c 0,43,44
 472 78 472 78 416.5 31 c 128,-1,45
 361 -16 361 -16 258 -16 c 0,46,47
 179 -16 179 -16 116.5 19.5 c 128,-1,48
 54 55 54 55 21 114 c 1,0,-1
EndSplineSet
Substitution2: "'hist' Historical Forms lookup 11 subtable" longs
Substitution2: "'sups' Superscript lookup 5 subtable" uni02E2
AlternateSubs2: "'aalt' Access All Alternates lookup 1 subtable" uni02E2 longs
EndChar

StartChar: t
Encoding: 116 116 87
Width: 371
GlyphClass: 2
Flags: W
LayerCount: 2
Fore
SplineSet
16 427 m 1,0,-1
 16 538 l 1,1,-1
 96 538 l 1,2,-1
 96 694 l 1,3,-1
 226 694 l 1,4,-1
 226 538 l 1,5,-1
 342 538 l 1,6,-1
 342 427 l 1,7,-1
 226 427 l 1,8,-1
 226 177 l 2,9,10
 226 111 226 111 283 111 c 2,11,-1
 343 111 l 1,12,-1
 343 0 l 1,13,-1
 267 0 l 2,14,15
 188 0 188 0 142 40 c 128,-1,16
 96 80 96 80 96 169 c 2,17,-1
 96 427 l 1,18,-1
 16 427 l 1,0,-1
EndSplineSet
EndChar

StartChar: u
Encoding: 117 117 88
Width: 557
GlyphClass: 2
Flags: W
LayerCount: 2
Fore
SplineSet
53 197 m 2,0,-1
 53 538 l 1,1,-1
 184 538 l 1,2,-1
 184 212 l 2,3,4
 184 95 184 95 264 95 c 0,5,6
 312 95 312 95 339.5 137.5 c 128,-1,7
 367 180 367 180 367 238 c 2,8,-1
 367 538 l 1,9,-1
 497 538 l 1,10,-1
 497 0 l 1,11,-1
 372 0 l 1,12,-1
 372 56 l 1,13,-1
 370 56 l 1,14,15
 355 27 355 27 320 5.5 c 128,-1,16
 285 -16 285 -16 236 -16 c 0,17,18
 205 -16 205 -16 176 -7 c 128,-1,19
 147 2 147 2 118 23.5 c 128,-1,20
 89 45 89 45 71 89.5 c 128,-1,21
 53 134 53 134 53 197 c 2,0,-1
EndSplineSet
EndChar

StartChar: v
Encoding: 118 118 89
Width: 529
GlyphClass: 2
Flags: W
LayerCount: 2
Fore
SplineSet
8 538 m 1,0,-1
 150 538 l 1,1,-1
 221 281 l 2,2,3
 234 231 234 231 263 110 c 1,4,-1
 266 110 l 1,5,6
 289 204 289 204 310 281 c 2,7,-1
 379 538 l 1,8,-1
 521 538 l 1,9,-1
 338 0 l 1,10,-1
 191 0 l 1,11,-1
 8 538 l 1,0,-1
EndSplineSet
EndChar

StartChar: w
Encoding: 119 119 90
Width: 747
GlyphClass: 2
Flags: W
LayerCount: 2
Fore
SplineSet
8 538 m 1,0,-1
 148 538 l 1,1,-1
 196 287 l 2,2,3
 196 285 196 285 206 225.5 c 128,-1,4
 216 166 216 166 224 128 c 1,5,-1
 227 128 l 1,6,7
 232 152 232 152 243 209 c 128,-1,8
 254 266 254 266 257 287 c 2,9,-1
 308 538 l 1,10,-1
 441 538 l 1,11,-1
 491 286 l 2,12,13
 495 265 495 265 505.5 210 c 128,-1,14
 516 155 516 155 520 128 c 1,15,-1
 524 128 l 1,16,17
 528 150 528 150 552 287 c 2,18,-1
 600 538 l 1,19,-1
 740 538 l 1,20,-1
 595 0 l 1,21,-1
 453 0 l 1,22,-1
 404 243 l 2,23,24
 400 268 400 268 390 320 c 128,-1,25
 380 372 380 372 376 396 c 1,26,-1
 373 396 l 1,27,28
 368 367 368 367 357.5 311 c 128,-1,29
 347 255 347 255 345 243 c 2,30,-1
 296 0 l 1,31,-1
 153 0 l 1,32,-1
 8 538 l 1,0,-1
EndSplineSet
Substitution2: "'sups' Superscript lookup 5 subtable" uni02B7
Substitution2: "'aalt' Access All Alternates lookup 0 subtable" uni02B7
EndChar

StartChar: x
Encoding: 120 120 91
Width: 547
GlyphClass: 2
Flags: W
LayerCount: 2
Fore
SplineSet
5 0 m 1,0,-1
 197 275 l 1,1,-1
 15 538 l 1,2,-1
 173 538 l 1,3,-1
 236 428 l 2,4,5
 241 418 241 418 253.5 395.5 c 128,-1,6
 266 373 266 373 271 363 c 1,7,-1
 274 363 l 1,8,9
 277 368 277 368 290 392 c 128,-1,10
 303 416 303 416 310 428 c 2,11,-1
 372 538 l 1,12,-1
 530 538 l 1,13,-1
 349 275 l 1,14,-1
 540 0 l 1,15,-1
 385 0 l 1,16,-1
 314 120 l 2,17,18
 284 172 284 172 274 190 c 1,19,-1
 271 190 l 1,20,21
 255 160 255 160 231 120 c 2,22,-1
 160 0 l 1,23,-1
 5 0 l 1,0,-1
EndSplineSet
Substitution2: "'sups' Superscript lookup 5 subtable" uni02E3
Substitution2: "'aalt' Access All Alternates lookup 0 subtable" uni02E3
EndChar

StartChar: y
Encoding: 121 121 92
Width: 530
GlyphClass: 2
Flags: W
LayerCount: 2
Fore
SplineSet
6 538 m 1,0,-1
 148 538 l 1,1,-1
 235 273 l 2,2,3
 239 258 239 258 268 152 c 1,4,-1
 271 152 l 1,5,6
 289 225 289 225 303 273 c 2,7,-1
 382 538 l 1,8,-1
 523 538 l 1,9,-1
 302 -65 l 2,10,11
 271 -148 271 -148 222 -181.5 c 128,-1,12
 173 -215 173 -215 99 -215 c 2,13,-1
 61 -215 l 1,14,-1
 61 -106 l 1,15,-1
 78 -106 l 2,16,17
 121 -106 121 -106 147 -89.5 c 128,-1,18
 173 -73 173 -73 188 -31 c 2,19,-1
 205 19 l 1,20,-1
 6 538 l 1,0,-1
EndSplineSet
Substitution2: "'sups' Superscript lookup 5 subtable" uni02B8
Substitution2: "'aalt' Access All Alternates lookup 0 subtable" uni02B8
EndChar

StartChar: z
Encoding: 122 122 93
Width: 492
GlyphClass: 2
Flags: W
LayerCount: 2
Fore
SplineSet
22 0 m 1,0,-1
 22 86 l 1,1,-1
 289 427 l 1,2,-1
 43 427 l 1,3,-1
 43 538 l 1,4,-1
 460 538 l 1,5,-1
 460 456 l 1,6,-1
 191 111 l 1,7,-1
 471 111 l 1,8,-1
 471 0 l 1,9,-1
 22 0 l 1,0,-1
EndSplineSet
EndChar

StartChar: braceleft
Encoding: 123 123 94
Width: 442
GlyphClass: 2
Flags: W
LayerCount: 2
Fore
SplineSet
55 303 m 1,0,-1
 55 404 l 1,1,-1
 88 404 l 2,2,3
 133 404 133 404 133 502 c 2,4,-1
 133 679 l 2,5,6
 133 749 133 749 173.5 786.5 c 128,-1,7
 214 824 214 824 280 824 c 2,8,-1
 365 824 l 1,9,-1
 365 717 l 1,10,-1
 304 717 l 2,11,12
 286 717 286 717 275.5 702.5 c 128,-1,13
 265 688 265 688 265 665 c 2,14,-1
 265 488 l 2,15,16
 265 402 265 402 194 353 c 1,17,18
 265 309 265 309 265 222 c 2,19,-1
 265 44 l 2,20,21
 265 -9 265 -9 306 -9 c 2,22,-1
 365 -9 l 1,23,-1
 365 -117 l 1,24,-1
 279 -117 l 2,25,26
 215 -117 215 -117 174 -81.5 c 128,-1,27
 133 -46 133 -46 133 26 c 2,28,-1
 133 206 l 2,29,30
 133 246 133 246 122 274.5 c 128,-1,31
 111 303 111 303 88 303 c 2,32,-1
 55 303 l 1,0,-1
EndSplineSet
EndChar

StartChar: bar
Encoding: 124 124 95
Width: 301
GlyphClass: 2
Flags: W
LayerCount: 2
Fore
SplineSet
86 -152 m 1,0,-1
 86 858 l 1,1,-1
 216 858 l 1,2,-1
 216 -152 l 1,3,-1
 86 -152 l 1,0,-1
EndSplineSet
EndChar

StartChar: braceright
Encoding: 125 125 96
Width: 442
GlyphClass: 2
Flags: W
LayerCount: 2
Fore
SplineSet
78 -9 m 1,0,-1
 138 -9 l 2,1,2
 178 -9 178 -9 178 43 c 2,3,-1
 178 222 l 2,4,5
 178 305 178 305 247 354 c 1,6,7
 178 401 178 401 178 488 c 2,8,-1
 178 665 l 2,9,10
 178 688 178 688 167.5 702.5 c 128,-1,11
 157 717 157 717 139 717 c 2,12,-1
 78 717 l 1,13,-1
 78 824 l 1,14,-1
 163 824 l 2,15,16
 229 824 229 824 269.5 786.5 c 128,-1,17
 310 749 310 749 310 679 c 2,18,-1
 310 502 l 2,19,20
 310 404 310 404 355 404 c 2,21,-1
 387 404 l 1,22,-1
 387 303 l 1,23,-1
 355 303 l 2,24,25
 339 303 339 303 328 287 c 128,-1,26
 317 271 317 271 313.5 250.5 c 128,-1,27
 310 230 310 230 310 206 c 2,28,-1
 310 26 l 2,29,30
 310 -46 310 -46 268 -81.5 c 128,-1,31
 226 -117 226 -117 163 -117 c 2,32,-1
 78 -117 l 1,33,-1
 78 -9 l 1,0,-1
EndSplineSet
EndChar

StartChar: asciitilde
Encoding: 126 126 97
Width: 799
GlyphClass: 2
Flags: W
LayerCount: 2
Fore
SplineSet
61 297 m 1,0,1
 128 479 128 479 280 479 c 0,2,3
 321 479 321 479 358 459 c 128,-1,4
 395 439 395 439 417.5 415.5 c 128,-1,5
 440 392 440 392 466.5 372 c 128,-1,6
 493 352 493 352 516 352 c 256,7,8
 539 352 539 352 557 361 c 128,-1,9
 575 370 575 370 588 389.5 c 128,-1,10
 601 409 601 409 607.5 422.5 c 128,-1,11
 614 436 614 436 623 459 c 1,12,-1
 738 410 l 1,13,14
 674 228 674 228 520 228 c 0,15,16
 480 228 480 228 442.5 248 c 128,-1,17
 405 268 405 268 382.5 292.5 c 128,-1,18
 360 317 360 317 332 337 c 128,-1,19
 304 357 304 357 281 357 c 0,20,21
 216 357 216 357 176 249 c 1,22,-1
 61 297 l 1,0,1
EndSplineSet
EndChar

StartChar: exclamdown
Encoding: 161 161 99
Width: 310
GlyphClass: 2
Flags: W
LayerCount: 2
Fore
SplineSet
83 -200 m 1,0,-1
 92 330 l 1,1,-1
 219 330 l 1,2,-1
 227 -200 l 1,3,-1
 83 -200 l 1,0,-1
71 393 m 1,4,-1
 71 542 l 1,5,-1
 239 542 l 1,6,-1
 239 393 l 1,7,-1
 71 393 l 1,4,-1
EndSplineSet
EndChar

StartChar: cent
Encoding: 162 162 100
Width: 519
GlyphClass: 2
Flags: W
LayerCount: 2
Fore
SplineSet
31 269 m 0,0,1
 31 373 31 373 79.5 449 c 128,-1,2
 128 525 128 525 216 546 c 1,3,-1
 216 624 l 1,4,-1
 335 624 l 1,5,-1
 335 548 l 1,6,7
 396 533 396 533 436.5 487.5 c 128,-1,8
 477 442 477 442 490 389 c 1,9,-1
 380 359 l 1,10,11
 368 394 368 394 344.5 418.5 c 128,-1,12
 321 443 321 443 286 443 c 0,13,14
 227 443 227 443 196 393.5 c 128,-1,15
 165 344 165 344 165 269 c 0,16,17
 165 190 165 190 197 142.5 c 128,-1,18
 229 95 229 95 284 95 c 0,19,20
 324 95 324 95 352 121.5 c 128,-1,21
 380 148 380 148 392 186 c 1,22,-1
 502 155 l 1,23,24
 489 101 489 101 446 54.5 c 128,-1,25
 403 8 403 8 335 -10 c 1,26,-1
 335 -92 l 1,27,-1
 216 -92 l 1,28,-1
 216 -8 l 1,29,30
 135 10 135 10 83 84 c 128,-1,31
 31 158 31 158 31 269 c 0,0,1
EndSplineSet
EndChar

StartChar: sterling
Encoding: 163 163 101
Width: 608
GlyphClass: 2
Flags: W
LayerCount: 2
Fore
SplineSet
38 303 m 1,0,-1
 38 419 l 1,1,-1
 143 419 l 1,2,-1
 143 558 l 2,3,4
 143 652 143 652 206 701.5 c 128,-1,5
 269 751 269 751 376 751 c 0,6,7
 446 751 446 751 498.5 714 c 128,-1,8
 551 677 551 677 576 631 c 1,9,-1
 473 580 l 1,10,11
 436 632 436 632 377 632 c 0,12,13
 334 632 334 632 306 610.5 c 128,-1,14
 278 589 278 589 278 545 c 2,15,-1
 278 419 l 1,16,-1
 472 419 l 1,17,-1
 472 303 l 1,18,-1
 278 303 l 1,19,-1
 278 222 l 2,20,21
 278 158 278 158 257 130 c 1,22,23
 288 134 288 134 301 134 c 0,24,25
 331 134 331 134 377 117 c 128,-1,26
 423 100 423 100 457 100 c 0,27,28
 512 100 512 100 566 128 c 1,29,-1
 601 16 l 1,30,31
 524 -16 524 -16 457 -16 c 0,32,33
 424 -16 424 -16 356.5 1 c 128,-1,34
 289 18 289 18 257 18 c 0,35,36
 222 18 222 18 174 11 c 128,-1,37
 126 4 126 4 95 -4 c 2,38,-1
 65 -11 l 1,39,-1
 34 85 l 1,40,41
 143 108 143 108 143 215 c 2,42,-1
 143 303 l 1,43,-1
 38 303 l 1,0,-1
EndSplineSet
EndChar

StartChar: currency
Encoding: 164 164 102
Width: 664
GlyphClass: 2
Flags: W
LayerCount: 2
Fore
SplineSet
20 151 m 1,0,-1
 129 251 l 1,1,2
 98 294 98 294 98 363 c 0,3,4
 98 433 98 433 129 476 c 1,5,-1
 20 575 l 1,6,-1
 110 661 l 1,7,-1
 213 561 l 1,8,9
 275 595 275 595 332 595 c 0,10,11
 391 595 391 595 453 561 c 1,12,-1
 554 661 l 1,13,-1
 645 575 l 1,14,-1
 537 476 l 1,15,16
 568 430 568 430 568 363 c 0,17,18
 568 331 568 331 558 299.5 c 128,-1,19
 548 268 548 268 536 251 c 1,20,-1
 645 151 l 1,21,-1
 554 65 l 1,22,-1
 452 164 l 1,23,24
 390 130 390 130 332 130 c 0,25,26
 269 130 269 130 213 164 c 1,27,-1
 110 66 l 1,28,-1
 20 151 l 1,0,-1
216 363 m 0,29,30
 216 316 216 316 248 281.5 c 128,-1,31
 280 247 280 247 332 247 c 0,32,33
 383 247 383 247 415.5 281 c 128,-1,34
 448 315 448 315 448 363 c 0,35,36
 448 412 448 412 415.5 445.5 c 128,-1,37
 383 479 383 479 332 479 c 0,38,39
 280 479 280 479 248 444 c 128,-1,40
 216 409 216 409 216 363 c 0,29,30
EndSplineSet
EndChar

StartChar: yen
Encoding: 165 165 103
Width: 638
GlyphClass: 2
Flags: W
LayerCount: 2
Fore
SplineSet
-2 735 m 1,0,-1
 154 735 l 1,1,-1
 253 567 l 2,2,3
 304 478 304 478 318 452 c 1,4,-1
 321 452 l 1,5,-1
 387 567 l 1,6,-1
 487 735 l 1,7,-1
 642 735 l 1,8,-1
 440 425 l 1,9,-1
 578 425 l 1,10,-1
 578 330 l 1,11,-1
 388 330 l 1,12,-1
 388 237 l 1,13,-1
 578 237 l 1,14,-1
 578 142 l 1,15,-1
 388 142 l 1,16,-1
 388 0 l 1,17,-1
 252 0 l 1,18,-1
 252 142 l 1,19,-1
 62 142 l 1,20,-1
 62 237 l 1,21,-1
 252 237 l 1,22,-1
 252 330 l 1,23,-1
 62 330 l 1,24,-1
 62 425 l 1,25,-1
 200 425 l 1,26,-1
 -2 735 l 1,0,-1
EndSplineSet
EndChar

StartChar: brokenbar
Encoding: 166 166 104
Width: 301
GlyphClass: 2
Flags: W
LayerCount: 2
Fore
SplineSet
86 452 m 1,0,-1
 86 858 l 1,1,-1
 216 858 l 1,2,-1
 216 452 l 1,3,-1
 86 452 l 1,0,-1
86 -152 m 1,4,-1
 86 253 l 1,5,-1
 216 253 l 1,6,-1
 216 -152 l 1,7,-1
 86 -152 l 1,4,-1
EndSplineSet
EndChar

StartChar: section
Encoding: 167 167 105
Width: 547
GlyphClass: 2
Flags: W
LayerCount: 2
Fore
SplineSet
32 56 m 1,0,-1
 120 122 l 1,1,2
 171 61 171 61 253 61 c 0,3,4
 336 61 336 61 336 103 c 0,5,6
 336 130 336 130 292 150 c 2,7,-1
 188 198 l 2,8,9
 52 259 52 259 52 361 c 0,10,11
 52 404 52 404 76 438.5 c 128,-1,12
 100 473 100 473 129 494 c 1,13,14
 77 538 77 538 77 597 c 0,15,16
 77 666 77 666 132.5 708.5 c 128,-1,17
 188 751 188 751 300 751 c 0,18,19
 437 751 437 751 516 649 c 1,20,-1
 431 581 l 1,21,22
 376 638 376 638 297 638 c 0,23,24
 214 638 214 638 214 596 c 0,25,26
 214 588 214 588 216.5 581.5 c 128,-1,27
 219 575 219 575 226 568.5 c 128,-1,28
 233 562 233 562 240 557.5 c 128,-1,29
 247 553 247 553 259.5 547 c 128,-1,30
 272 541 272 541 281.5 536.5 c 128,-1,31
 291 532 291 532 308 525.5 c 128,-1,32
 325 519 325 519 337 513 c 0,33,34
 418 477 418 477 446 455 c 0,35,36
 513 404 513 404 513 327 c 0,37,38
 513 249 513 249 441 194 c 1,39,40
 473 154 473 154 473 104 c 0,41,42
 473 31 473 31 418 -11 c 128,-1,43
 363 -53 363 -53 253 -53 c 0,44,45
 182 -53 182 -53 120.5 -21 c 128,-1,46
 59 11 59 11 32 56 c 1,0,-1
190 364 m 0,47,48
 190 337 190 337 206.5 320.5 c 128,-1,49
 223 304 223 304 258 288 c 2,50,-1
 337 252 l 1,51,52
 375 290 375 290 375 327 c 0,53,54
 375 367 375 367 305 400 c 2,55,-1
 231 436 l 1,56,57
 190 404 190 404 190 364 c 0,47,48
EndSplineSet
EndChar

StartChar: dieresis
Encoding: 168 168 106
Width: 527
GlyphClass: 2
Flags: W
LayerCount: 2
Fore
SplineSet
94 595 m 1,0,-1
 94 735 l 1,1,-1
 231 735 l 1,2,-1
 231 595 l 1,3,-1
 94 595 l 1,0,-1
297 595 m 1,4,-1
 297 735 l 1,5,-1
 434 735 l 1,6,-1
 434 595 l 1,7,-1
 297 595 l 1,4,-1
EndSplineSet
EndChar

StartChar: copyright
Encoding: 169 169 107
Width: 846
GlyphClass: 2
Flags: W
LayerCount: 2
Fore
SplineSet
230 373 m 0,0,1
 230 486 230 486 287 545 c 128,-1,2
 344 604 344 604 435 604 c 0,3,4
 506 604 506 604 548 564.5 c 128,-1,5
 590 525 590 525 603 469 c 1,6,-1
 513 443 l 1,7,8
 488 511 488 511 436 511 c 0,9,10
 340 511 340 511 340 373 c 256,11,12
 340 235 340 235 436 235 c 0,13,14
 469 235 469 235 491 256.5 c 128,-1,15
 513 278 513 278 522 308 c 1,16,-1
 614 282 l 1,17,18
 599 222 599 222 553 182 c 128,-1,19
 507 142 507 142 435 142 c 0,20,21
 344 142 344 142 287 201.5 c 128,-1,22
 230 261 230 261 230 373 c 0,0,1
33 372 m 0,23,24
 33 554 33 554 144.5 662.5 c 128,-1,25
 256 771 256 771 424 771 c 0,26,27
 594 771 594 771 704 661 c 128,-1,28
 814 551 814 551 814 372 c 0,29,30
 814 194 814 194 704.5 83.5 c 128,-1,31
 595 -27 595 -27 424 -27 c 0,32,33
 314 -27 314 -27 226 20 c 128,-1,34
 138 67 138 67 85.5 158.5 c 128,-1,35
 33 250 33 250 33 372 c 0,23,24
130 372 m 256,36,37
 130 226 130 226 211 141.5 c 128,-1,38
 292 57 292 57 424 57 c 0,39,40
 550 57 550 57 634.5 138.5 c 128,-1,41
 719 220 719 220 719 372 c 0,42,43
 719 519 719 519 636.5 603 c 128,-1,44
 554 687 554 687 424 687 c 0,45,46
 291 687 291 687 210.5 602.5 c 128,-1,47
 130 518 130 518 130 372 c 256,36,37
EndSplineSet
EndChar

StartChar: ordfeminine
Encoding: 170 170 108
Width: 384
GlyphClass: 2
Flags: W
LayerCount: 2
Fore
SplineSet
25 272 m 1,0,-1
 25 353 l 1,1,-1
 361 353 l 1,2,-1
 361 272 l 1,3,-1
 25 272 l 1,0,-1
114 533 m 0,4,5
 114 513 114 513 128.5 500.5 c 128,-1,6
 143 488 143 488 168 488 c 0,7,8
 205 488 205 488 231 512.5 c 128,-1,9
 257 537 257 537 257 578 c 2,10,-1
 257 610 l 1,11,12
 246 607 246 607 225.5 603.5 c 128,-1,13
 205 600 205 600 194.5 597.5 c 128,-1,14
 184 595 184 595 168 591 c 128,-1,15
 152 587 152 587 145 582.5 c 128,-1,16
 138 578 138 578 129.5 571 c 128,-1,17
 121 564 121 564 117.5 554.5 c 128,-1,18
 114 545 114 545 114 533 c 0,4,5
22 525 m 0,19,20
 22 562 22 562 40 588 c 128,-1,21
 58 614 58 614 89 628 c 128,-1,22
 120 642 120 642 148.5 649 c 128,-1,23
 177 656 177 656 211.5 661.5 c 128,-1,24
 246 667 246 667 257 671 c 1,25,-1
 257 692 l 2,26,27
 257 719 257 719 239 732 c 128,-1,28
 221 745 221 745 192 745 c 0,29,30
 131 745 131 745 86 697 c 1,31,-1
 32 742 l 1,32,33
 58 774 58 774 101 794 c 128,-1,34
 144 814 144 814 191 814 c 0,35,36
 277 814 277 814 313 773 c 128,-1,37
 349 732 349 732 349 657 c 2,38,-1
 349 425 l 1,39,-1
 261 425 l 1,40,-1
 261 471 l 1,41,42
 226 413 226 413 155 413 c 0,43,44
 93 413 93 413 57.5 444 c 128,-1,45
 22 475 22 475 22 525 c 0,19,20
EndSplineSet
EndChar

StartChar: guillemotleft
Encoding: 171 171 109
Width: 537
GlyphClass: 2
Flags: W
LayerCount: 2
Fore
SplineSet
37 269 m 1,0,-1
 204 522 l 1,1,-1
 299 459 l 1,2,-1
 176 269 l 1,3,-1
 297 83 l 1,4,-1
 204 18 l 1,5,-1
 37 269 l 1,0,-1
243 269 m 1,6,-1
 410 509 l 1,7,-1
 501 439 l 1,8,-1
 382 269 l 1,9,-1
 501 99 l 1,10,-1
 410 30 l 1,11,-1
 243 269 l 1,6,-1
EndSplineSet
EndChar

StartChar: logicalnot
Encoding: 172 172 110
Width: 559
GlyphClass: 2
Flags: W
LayerCount: 2
Fore
SplineSet
46 289 m 1,0,-1
 46 405 l 1,1,-1
 515 405 l 1,2,-1
 515 117 l 1,3,-1
 391 117 l 1,4,-1
 391 289 l 1,5,-1
 46 289 l 1,0,-1
EndSplineSet
EndChar

StartChar: uni00AD
Encoding: 173 173 111
Width: 566
GlyphClass: 2
Flags: W
LayerCount: 2
Fore
SplineSet
56 309 m 1,0,-1
 56 425 l 1,1,-1
 510 425 l 1,2,-1
 510 309 l 1,3,-1
 56 309 l 1,0,-1
EndSplineSet
EndChar

StartChar: registered
Encoding: 174 174 112
Width: 846
GlyphClass: 2
Flags: W
LayerCount: 2
Fore
SplineSet
33 373 m 0,0,1
 33 556 33 556 144.5 663.5 c 128,-1,2
 256 771 256 771 424 771 c 0,3,4
 595 771 595 771 704.5 661 c 128,-1,5
 814 551 814 551 814 373 c 0,6,7
 814 194 814 194 704.5 83.5 c 128,-1,8
 595 -27 595 -27 424 -27 c 0,9,10
 256 -27 256 -27 144.5 82 c 128,-1,11
 33 191 33 191 33 373 c 0,0,1
719 373 m 0,12,13
 719 523 719 523 636 602.5 c 128,-1,14
 553 682 553 682 424 682 c 0,15,16
 289 682 289 682 209.5 600.5 c 128,-1,17
 130 519 130 519 130 373 c 0,18,19
 130 226 130 226 209.5 144 c 128,-1,20
 289 62 289 62 424 62 c 0,21,22
 554 62 554 62 637 143 c 0,23,24
 644 150 644 150 649 156 c 0,25,26
 719 236 719 236 719 373 c 0,12,13
264 143 m 1,27,-1
 264 594 l 1,28,-1
 454 594 l 2,29,30
 524 594 524 594 562 555 c 128,-1,31
 600 516 600 516 600 460 c 0,32,33
 600 384 600 384 545 352 c 1,34,35
 561 336 561 336 568 320.5 c 128,-1,36
 575 305 575 305 582 275 c 0,37,38
 585 259 585 259 589.5 245 c 128,-1,39
 594 231 594 231 601 215 c 128,-1,40
 608 199 608 199 612 192 c 0,41,42
 614 187 614 187 618 179 c 1,43,44
 583 169 583 169 517 143 c 1,45,46
 487 184 487 184 470 266 c 0,47,48
 467 286 467 286 465 293 c 128,-1,49
 463 300 463 300 456 308 c 128,-1,50
 449 316 449 316 438 316 c 2,51,-1
 373 316 l 1,52,-1
 373 143 l 1,53,-1
 264 143 l 1,27,-1
373 399 m 1,54,-1
 439 399 l 2,55,56
 464 399 464 399 476 412.5 c 128,-1,57
 488 426 488 426 488 449 c 0,58,59
 488 469 488 469 474.5 483.5 c 128,-1,60
 461 498 461 498 439 498 c 2,61,-1
 373 498 l 1,62,-1
 373 399 l 1,54,-1
626 166 m 0,63,64
 635 149 635 149 637 144 c 1,65,66
 643 150 643 150 649 156 c 0,67,68
 661 169 661 169 661 176 c 0,69,70
 661 184 661 184 647 184 c 0,71,72
 637 184 637 184 618 179 c 1,73,74
 621 173 621 173 626 166 c 0,63,64
EndSplineSet
EndChar

StartChar: macron
Encoding: 175 175 113
Width: 490
GlyphClass: 2
Flags: W
LayerCount: 2
Fore
SplineSet
4 677 m 1,0,-1
 4 792 l 1,1,-1
 487 792 l 1,2,-1
 487 677 l 1,3,-1
 4 677 l 1,0,-1
EndSplineSet
EndChar

StartChar: degree
Encoding: 176 176 114
Width: 434
GlyphClass: 2
Flags: W
LayerCount: 2
Fore
SplineSet
81 605 m 0,0,1
 81 662 81 662 120 701 c 128,-1,2
 159 740 159 740 217 740 c 0,3,4
 274 740 274 740 313.5 702 c 128,-1,5
 353 664 353 664 353 605 c 0,6,7
 353 549 353 549 313 510 c 128,-1,8
 273 471 273 471 217 471 c 256,9,10
 161 471 161 471 121 510 c 128,-1,11
 81 549 81 549 81 605 c 0,0,1
164 605 m 0,12,13
 164 582 164 582 179 566.5 c 128,-1,14
 194 551 194 551 217 551 c 256,15,16
 240 551 240 551 255 566.5 c 128,-1,17
 270 582 270 582 270 605 c 256,18,19
 270 628 270 628 255 644 c 128,-1,20
 240 660 240 660 217 660 c 256,21,22
 194 660 194 660 179 643.5 c 128,-1,23
 164 627 164 627 164 605 c 0,12,13
EndSplineSet
EndChar

StartChar: plusminus
Encoding: 177 177 115
Width: 566
GlyphClass: 2
Flags: W
LayerCount: 2
Fore
SplineSet
37 397 m 1,0,-1
 37 509 l 1,1,-1
 217 509 l 1,2,-1
 217 667 l 1,3,-1
 348 667 l 1,4,-1
 348 509 l 1,5,-1
 530 509 l 1,6,-1
 530 397 l 1,7,-1
 348 397 l 1,8,-1
 348 241 l 1,9,-1
 217 241 l 1,10,-1
 217 397 l 1,11,-1
 37 397 l 1,0,-1
38 74 m 1,12,-1
 38 186 l 1,13,-1
 527 186 l 1,14,-1
 527 74 l 1,15,-1
 38 74 l 1,12,-1
EndSplineSet
EndChar

StartChar: twosuperior
Encoding: 178 178 116
Width: 331
GlyphClass: 2
Flags: W
LayerCount: 2
Fore
SplineSet
23 688 m 1,0,1
 52 815 52 815 165 815 c 0,2,3
 226 815 226 815 264.5 780 c 128,-1,4
 303 745 303 745 303 686 c 0,5,6
 303 626 303 626 244 563 c 0,7,8
 236 554 236 554 210.5 530 c 128,-1,9
 185 506 185 506 169 487.5 c 128,-1,10
 153 469 153 469 142 449 c 1,11,-1
 302 449 l 1,12,-1
 302 372 l 1,13,-1
 28 372 l 1,14,15
 28 436 28 436 58 482.5 c 128,-1,16
 88 529 88 529 167 604 c 0,17,18
 209 645 209 645 209 687 c 0,19,20
 209 711 209 711 196.5 724.5 c 128,-1,21
 184 738 184 738 164 738 c 0,22,23
 117 738 117 738 101 665 c 1,24,-1
 23 688 l 1,0,1
EndSplineSet
EndChar

StartChar: threesuperior
Encoding: 179 179 117
Width: 331
GlyphClass: 2
Flags: W
LayerCount: 2
Fore
SplineSet
14 471 m 1,0,-1
 88 498 l 1,1,2
 111 439 111 439 161 439 c 0,3,4
 186 439 186 439 203 454.5 c 128,-1,5
 220 470 220 470 220 498 c 0,6,7
 220 524 220 524 201 541 c 128,-1,8
 182 558 182 558 151 558 c 0,9,10
 130 558 130 558 105 555 c 1,11,-1
 105 634 l 1,12,13
 140 632 140 632 149 632 c 0,14,15
 173 632 173 632 189 646 c 128,-1,16
 205 660 205 660 205 687 c 0,17,18
 205 708 205 708 191.5 722.5 c 128,-1,19
 178 737 178 737 157 737 c 0,20,21
 133 737 133 737 121.5 721 c 128,-1,22
 110 705 110 705 100 676 c 1,23,-1
 23 699 l 1,24,25
 31 736 31 736 49.5 761 c 128,-1,26
 68 786 68 786 90 796.5 c 128,-1,27
 112 807 112 807 128.5 810.5 c 128,-1,28
 145 814 145 814 162 814 c 0,29,30
 224 814 224 814 261.5 780 c 128,-1,31
 299 746 299 746 299 694 c 0,32,33
 299 634 299 634 252 600 c 1,34,35
 278 587 278 587 296 561 c 128,-1,36
 314 535 314 535 314 498 c 0,37,38
 314 435 314 435 272.5 398 c 128,-1,39
 231 361 231 361 162 361 c 0,40,41
 111 361 111 361 69.5 389 c 128,-1,42
 28 417 28 417 14 471 c 1,0,-1
EndSplineSet
EndChar

StartChar: acute
Encoding: 180 180 118
Width: 397
GlyphClass: 2
Flags: W
LayerCount: 2
Fore
SplineSet
86 645 m 1,0,-1
 191 822 l 1,1,-1
 346 822 l 1,2,-1
 195 645 l 1,3,-1
 86 645 l 1,0,-1
EndSplineSet
EndChar

StartChar: uni00B5
Encoding: 181 181 119
Width: 563
GlyphClass: 2
Flags: W
LayerCount: 2
Fore
SplineSet
66 -215 m 1,0,-1
 66 538 l 1,1,-1
 195 538 l 1,2,-1
 195 212 l 2,3,4
 195 95 195 95 276 95 c 0,5,6
 324 95 324 95 351 138 c 128,-1,7
 378 181 378 181 378 238 c 2,8,-1
 378 538 l 1,9,-1
 509 538 l 1,10,-1
 509 0 l 1,11,-1
 383 0 l 1,12,-1
 383 52 l 1,13,14
 371 27 371 27 336 5.5 c 128,-1,15
 301 -16 301 -16 252 -16 c 0,16,17
 218 -16 218 -16 195 2 c 1,18,-1
 195 -215 l 1,19,-1
 66 -215 l 1,0,-1
EndSplineSet
EndChar

StartChar: paragraph
Encoding: 182 182 120
Width: 634
GlyphClass: 2
Flags: W
LayerCount: 2
Fore
SplineSet
47 550 m 0,0,1
 47 649 47 649 100 710.5 c 128,-1,2
 153 772 153 772 256 772 c 2,3,-1
 557 772 l 1,4,-1
 557 -72 l 1,5,-1
 450 -72 l 1,6,-1
 450 654 l 1,7,-1
 385 654 l 1,8,-1
 385 -72 l 1,9,-1
 278 -72 l 1,10,-1
 278 321 l 1,11,12
 261 316 261 316 241 316 c 0,13,14
 159 316 159 316 103 376 c 128,-1,15
 47 436 47 436 47 550 c 0,0,1
EndSplineSet
EndChar

StartChar: periodcentered
Encoding: 183 183 121
Width: 352
GlyphClass: 2
Flags: W
LayerCount: 2
Fore
SplineSet
93 278 m 1,0,-1
 93 429 l 1,1,-1
 259 429 l 1,2,-1
 259 278 l 1,3,-1
 93 278 l 1,0,-1
EndSplineSet
EndChar

StartChar: cedilla
Encoding: 184 184 122
Width: 313
GlyphClass: 2
Flags: W
LayerCount: 2
Fore
SplineSet
42 -122 m 1,0,1
 83 -131 83 -131 103 -131 c 0,2,3
 150 -131 150 -131 150 -109 c 0,4,5
 150 -78 150 -78 62 -73 c 1,6,-1
 122 47 l 1,7,-1
 236 47 l 1,8,-1
 206 -15 l 1,9,10
 271 -38 271 -38 271 -110 c 0,11,12
 271 -155 271 -155 236 -189.5 c 128,-1,13
 201 -224 201 -224 115 -224 c 0,14,15
 68 -224 68 -224 42 -215 c 1,16,-1
 42 -122 l 1,0,1
EndSplineSet
EndChar

StartChar: onesuperior
Encoding: 185 185 123
Width: 331
GlyphClass: 2
Flags: W
LayerCount: 2
Fore
SplineSet
40 660 m 1,0,-1
 40 733 l 1,1,-1
 67 733 l 2,2,3
 147 733 147 733 147 792 c 2,4,-1
 147 809 l 1,5,-1
 229 809 l 1,6,-1
 229 373 l 1,7,-1
 135 373 l 1,8,-1
 135 660 l 1,9,-1
 40 660 l 1,0,-1
EndSplineSet
EndChar

StartChar: ordmasculine
Encoding: 186 186 124
Width: 394
GlyphClass: 2
Flags: W
LayerCount: 2
Fore
SplineSet
113 614 m 0,0,1
 113 550 113 550 138.5 520 c 128,-1,2
 164 490 164 490 197 490 c 0,3,4
 229 490 229 490 254.5 520 c 128,-1,5
 280 550 280 550 280 614 c 0,6,7
 280 680 280 680 254.5 709.5 c 128,-1,8
 229 739 229 739 197 739 c 0,9,10
 163 739 163 739 138 709 c 128,-1,11
 113 679 113 679 113 614 c 0,0,1
21 614 m 0,12,13
 21 699 21 699 65.5 757 c 128,-1,14
 110 815 110 815 197 815 c 0,15,16
 285 815 285 815 329 756.5 c 128,-1,17
 373 698 373 698 373 614 c 0,18,19
 373 582 373 582 365 550 c 128,-1,20
 357 518 357 518 338.5 486 c 128,-1,21
 320 454 320 454 283.5 434 c 128,-1,22
 247 414 247 414 197 414 c 0,23,24
 148 414 148 414 111.5 433 c 128,-1,25
 75 452 75 452 56.5 483 c 128,-1,26
 38 514 38 514 29.5 547 c 128,-1,27
 21 580 21 580 21 614 c 0,12,13
25 278 m 1,28,-1
 25 361 l 1,29,-1
 369 361 l 1,30,-1
 369 278 l 1,31,-1
 25 278 l 1,28,-1
EndSplineSet
EndChar

StartChar: guillemotright
Encoding: 187 187 125
Width: 537
GlyphClass: 2
Flags: W
LayerCount: 2
Fore
SplineSet
37 439 m 1,0,-1
 128 509 l 1,1,-1
 295 269 l 1,2,-1
 128 30 l 1,3,-1
 37 99 l 1,4,-1
 157 269 l 1,5,-1
 37 439 l 1,0,-1
242 84 m 1,6,-1
 362 269 l 1,7,-1
 240 459 l 1,8,-1
 334 522 l 1,9,-1
 501 269 l 1,10,-1
 334 18 l 1,11,-1
 242 84 l 1,6,-1
EndSplineSet
EndChar

StartChar: onequarter
Encoding: 188 188 126
Width: 978
GlyphClass: 3
Flags: W
LayerCount: 2
Fore
SplineSet
678 145 m 1,0,-1
 760 145 l 1,1,-1
 760 224 l 2,2,3
 760 233 760 233 760.5 257 c 128,-1,4
 761 281 761 281 761 284 c 1,5,-1
 678 145 l 1,0,-1
56 614 m 1,6,-1
 56 706 l 1,7,-1
 90 706 l 2,8,9
 178 706 178 706 178 769 c 2,10,-1
 178 792 l 1,11,-1
 279 792 l 1,12,-1
 279 287 l 1,13,-1
 164 287 l 1,14,-1
 164 614 l 1,15,-1
 56 614 l 1,6,-1
172 -52 m 1,16,-1
 641 783 l 1,17,-1
 762 783 l 1,18,-1
 295 -52 l 1,19,-1
 172 -52 l 1,16,-1
565 136 m 1,20,-1
 778 459 l 1,21,-1
 872 459 l 1,22,-1
 872 145 l 1,23,-1
 927 145 l 1,24,-1
 927 49 l 1,25,-1
 872 49 l 1,26,-1
 872 -53 l 1,27,-1
 760 -53 l 1,28,-1
 760 49 l 1,29,-1
 565 49 l 1,30,-1
 565 136 l 1,20,-1
EndSplineSet
Ligature2: "'frac' Diagonal Fractions lookup 7 subtable" one fraction four
Ligature2: "'frac' Diagonal Fractions lookup 7 subtable" one slash four
EndChar

StartChar: onehalf
Encoding: 189 189 127
Width: 978
GlyphClass: 3
Flags: W
LayerCount: 2
Fore
SplineSet
155 -52 m 1,0,-1
 631 783 l 1,1,-1
 752 783 l 1,2,-1
 279 -52 l 1,3,-1
 155 -52 l 1,0,-1
579 314 m 1,4,5
 610 466 610 466 745 466 c 0,6,7
 816 466 816 466 861.5 424.5 c 128,-1,8
 907 383 907 383 907 314 c 0,9,10
 907 287 907 287 900 263.5 c 128,-1,11
 893 240 893 240 875.5 217 c 128,-1,12
 858 194 858 194 846.5 181.5 c 128,-1,13
 835 169 835 169 809 143 c 0,14,15
 746 83 746 83 726 49 c 1,16,-1
 905 49 l 1,17,-1
 905 -47 l 1,18,-1
 585 -47 l 1,19,20
 585 26 585 26 616.5 80 c 128,-1,21
 648 134 648 134 744 225 c 0,22,23
 792 269 792 269 792 316 c 0,24,25
 792 341 792 341 779 355 c 128,-1,26
 766 369 766 369 744 369 c 0,27,28
 727 369 727 369 713.5 360.5 c 128,-1,29
 700 352 700 352 693 337 c 128,-1,30
 686 322 686 322 682.5 311.5 c 128,-1,31
 679 301 679 301 676 285 c 1,32,-1
 579 314 l 1,4,5
56 614 m 1,33,-1
 56 706 l 1,34,-1
 90 706 l 2,35,36
 178 706 178 706 178 769 c 2,37,-1
 178 792 l 1,38,-1
 279 792 l 1,39,-1
 279 287 l 1,40,-1
 164 287 l 1,41,-1
 164 614 l 1,42,-1
 56 614 l 1,33,-1
EndSplineSet
Ligature2: "'frac' Diagonal Fractions lookup 7 subtable" one fraction two
Ligature2: "'frac' Diagonal Fractions lookup 7 subtable" one slash two
EndChar

StartChar: threequarters
Encoding: 190 190 128
Width: 978
GlyphClass: 3
Flags: W
LayerCount: 2
Fore
SplineSet
47 407 m 1,0,-1
 139 441 l 1,1,2
 146 423 146 423 153 411 c 128,-1,3
 160 399 160 399 178 386 c 128,-1,4
 196 373 196 373 220 373 c 0,5,6
 247 373 247 373 264.5 389 c 128,-1,7
 282 405 282 405 282 436 c 0,8,9
 282 464 282 464 262 481.5 c 128,-1,10
 242 499 242 499 209 499 c 0,11,12
 187 499 187 499 152 496 c 1,13,-1
 152 593 l 1,14,15
 173 592 173 592 206 592 c 0,16,17
 231 592 231 592 248.5 607.5 c 128,-1,18
 266 623 266 623 266 650 c 0,19,20
 266 674 266 674 252 688.5 c 128,-1,21
 238 703 238 703 215 703 c 0,22,23
 197 703 197 703 184.5 691.5 c 128,-1,24
 172 680 172 680 166 668 c 128,-1,25
 160 656 160 656 152 633 c 1,26,-1
 58 662 l 1,27,28
 68 703 68 703 87.5 732 c 128,-1,29
 107 761 107 761 131.5 774.5 c 128,-1,30
 156 788 156 788 177.5 794 c 128,-1,31
 199 800 199 800 221 800 c 0,32,33
 293 800 293 800 337 759.5 c 128,-1,34
 381 719 381 719 381 658 c 0,35,36
 381 593 381 593 331 552 c 1,37,38
 398 514 398 514 398 436 c 0,39,40
 398 362 398 362 349 319 c 128,-1,41
 300 276 300 276 220 276 c 0,42,43
 163 276 163 276 115 307 c 128,-1,44
 67 338 67 338 47 407 c 1,0,-1
568 135 m 1,45,-1
 781 459 l 1,46,-1
 875 459 l 1,47,-1
 875 145 l 1,48,-1
 929 145 l 1,49,-1
 929 49 l 1,50,-1
 875 49 l 1,51,-1
 875 -53 l 1,52,-1
 762 -53 l 1,53,-1
 762 49 l 1,54,-1
 568 49 l 1,55,-1
 568 135 l 1,45,-1
681 145 m 1,56,-1
 762 145 l 1,57,-1
 762 218 l 2,58,59
 762 227 762 227 762.5 253.5 c 128,-1,60
 763 280 763 280 763 283 c 1,61,-1
 730 226 l 1,62,-1
 681 145 l 1,56,-1
219 -52 m 1,63,-1
 700 783 l 1,64,-1
 823 783 l 1,65,-1
 343 -52 l 1,66,-1
 219 -52 l 1,63,-1
EndSplineSet
Ligature2: "'frac' Diagonal Fractions lookup 7 subtable" three fraction four
Ligature2: "'frac' Diagonal Fractions lookup 7 subtable" three slash four
EndChar

StartChar: questiondown
Encoding: 191 191 129
Width: 577
GlyphClass: 2
Flags: W
LayerCount: 2
Fore
SplineSet
58 -5 m 0,0,1
 58 40 58 40 75 75 c 128,-1,2
 92 110 92 110 116.5 133 c 128,-1,3
 141 156 141 156 165 178.5 c 128,-1,4
 189 201 189 201 206 231.5 c 128,-1,5
 223 262 223 262 223 299 c 2,6,-1
 223 331 l 1,7,-1
 361 331 l 1,8,-1
 361 288 l 2,9,10
 361 248 361 248 349 216 c 128,-1,11
 337 184 337 184 318.5 163 c 128,-1,12
 300 142 300 142 279.5 121 c 128,-1,13
 259 100 259 100 241 83 c 128,-1,14
 223 66 223 66 211 41 c 128,-1,15
 199 16 199 16 199 -12 c 0,16,17
 199 -53 199 -53 221.5 -76.5 c 128,-1,18
 244 -100 244 -100 281 -100 c 0,19,20
 359 -100 359 -100 398 8 c 1,21,-1
 519 -32 l 1,22,23
 498 -109 498 -109 436 -162.5 c 128,-1,24
 374 -216 374 -216 281 -216 c 0,25,26
 183 -216 183 -216 120.5 -158 c 128,-1,27
 58 -100 58 -100 58 -5 c 0,0,1
208 393 m 1,28,-1
 208 542 l 1,29,-1
 375 542 l 1,30,-1
 375 393 l 1,31,-1
 208 393 l 1,28,-1
EndSplineSet
EndChar

StartChar: AE
Encoding: 198 198 136
Width: 963
GlyphClass: 2
Flags: W
LayerCount: 2
Fore
SplineSet
279 282 m 1,0,-1
 457 282 l 1,1,-1
 457 605 l 1,2,-1
 448 605 l 1,3,-1
 279 282 l 1,0,-1
-5 0 m 1,4,-1
 378 735 l 1,5,-1
 927 735 l 1,6,-1
 927 619 l 1,7,-1
 593 619 l 1,8,-1
 593 437 l 1,9,-1
 892 437 l 1,10,-1
 892 322 l 1,11,-1
 583 322 l 1,12,-1
 583 116 l 1,13,-1
 936 116 l 1,14,-1
 936 0 l 1,15,-1
 457 0 l 1,16,-1
 457 173 l 1,17,-1
 226 173 l 1,18,-1
 139 0 l 1,19,-1
 -5 0 l 1,4,-1
EndSplineSet
EndChar

StartChar: multiply
Encoding: 215 215 153
Width: 557
GlyphClass: 2
Flags: W
LayerCount: 2
Fore
SplineSet
33 209 m 1,0,-1
 197 365 l 1,1,-1
 33 520 l 1,2,-1
 118 603 l 1,3,-1
 278 446 l 1,4,-1
 438 603 l 1,5,-1
 524 520 l 1,6,-1
 360 365 l 1,7,-1
 524 209 l 1,8,-1
 438 127 l 1,9,-1
 278 285 l 1,10,-1
 118 127 l 1,11,-1
 33 209 l 1,0,-1
EndSplineSet
EndChar

StartChar: Oslash
Encoding: 216 216 154
Width: 708
GlyphClass: 2
Flags: W
LayerCount: 2
Fore
SplineSet
36 367 m 0,0,1
 36 540 36 540 123.5 645.5 c 128,-1,2
 211 751 211 751 354 751 c 0,3,4
 430 751 430 751 491 720 c 1,5,-1
 528 787 l 1,6,-1
 639 787 l 1,7,-1
 572 662 l 1,8,9
 673 556 673 556 673 367 c 0,10,11
 673 194 673 194 585.5 89 c 128,-1,12
 498 -16 498 -16 354 -16 c 0,13,14
 284 -16 284 -16 226 10 c 1,15,-1
 190 -54 l 1,16,-1
 80 -54 l 1,17,-1
 145 64 l 1,18,19
 36 171 36 171 36 367 c 0,0,1
498 534 m 1,20,-1
 284 116 l 1,21,22
 310 100 310 100 354 100 c 0,23,24
 437 100 437 100 484.5 171.5 c 128,-1,25
 532 243 532 243 532 367 c 0,26,27
 532 469 532 469 498 534 c 1,20,-1
434 614 m 1,28,29
 398 635 398 635 354 635 c 0,30,31
 271 635 271 635 223.5 562.5 c 128,-1,32
 176 490 176 490 176 367 c 0,33,34
 176 265 176 265 215 191 c 1,35,-1
 434 614 l 1,28,29
EndSplineSet
EndChar

StartChar: Thorn
Encoding: 222 222 160
Width: 579
GlyphClass: 2
Flags: W
LayerCount: 2
Fore
SplineSet
77 0 m 1,0,-1
 77 735 l 1,1,-1
 212 735 l 1,2,-1
 212 617 l 1,3,-1
 271 617 l 2,4,5
 348 617 348 617 404 596 c 128,-1,6
 460 575 460 575 490 538.5 c 128,-1,7
 520 502 520 502 534 461.5 c 128,-1,8
 548 421 548 421 548 373 c 0,9,10
 548 251 548 251 475.5 188.5 c 128,-1,11
 403 126 403 126 277 126 c 2,12,-1
 212 126 l 1,13,-1
 212 0 l 1,14,-1
 77 0 l 1,0,-1
212 242 m 1,15,-1
 264 242 l 2,16,17
 405 242 405 242 405 376 c 0,18,19
 405 501 405 501 262 501 c 2,20,-1
 212 501 l 1,21,-1
 212 242 l 1,15,-1
EndSplineSet
EndChar

StartChar: germandbls
Encoding: 223 223 161
Width: 640
GlyphClass: 2
Flags: W
LayerCount: 2
Fore
SplineSet
77 0 m 1,0,-1
 77 530 l 2,1,2
 77 638 77 638 143 694.5 c 128,-1,3
 209 751 209 751 307 751 c 0,4,5
 417 751 417 751 483.5 697.5 c 128,-1,6
 550 644 550 644 550 550 c 0,7,8
 550 451 550 451 467 400 c 1,9,-1
 467 398 l 1,10,11
 602 352 602 352 602 205 c 0,12,13
 602 100 602 100 538.5 42 c 128,-1,14
 475 -16 475 -16 365 -16 c 0,15,16
 299 -16 299 -16 246 0 c 1,17,-1
 247 121 l 1,18,19
 301 100 301 100 360 100 c 0,20,21
 402 100 402 100 432 130.5 c 128,-1,22
 462 161 462 161 462 206 c 0,23,24
 462 264 462 264 429.5 295.5 c 128,-1,25
 397 327 397 327 333 327 c 2,26,-1
 266 327 l 1,27,-1
 266 442 l 1,28,-1
 321 442 l 2,29,30
 360 442 360 442 384.5 468.5 c 128,-1,31
 409 495 409 495 409 542 c 0,32,33
 409 583 409 583 382.5 609 c 128,-1,34
 356 635 356 635 311 635 c 0,35,36
 265 635 265 635 239 603.5 c 128,-1,37
 213 572 213 572 213 519 c 2,38,-1
 213 0 l 1,39,-1
 77 0 l 1,0,-1
EndSplineSet
EndChar

StartChar: ae
Encoding: 230 230 168
Width: 883
GlyphClass: 2
Flags: W
LayerCount: 2
Fore
SplineSet
29 146 m 0,0,1
 29 220 29 220 90 268 c 128,-1,2
 151 316 151 316 267 332 c 0,3,4
 329 341 329 341 363 349 c 0,5,6
 363 352 363 352 362.5 365.5 c 128,-1,7
 362 379 362 379 362 382 c 0,8,9
 362 414 362 414 336 433 c 128,-1,10
 310 452 310 452 272 452 c 0,11,12
 189 452 189 452 121 383 c 1,13,-1
 43 449 l 1,14,15
 129 554 129 554 272 554 c 0,16,17
 387 554 387 554 444 485 c 1,18,19
 508 554 508 554 612 554 c 0,20,21
 714 554 714 554 784.5 475.5 c 128,-1,22
 855 397 855 397 855 272 c 0,23,24
 855 264 855 264 853 224 c 1,25,-1
 490 224 l 1,26,-1
 490 213 l 2,27,28
 492 166 492 166 523.5 127 c 128,-1,29
 555 88 555 88 614 88 c 0,30,31
 697 88 697 88 739 163 c 1,32,-1
 846 125 l 1,33,34
 821 66 821 66 761 25 c 128,-1,35
 701 -16 701 -16 614 -16 c 0,36,37
 485 -16 485 -16 415 85 c 1,38,39
 334 -16 334 -16 219 -16 c 0,40,41
 131 -16 131 -16 80 28.5 c 128,-1,42
 29 73 29 73 29 146 c 0,0,1
163 155 m 0,43,44
 163 131 163 131 183.5 111.5 c 128,-1,45
 204 92 204 92 236 92 c 0,46,47
 289 92 289 92 325.5 127.5 c 128,-1,48
 362 163 362 163 362 215 c 2,49,-1
 362 260 l 1,50,51
 356 259 356 259 328 253 c 128,-1,52
 300 247 300 247 279 244 c 0,53,54
 163 227 163 227 163 155 c 0,43,44
490 314 m 1,55,-1
 722 314 l 1,56,57
 722 316 722 316 722 318 c 0,58,59
 722 373 722 373 691 412 c 128,-1,60
 660 451 660 451 613 451 c 0,61,62
 514 451 514 451 492 338 c 1,63,-1
 490 314 l 1,55,-1
EndSplineSet
EndChar

StartChar: eth
Encoding: 240 240 178
Width: 558
GlyphClass: 2
Flags: W
LayerCount: 2
Fore
SplineSet
31 229 m 0,0,1
 31 347 31 347 97 417.5 c 128,-1,2
 163 488 163 488 268 488 c 0,3,4
 304 488 304 488 334.5 477.5 c 128,-1,5
 365 467 365 467 378 454 c 1,6,7
 362 519 362 519 308 574 c 1,8,-1
 215 505 l 1,9,-1
 139 587 l 1,10,-1
 212 642 l 1,11,12
 170 662 170 662 124 669 c 1,13,-1
 171 775 l 1,14,15
 220 768 220 768 265 751 c 0,16,17
 292 741 292 741 321 723 c 1,18,-1
 422 799 l 1,19,-1
 497 714 l 1,20,-1
 412 651 l 1,21,22
 430 631 430 631 446 608 c 0,23,24
 481 556 481 556 505 471.5 c 128,-1,25
 529 387 529 387 529 281 c 0,26,27
 529 146 529 146 461.5 65 c 128,-1,28
 394 -16 394 -16 271 -16 c 0,29,30
 163 -16 163 -16 97 52 c 128,-1,31
 31 120 31 120 31 229 c 0,0,1
165 236 m 256,32,33
 165 173 165 173 195 134 c 128,-1,34
 225 95 225 95 276 95 c 0,35,36
 324 95 324 95 353.5 133 c 128,-1,37
 383 171 383 171 383 236 c 0,38,39
 383 298 383 298 353.5 337 c 128,-1,40
 324 376 324 376 275 376 c 256,41,42
 226 376 226 376 195.5 337.5 c 128,-1,43
 165 299 165 299 165 236 c 256,32,33
EndSplineSet
EndChar

StartChar: divide
Encoding: 247 247 185
Width: 557
GlyphClass: 2
Flags: W
LayerCount: 2
Fore
SplineSet
203 487 m 1,0,-1
 203 632 l 1,1,-1
 352 632 l 1,2,-1
 352 487 l 1,3,-1
 203 487 l 1,0,-1
26 304 m 1,4,-1
 26 420 l 1,5,-1
 530 420 l 1,6,-1
 530 304 l 1,7,-1
 26 304 l 1,4,-1
203 91 m 1,8,-1
 203 237 l 1,9,-1
 352 237 l 1,10,-1
 352 91 l 1,11,-1
 203 91 l 1,8,-1
EndSplineSet
EndChar

StartChar: oslash
Encoding: 248 248 186
Width: 561
GlyphClass: 2
Flags: W
LayerCount: 2
Fore
SplineSet
31 268 m 0,0,1
 31 388 31 388 94 471 c 128,-1,2
 157 554 157 554 281 554 c 0,3,4
 339 554 339 554 383 536 c 1,5,-1
 419 603 l 1,6,-1
 518 603 l 1,7,-1
 455 488 l 1,8,9
 531 410 531 410 531 268 c 0,10,11
 531 232 531 232 525 196 c 128,-1,12
 519 160 519 160 501 120.5 c 128,-1,13
 483 81 483 81 456 51.5 c 128,-1,14
 429 22 429 22 384 3 c 128,-1,15
 339 -16 339 -16 281 -16 c 0,16,17
 230 -16 230 -16 184 0 c 1,18,-1
 153 -55 l 1,19,-1
 56 -55 l 1,20,-1
 110 46 l 1,21,22
 31 124 31 124 31 268 c 0,0,1
382 359 m 1,23,-1
 240 104 l 1,24,25
 261 95 261 95 281 95 c 0,26,27
 326 95 326 95 361.5 136 c 128,-1,28
 397 177 397 177 397 268 c 0,29,30
 397 323 397 323 382 359 c 1,23,-1
327 432 m 1,31,32
 307 443 307 443 281 443 c 0,33,34
 236 443 236 443 200.5 402 c 128,-1,35
 165 361 165 361 165 268 c 0,36,37
 165 213 165 213 184 173 c 1,38,-1
 327 432 l 1,31,32
EndSplineSet
EndChar

StartChar: thorn
Encoding: 254 254 192
Width: 591
GlyphClass: 2
Flags: W
LayerCount: 2
Fore
SplineSet
202 269 m 256,0,1
 202 189 202 189 232.5 142 c 128,-1,2
 263 95 263 95 314 95 c 0,3,4
 366 95 366 95 396.5 140.5 c 128,-1,5
 427 186 427 186 427 269 c 0,6,7
 427 350 427 350 397 396.5 c 128,-1,8
 367 443 367 443 313 443 c 0,9,10
 261 443 261 443 231.5 396 c 128,-1,11
 202 349 202 349 202 269 c 256,0,1
72 -215 m 1,12,-1
 72 759 l 1,13,-1
 203 759 l 1,14,-1
 203 484 l 1,15,16
 217 513 217 513 253 533.5 c 128,-1,17
 289 554 289 554 332 554 c 0,18,19
 433 554 433 554 497 478 c 128,-1,20
 561 402 561 402 561 269 c 0,21,22
 561 194 561 194 540 137 c 128,-1,23
 519 80 519 80 485 48 c 128,-1,24
 451 16 451 16 412 0 c 128,-1,25
 373 -16 373 -16 332 -16 c 0,26,27
 281 -16 281 -16 249.5 5 c 128,-1,28
 218 26 218 26 204 52 c 1,29,-1
 204 -215 l 1,30,-1
 72 -215 l 1,12,-1
EndSplineSet
EndChar

StartChar: dcroat
Encoding: 273 273 211
Width: 584
GlyphClass: 2
Flags: W
LayerCount: 2
Fore
SplineSet
31 263 m 0,0,1
 31 397 31 397 96.5 469.5 c 128,-1,2
 162 542 162 542 258 542 c 0,3,4
 302 542 302 542 337 523.5 c 128,-1,5
 372 505 372 505 389 479 c 1,6,-1
 389 583 l 1,7,-1
 186 583 l 1,8,-1
 186 684 l 1,9,-1
 389 684 l 1,10,-1
 389 759 l 1,11,-1
 519 759 l 1,12,-1
 519 684 l 1,13,-1
 572 684 l 1,14,-1
 572 583 l 1,15,-1
 519 583 l 1,16,-1
 519 0 l 1,17,-1
 393 0 l 1,18,-1
 393 62 l 1,19,20
 373 28 373 28 338 6 c 128,-1,21
 303 -16 303 -16 259 -16 c 0,22,23
 164 -16 164 -16 97.5 54.5 c 128,-1,24
 31 125 31 125 31 263 c 0,0,1
165 263 m 0,25,26
 165 181 165 181 197 138 c 128,-1,27
 229 95 229 95 278 95 c 0,28,29
 329 95 329 95 360 140.5 c 128,-1,30
 391 186 391 186 391 263 c 0,31,32
 391 338 391 338 360.5 384 c 128,-1,33
 330 430 330 430 278 430 c 0,34,35
 228 430 228 430 196.5 384 c 128,-1,36
 165 338 165 338 165 263 c 0,25,26
EndSplineSet
EndChar

StartChar: uni0123
Encoding: 291 291 229
Width: 571
GlyphClass: 2
Flags: W
LayerCount: 2
Fore
SplineSet
203 623 m 1,0,-1
 294 814 l 1,1,-1
 383 814 l 1,2,-1
 343 623 l 1,3,-1
 203 623 l 1,0,-1
167 279 m 0,4,5
 167 201 167 201 196.5 159 c 128,-1,6
 226 117 226 117 274 117 c 256,7,8
 322 117 322 117 351 158.5 c 128,-1,9
 380 200 380 200 380 280 c 0,10,11
 380 359 380 359 351 401 c 128,-1,12
 322 443 322 443 275 443 c 0,13,14
 226 443 226 443 196.5 399.5 c 128,-1,15
 167 356 167 356 167 279 c 0,4,5
34 278 m 0,16,17
 34 404 34 404 97.5 479 c 128,-1,18
 161 554 161 554 257 554 c 0,19,20
 303 554 303 554 335 532 c 128,-1,21
 367 510 367 510 381 484 c 1,22,-1
 381 538 l 1,23,-1
 511 538 l 1,24,-1
 511 78 l 2,25,26
 511 -75 511 -75 450.5 -147 c 128,-1,27
 390 -219 390 -219 265 -219 c 0,28,29
 199 -219 199 -219 143.5 -191.5 c 128,-1,30
 88 -164 88 -164 52 -113 c 1,31,-1
 138 -53 l 1,32,33
 190 -115 190 -115 268 -115 c 0,34,35
 314 -115 314 -115 344 -81 c 128,-1,36
 374 -47 374 -47 379 8 c 0,37,38
 382 52 382 52 382 66 c 1,39,40
 364 39 364 39 330.5 22 c 128,-1,41
 297 5 297 5 262 5 c 0,42,43
 161 5 161 5 97.5 79.5 c 128,-1,44
 34 154 34 154 34 278 c 0,16,17
EndSplineSet
EndChar

StartChar: Hbar
Encoding: 294 294 232
Width: 700
GlyphClass: 2
Flags: W
LayerCount: 2
Fore
SplineSet
8 540 m 1,0,-1
 8 646 l 1,1,-1
 77 646 l 1,2,-1
 77 735 l 1,3,-1
 212 735 l 1,4,-1
 212 646 l 1,5,-1
 488 646 l 1,6,-1
 488 735 l 1,7,-1
 624 735 l 1,8,-1
 624 646 l 1,9,-1
 694 646 l 1,10,-1
 694 540 l 1,11,-1
 624 540 l 1,12,-1
 624 0 l 1,13,-1
 488 0 l 1,14,-1
 488 320 l 1,15,-1
 212 320 l 1,16,-1
 212 0 l 1,17,-1
 77 0 l 1,18,-1
 77 540 l 1,19,-1
 8 540 l 1,0,-1
488 540 m 1,20,-1
 212 540 l 1,21,-1
 212 436 l 1,22,-1
 488 436 l 1,23,-1
 488 540 l 1,20,-1
EndSplineSet
EndChar

StartChar: hbar
Encoding: 295 295 233
Width: 562
GlyphClass: 2
Flags: W
LayerCount: 2
Fore
SplineSet
1 584 m 1,0,-1
 1 683 l 1,1,-1
 65 683 l 1,2,-1
 65 759 l 1,3,-1
 194 759 l 1,4,-1
 194 683 l 1,5,-1
 386 683 l 1,6,-1
 386 584 l 1,7,-1
 194 584 l 1,8,-1
 194 466 l 1,9,-1
 195 466 l 1,10,11
 216 491 216 491 251.5 509.5 c 128,-1,12
 287 528 287 528 327 528 c 0,13,14
 359 528 359 528 388 518.5 c 128,-1,15
 417 509 417 509 446 487 c 128,-1,16
 475 465 475 465 492 421.5 c 128,-1,17
 509 378 509 378 509 318 c 2,18,-1
 509 0 l 1,19,-1
 379 0 l 1,20,-1
 379 304 l 2,21,22
 379 415 379 415 303 415 c 0,23,24
 256 415 256 415 225 374 c 128,-1,25
 194 333 194 333 194 278 c 2,26,-1
 194 0 l 1,27,-1
 65 0 l 1,28,-1
 65 584 l 1,29,-1
 1 584 l 1,0,-1
EndSplineSet
EndChar

StartChar: dotlessi
Encoding: 305 305 243
Width: 261
GlyphClass: 2
Flags: W
LayerCount: 2
Fore
SplineSet
66 0 m 1,0,-1
 66 538 l 1,1,-1
 196 538 l 1,2,-1
 196 0 l 1,3,-1
 66 0 l 1,0,-1
EndSplineSet
EndChar

StartChar: kgreenlandic
Encoding: 312 312 250
Width: 545
GlyphClass: 2
Flags: W
LayerCount: 2
Fore
SplineSet
65 0 m 1,0,-1
 65 538 l 1,1,-1
 194 538 l 1,2,-1
 194 352 l 1,3,-1
 197 352 l 1,4,-1
 390 538 l 1,5,-1
 554 538 l 1,6,-1
 308 299 l 1,7,-1
 556 0 l 1,8,-1
 401 0 l 1,9,-1
 224 205 l 1,10,-1
 194 173 l 1,11,-1
 194 0 l 1,12,-1
 65 0 l 1,0,-1
EndSplineSet
EndChar

StartChar: Lslash
Encoding: 321 321 259
Width: 551
GlyphClass: 2
Flags: W
LayerCount: 2
Fore
SplineSet
213 333 m 1,0,-1
 213 116 l 1,1,-1
 540 116 l 1,2,-1
 540 0 l 1,3,-1
 77 0 l 1,4,-1
 77 250 l 1,5,-1
 -2 200 l 1,6,-1
 -65 300 l 1,7,-1
 77 387 l 1,8,-1
 77 735 l 1,9,-1
 213 735 l 1,10,-1
 213 470 l 1,11,-1
 318 536 l 1,12,-1
 380 436 l 1,13,-1
 213 333 l 1,0,-1
EndSplineSet
EndChar

StartChar: lslash
Encoding: 322 322 260
Width: 268
GlyphClass: 2
Flags: W
LayerCount: 2
Fore
SplineSet
200 349 m 1,0,-1
 200 0 l 1,1,-1
 69 0 l 1,2,-1
 69 272 l 1,3,-1
 -10 225 l 1,4,-1
 -72 325 l 1,5,-1
 69 410 l 1,6,-1
 69 759 l 1,7,-1
 200 759 l 1,8,-1
 200 487 l 1,9,-1
 280 534 l 1,10,-1
 341 433 l 1,11,-1
 200 349 l 1,0,-1
EndSplineSet
EndChar

StartChar: Eng
Encoding: 330 330 268
Width: 705
GlyphClass: 2
Flags: W
LayerCount: 2
Fore
SplineSet
77 0 m 1,0,-1
 77 735 l 1,1,-1
 216 735 l 1,2,-1
 434 335 l 1,3,-1
 503 204 l 1,4,-1
 508 204 l 1,5,6
 493 294 493 294 493 414 c 2,7,-1
 493 735 l 1,8,-1
 629 735 l 1,9,-1
 629 17 l 2,10,11
 629 -100 629 -100 575.5 -155 c 128,-1,12
 522 -210 522 -210 439 -210 c 0,13,14
 394 -210 394 -210 333 -199 c 1,15,-1
 333 -86 l 1,16,17
 368 -94 368 -94 411 -94 c 0,18,19
 452 -94 452 -94 470 -73 c 128,-1,20
 488 -52 488 -52 490 -2 c 1,21,-1
 266 404 l 1,22,-1
 203 528 l 1,23,-1
 198 528 l 1,24,25
 213 398 213 398 213 322 c 2,26,-1
 213 0 l 1,27,-1
 77 0 l 1,0,-1
EndSplineSet
EndChar

StartChar: eng
Encoding: 331 331 269
Width: 559
GlyphClass: 2
Flags: W
LayerCount: 2
Fore
SplineSet
60 0 m 1,0,-1
 60 538 l 1,1,-1
 185 538 l 1,2,-1
 185 478 l 1,3,-1
 186 478 l 1,4,5
 206 510 206 510 243 532 c 128,-1,6
 280 554 280 554 330 554 c 0,7,8
 506 554 506 554 506 345 c 2,9,-1
 506 8 l 2,10,11
 506 -55 506 -55 488 -101.5 c 128,-1,12
 470 -148 470 -148 441.5 -172.5 c 128,-1,13
 413 -197 413 -197 382 -208 c 128,-1,14
 351 -219 351 -219 318 -219 c 0,15,16
 283 -219 283 -219 223 -208 c 1,17,-1
 223 -95 l 1,18,19
 261 -104 261 -104 295 -104 c 0,20,21
 337 -104 337 -104 356.5 -81 c 128,-1,22
 376 -58 376 -58 376 -9 c 2,23,-1
 376 329 l 2,24,25
 376 383 376 383 359 413 c 128,-1,26
 342 443 342 443 300 443 c 0,27,28
 253 443 253 443 222 404.5 c 128,-1,29
 191 366 191 366 191 309 c 2,30,-1
 191 0 l 1,31,-1
 60 0 l 1,0,-1
EndSplineSet
EndChar

StartChar: OE
Encoding: 338 338 276
Width: 980
GlyphClass: 2
Flags: W
LayerCount: 2
Fore
SplineSet
36 367 m 256,0,1
 36 540 36 540 124.5 645.5 c 128,-1,2
 213 751 213 751 357 751 c 0,3,4
 423 751 423 751 459 735 c 1,5,-1
 943 735 l 1,6,-1
 943 618 l 1,7,-1
 591 618 l 1,8,-1
 591 437 l 1,9,-1
 908 437 l 1,10,-1
 908 322 l 1,11,-1
 591 322 l 1,12,-1
 591 116 l 1,13,-1
 953 116 l 1,14,-1
 953 0 l 1,15,-1
 461 0 l 1,16,17
 413 -16 413 -16 357 -16 c 0,18,19
 211 -16 211 -16 123.5 89 c 128,-1,20
 36 194 36 194 36 367 c 256,0,1
176 367 m 0,21,22
 176 244 176 244 224.5 172 c 128,-1,23
 273 100 273 100 357 100 c 0,24,25
 414 100 414 100 454 135 c 1,26,-1
 454 599 l 1,27,28
 415 635 415 635 357 635 c 0,29,30
 272 635 272 635 224 562 c 128,-1,31
 176 489 176 489 176 367 c 0,21,22
EndSplineSet
EndChar

StartChar: uni0163
Encoding: 355 355 293
Width: 371
GlyphClass: 2
Flags: W
LayerCount: 2
Fore
SplineSet
16 427 m 1,0,-1
 16 538 l 1,1,-1
 96 538 l 1,2,-1
 96 694 l 1,3,-1
 226 694 l 1,4,-1
 226 538 l 1,5,-1
 342 538 l 1,6,-1
 342 427 l 1,7,-1
 226 427 l 1,8,-1
 226 177 l 2,9,10
 226 111 226 111 283 111 c 2,11,-1
 343 111 l 1,12,-1
 343 0 l 1,13,-1
 290 0 l 1,14,-1
 282 -28 l 1,15,16
 319 -37 319 -37 340 -58.5 c 128,-1,17
 361 -80 361 -80 361 -113 c 0,18,19
 361 -155 361 -155 324 -186 c 128,-1,20
 287 -217 287 -217 205 -217 c 0,21,22
 157 -217 157 -217 117 -207 c 1,23,-1
 117 -127 l 1,24,25
 163 -136 163 -136 201 -136 c 0,26,27
 258 -136 258 -136 258 -104 c 0,28,29
 258 -76 258 -76 163 -71 c 1,30,-1
 156 -71 l 1,31,-1
 177 16 l 1,32,33
 96 52 96 52 96 168 c 2,34,-1
 96 427 l 1,35,-1
 16 427 l 1,0,-1
EndSplineSet
Substitution2: "'locl' Localized Forms in Latin lookup 3 subtable" uni021B
Substitution2: "'locl' Localized Forms in Latin lookup 2 subtable" uni021B
Substitution2: "'aalt' Access All Alternates lookup 0 subtable" uni021B
EndChar

StartChar: tbar
Encoding: 359 359 297
Width: 371
GlyphClass: 2
Flags: W
LayerCount: 2
Fore
SplineSet
16 427 m 1,0,-1
 16 538 l 1,1,-1
 96 538 l 1,2,-1
 96 694 l 1,3,-1
 226 694 l 1,4,-1
 226 538 l 1,5,-1
 342 538 l 1,6,-1
 342 427 l 1,7,-1
 226 427 l 1,8,-1
 226 364 l 1,9,-1
 341 364 l 1,10,-1
 341 257 l 1,11,-1
 226 257 l 1,12,-1
 226 177 l 2,13,14
 226 111 226 111 283 111 c 2,15,-1
 343 111 l 1,16,-1
 343 0 l 1,17,-1
 267 0 l 2,18,19
 96 0 96 0 96 168 c 2,20,-1
 96 257 l 1,21,-1
 3 257 l 1,22,-1
 3 364 l 1,23,-1
 96 364 l 1,24,-1
 96 427 l 1,25,-1
 16 427 l 1,0,-1
EndSplineSet
EndChar

StartChar: longs
Encoding: 383 383 321
Width: 316
GlyphClass: 2
Flags: W
LayerCount: 2
Fore
SplineSet
69 0 m 1,0,-1
 69 589 l 2,1,2
 69 672 69 672 111.5 715 c 128,-1,3
 154 758 154 758 231 758 c 2,4,-1
 319 758 l 1,5,-1
 319 646 l 1,6,-1
 257 646 l 2,7,8
 228 646 228 646 214 630 c 128,-1,9
 200 614 200 614 200 577 c 2,10,-1
 200 0 l 1,11,-1
 69 0 l 1,0,-1
EndSplineSet
EndChar

StartChar: uni0180
Encoding: 384 384 322
Width: 584
GlyphClass: 2
Flags: W
LayerCount: 2
Fore
SplineSet
194 265 m 0,0,1
 194 187 194 187 225 141 c 128,-1,2
 256 95 256 95 308 95 c 0,3,4
 357 95 357 95 388.5 139 c 128,-1,5
 420 183 420 183 420 265 c 0,6,7
 420 341 420 341 389 388 c 128,-1,8
 358 435 358 435 307 435 c 256,9,10
 256 435 256 435 225 388 c 128,-1,11
 194 341 194 341 194 265 c 0,0,1
2 584 m 1,12,-1
 2 685 l 1,13,-1
 66 685 l 1,14,-1
 66 759 l 1,15,-1
 194 759 l 1,16,-1
 194 685 l 1,17,-1
 382 685 l 1,18,-1
 382 584 l 1,19,-1
 194 584 l 1,20,-1
 194 478 l 1,21,22
 248 546 248 546 326 546 c 0,23,24
 425 546 425 546 489.5 470.5 c 128,-1,25
 554 395 554 395 554 265 c 0,26,27
 554 192 554 192 532.5 135.5 c 128,-1,28
 511 79 511 79 477 47 c 128,-1,29
 443 15 443 15 405 -0.5 c 128,-1,30
 367 -16 367 -16 328 -16 c 0,31,32
 281 -16 281 -16 244.5 7.5 c 128,-1,33
 208 31 208 31 192 61 c 1,34,-1
 192 0 l 1,35,-1
 66 0 l 1,36,-1
 66 584 l 1,37,-1
 2 584 l 1,12,-1
EndSplineSet
EndChar

StartChar: uni0182
Encoding: 386 386 324
Width: 658
GlyphClass: 2
Flags: W
LayerCount: 2
Fore
SplineSet
213 116 m 1,0,-1
 373 116 l 2,1,2
 419 116 419 116 450.5 141 c 128,-1,3
 482 166 482 166 482 216 c 0,4,5
 482 259 482 259 453.5 290 c 128,-1,6
 425 321 425 321 372 321 c 2,7,-1
 213 321 l 1,8,-1
 213 116 l 1,0,-1
77 0 m 1,9,-1
 77 735 l 1,10,-1
 537 735 l 1,11,-1
 537 618 l 1,12,-1
 213 618 l 1,13,-1
 213 436 l 1,14,-1
 382 436 l 2,15,16
 498 436 498 436 561 373 c 128,-1,17
 624 310 624 310 624 216 c 0,18,19
 624 124 624 124 561 62 c 128,-1,20
 498 0 498 0 392 0 c 2,21,-1
 77 0 l 1,9,-1
EndSplineSet
EndChar

StartChar: uni0183
Encoding: 387 387 325
Width: 584
GlyphClass: 2
Flags: W
LayerCount: 2
Fore
SplineSet
194 269 m 0,0,1
 194 188 194 188 225 141.5 c 128,-1,2
 256 95 256 95 308 95 c 0,3,4
 358 95 358 95 389 139.5 c 128,-1,5
 420 184 420 184 420 269 c 0,6,7
 420 350 420 350 390 396.5 c 128,-1,8
 360 443 360 443 308 443 c 0,9,10
 254 443 254 443 224 395 c 128,-1,11
 194 347 194 347 194 269 c 0,0,1
66 0 m 1,12,-1
 66 749 l 1,13,-1
 461 749 l 1,14,-1
 461 637 l 1,15,-1
 194 637 l 1,16,-1
 194 489 l 1,17,18
 204 502 204 502 218 515 c 128,-1,19
 232 528 232 528 262 541 c 128,-1,20
 292 554 292 554 326 554 c 0,21,22
 425 554 425 554 489.5 478 c 128,-1,23
 554 402 554 402 554 269 c 0,24,25
 554 195 554 195 533.5 137.5 c 128,-1,26
 513 80 513 80 479.5 48 c 128,-1,27
 446 16 446 16 407.5 0 c 128,-1,28
 369 -16 369 -16 328 -16 c 0,29,30
 281 -16 281 -16 244 7.5 c 128,-1,31
 207 31 207 31 192 61 c 1,32,-1
 192 0 l 1,33,-1
 66 0 l 1,12,-1
EndSplineSet
EndChar

StartChar: uni0184
Encoding: 388 388 326
Width: 660
GlyphClass: 2
Flags: W
LayerCount: 2
Fore
SplineSet
-14 659 m 1,0,-1
 139 735 l 1,1,-1
 213 735 l 1,2,-1
 213 435 l 1,3,-1
 383 435 l 2,4,5
 500 435 500 435 562.5 372.5 c 128,-1,6
 625 310 625 310 625 216 c 0,7,8
 625 125 625 125 563.5 62.5 c 128,-1,9
 502 0 502 0 394 0 c 2,10,-1
 77 0 l 1,11,-1
 77 587 l 1,12,-1
 -14 659 l 1,0,-1
213 116 m 1,13,-1
 374 116 l 2,14,15
 420 116 420 116 452 141 c 128,-1,16
 484 166 484 166 484 216 c 0,17,18
 484 259 484 259 456 289.5 c 128,-1,19
 428 320 428 320 373 320 c 2,20,-1
 213 320 l 1,21,-1
 213 116 l 1,13,-1
EndSplineSet
EndChar

StartChar: uni0185
Encoding: 389 389 327
Width: 584
GlyphClass: 2
Flags: W
LayerCount: 2
Fore
SplineSet
-18 680 m 1,0,-1
 125 759 l 1,1,-1
 194 759 l 1,2,-1
 194 489 l 1,3,4
 206 514 206 514 243 534 c 128,-1,5
 280 554 280 554 326 554 c 0,6,7
 426 554 426 554 490 478 c 128,-1,8
 554 402 554 402 554 269 c 0,9,10
 554 196 554 196 534 139 c 128,-1,11
 514 82 514 82 480.5 49 c 128,-1,12
 447 16 447 16 408 0 c 128,-1,13
 369 -16 369 -16 328 -16 c 0,14,15
 282 -16 282 -16 246 6.5 c 128,-1,16
 210 29 210 29 192 61 c 1,17,-1
 192 0 l 1,18,-1
 66 0 l 1,19,-1
 66 610 l 1,20,-1
 -18 680 l 1,0,-1
194 269 m 0,21,22
 194 188 194 188 225 141.5 c 128,-1,23
 256 95 256 95 308 95 c 0,24,25
 359 95 359 95 389.5 140.5 c 128,-1,26
 420 186 420 186 420 269 c 0,27,28
 420 348 420 348 391 395.5 c 128,-1,29
 362 443 362 443 308 443 c 0,30,31
 255 443 255 443 224.5 396 c 128,-1,32
 194 349 194 349 194 269 c 0,21,22
EndSplineSet
EndChar

StartChar: uni0186
Encoding: 390 390 328
Width: 666
GlyphClass: 2
Flags: W
LayerCount: 2
Fore
SplineSet
18 183 m 1,0,-1
 141 221 l 1,1,2
 160 171 160 171 203.5 135.5 c 128,-1,3
 247 100 247 100 303 100 c 0,4,5
 388 100 388 100 439.5 173 c 128,-1,6
 491 246 491 246 491 368 c 0,7,8
 491 489 491 489 440 562 c 128,-1,9
 389 635 389 635 303 635 c 0,10,11
 212 635 212 635 153 531 c 1,12,-1
 37 569 l 1,13,14
 69 647 69 647 137.5 699 c 128,-1,15
 206 751 206 751 302 751 c 0,16,17
 448 751 448 751 540 647.5 c 128,-1,18
 632 544 632 544 632 368 c 0,19,20
 632 188 632 188 539 86 c 128,-1,21
 446 -16 446 -16 302 -16 c 0,22,23
 243 -16 243 -16 193 2.5 c 128,-1,24
 143 21 143 21 109.5 52.5 c 128,-1,25
 76 84 76 84 54 116 c 128,-1,26
 32 148 32 148 18 183 c 1,0,-1
EndSplineSet
EndChar

StartChar: uni018B
Encoding: 395 395 333
Width: 657
GlyphClass: 2
Flags: W
LayerCount: 2
Fore
SplineSet
177 216 m 0,0,1
 177 166 177 166 208.5 141 c 128,-1,2
 240 116 240 116 286 116 c 2,3,-1
 446 116 l 1,4,-1
 446 321 l 1,5,-1
 288 321 l 2,6,7
 234 321 234 321 205.5 290 c 128,-1,8
 177 259 177 259 177 216 c 0,0,1
36 216 m 0,9,10
 36 311 36 311 98.5 373.5 c 128,-1,11
 161 436 161 436 277 436 c 2,12,-1
 446 436 l 1,13,-1
 446 618 l 1,14,-1
 121 618 l 1,15,-1
 121 735 l 1,16,-1
 582 735 l 1,17,-1
 582 0 l 1,18,-1
 266 0 l 2,19,20
 159 0 159 0 97.5 62 c 128,-1,21
 36 124 36 124 36 216 c 0,9,10
EndSplineSet
EndChar

StartChar: uni018C
Encoding: 396 396 334
Width: 584
GlyphClass: 2
Flags: W
LayerCount: 2
Fore
SplineSet
165 269 m 0,0,1
 165 184 165 184 196 139.5 c 128,-1,2
 227 95 227 95 278 95 c 0,3,4
 331 95 331 95 360.5 142.5 c 128,-1,5
 390 190 390 190 390 269 c 256,6,7
 390 348 390 348 360.5 395.5 c 128,-1,8
 331 443 331 443 278 443 c 0,9,10
 226 443 226 443 195.5 397 c 128,-1,11
 165 351 165 351 165 269 c 0,0,1
31 269 m 0,12,13
 31 402 31 402 95 478 c 128,-1,14
 159 554 159 554 259 554 c 0,15,16
 309 554 309 554 342 532 c 128,-1,17
 375 510 375 510 389 488 c 1,18,-1
 389 647 l 1,19,-1
 121 647 l 1,20,-1
 121 759 l 1,21,-1
 519 759 l 1,22,-1
 519 0 l 1,23,-1
 393 0 l 1,24,-1
 393 60 l 1,25,26
 375 30 375 30 340.5 7 c 128,-1,27
 306 -16 306 -16 258 -16 c 0,28,29
 217 -16 217 -16 178.5 0 c 128,-1,30
 140 16 140 16 106 48 c 128,-1,31
 72 80 72 80 51.5 137.5 c 128,-1,32
 31 195 31 195 31 269 c 0,12,13
EndSplineSet
EndChar

StartChar: uni018D
Encoding: 397 397 335
Width: 607
GlyphClass: 2
Flags: W
LayerCount: 2
Fore
SplineSet
165 321 m 256,0,1
 165 269 165 269 206.5 226 c 128,-1,2
 248 183 248 183 313 155 c 1,3,4
 372 183 372 183 408 226 c 128,-1,5
 444 269 444 269 444 320 c 0,6,7
 444 373 444 373 408.5 408.5 c 128,-1,8
 373 444 373 444 309 444 c 0,9,10
 241 444 241 444 203 408.5 c 128,-1,11
 165 373 165 373 165 321 c 256,0,1
31 318 m 0,12,13
 31 431 31 431 105.5 492.5 c 128,-1,14
 180 554 180 554 310 554 c 0,15,16
 436 554 436 554 507.5 489.5 c 128,-1,17
 579 425 579 425 579 324 c 0,18,19
 579 261 579 261 538.5 200 c 128,-1,20
 498 139 498 139 423 100 c 1,21,22
 465 74 465 74 487 36.5 c 128,-1,23
 509 -1 509 -1 509 -40 c 0,24,25
 509 -124 509 -124 443.5 -169.5 c 128,-1,26
 378 -215 378 -215 279 -215 c 0,27,28
 194 -215 194 -215 132.5 -179 c 128,-1,29
 71 -143 71 -143 39 -84 c 1,30,-1
 135 -32 l 1,31,32
 156 -62 156 -62 193.5 -83 c 128,-1,33
 231 -104 231 -104 278 -104 c 0,34,35
 322 -104 322 -104 348.5 -86.5 c 128,-1,36
 375 -69 375 -69 375 -43 c 0,37,38
 375 -30 375 -30 365.5 -17.5 c 128,-1,39
 356 -5 356 -5 331 10.5 c 128,-1,40
 306 26 306 26 290.5 34.5 c 128,-1,41
 275 43 275 43 236 63 c 0,42,43
 194 84 194 84 162 106 c 128,-1,44
 130 128 130 128 98 159 c 128,-1,45
 66 190 66 190 48.5 230.5 c 128,-1,46
 31 271 31 271 31 318 c 0,12,13
EndSplineSet
EndChar

StartChar: uni018E
Encoding: 398 398 336
Width: 601
GlyphClass: 2
Flags: W
LayerCount: 2
Fore
SplineSet
35 0 m 1,0,-1
 35 116 l 1,1,-1
 391 116 l 1,2,-1
 391 322 l 1,3,-1
 72 322 l 1,4,-1
 72 437 l 1,5,-1
 391 437 l 1,6,-1
 391 618 l 1,7,-1
 30 618 l 1,8,-1
 30 735 l 1,9,-1
 527 735 l 1,10,-1
 527 0 l 1,11,-1
 35 0 l 1,0,-1
EndSplineSet
EndChar

StartChar: uni018F
Encoding: 399 399 337
Width: 708
GlyphClass: 2
Flags: W
LayerCount: 2
Fore
SplineSet
35 364 m 0,0,1
 35 399 35 399 37 429 c 1,2,-1
 529 429 l 1,3,4
 519 529 519 529 469.5 582 c 128,-1,5
 420 635 420 635 347 635 c 0,6,7
 239 635 239 635 170 533 c 1,8,-1
 54 579 l 1,9,10
 96 664 96 664 172.5 707.5 c 128,-1,11
 249 751 249 751 350 751 c 0,12,13
 502 751 502 751 588 643 c 128,-1,14
 674 535 674 535 674 365 c 0,15,16
 674 196 674 196 583.5 90 c 128,-1,17
 493 -16 493 -16 350 -16 c 0,18,19
 208 -16 208 -16 121.5 87.5 c 128,-1,20
 35 191 35 191 35 364 c 0,0,1
178 312 m 1,21,22
 178 302 178 302 179 297 c 0,23,24
 187 214 187 214 230.5 157 c 128,-1,25
 274 100 274 100 352 100 c 0,26,27
 425 100 425 100 475.5 158 c 128,-1,28
 526 216 526 216 530 312 c 1,29,-1
 178 312 l 1,21,22
EndSplineSet
EndChar

StartChar: uni0190
Encoding: 400 400 338
Width: 613
GlyphClass: 2
Flags: W
LayerCount: 2
Fore
SplineSet
37 209 m 0,0,1
 37 278 37 278 76.5 323.5 c 128,-1,2
 116 369 116 369 166 387 c 1,3,4
 124 410 124 410 95 455 c 128,-1,5
 66 500 66 500 66 553 c 0,6,7
 66 643 66 643 133 697 c 128,-1,8
 200 751 200 751 308 751 c 0,9,10
 368 751 368 751 417 732.5 c 128,-1,11
 466 714 466 714 495.5 684.5 c 128,-1,12
 525 655 525 655 542.5 626.5 c 128,-1,13
 560 598 560 598 568 571 c 1,14,-1
 454 536 l 1,15,16
 404 639 404 639 316 639 c 0,17,18
 267 639 267 639 236 610.5 c 128,-1,19
 205 582 205 582 205 540 c 0,20,21
 205 491 205 491 246 461.5 c 128,-1,22
 287 432 287 432 336 432 c 0,23,24
 393 432 393 432 418 434 c 1,25,-1
 418 323 l 1,26,27
 378 326 378 326 336 326 c 0,28,29
 269 326 269 326 223.5 294 c 128,-1,30
 178 262 178 262 178 211 c 0,31,32
 178 154 178 154 218.5 124.5 c 128,-1,33
 259 95 259 95 320 95 c 0,34,35
 367 95 367 95 411.5 125 c 128,-1,36
 456 155 456 155 476 194 c 1,37,-1
 585 155 l 1,38,39
 555 74 555 74 483.5 29 c 128,-1,40
 412 -16 412 -16 312 -16 c 0,41,42
 187 -16 187 -16 112 44.5 c 128,-1,43
 37 105 37 105 37 209 c 0,0,1
EndSplineSet
EndChar

StartChar: uni0191
Encoding: 401 401 339
Width: 571
GlyphClass: 2
Flags: W
LayerCount: 2
Fore
SplineSet
-46 -98 m 1,0,1
 -9 -104 -9 -104 7 -104 c 0,2,3
 43 -104 43 -104 60 -79 c 128,-1,4
 77 -54 77 -54 77 2 c 2,5,-1
 77 735 l 1,6,-1
 551 735 l 1,7,-1
 551 618 l 1,8,-1
 212 618 l 1,9,-1
 212 425 l 1,10,-1
 517 425 l 1,11,-1
 517 310 l 1,12,-1
 212 310 l 1,13,-1
 212 2 l 2,14,15
 212 -61 212 -61 195.5 -107 c 128,-1,16
 179 -153 179 -153 151 -176 c 128,-1,17
 123 -199 123 -199 95 -209 c 128,-1,18
 67 -219 67 -219 35 -219 c 0,19,20
 -3 -219 -3 -219 -46 -211 c 1,21,-1
 -46 -98 l 1,0,1
EndSplineSet
EndChar

StartChar: florin
Encoding: 402 402 340
Width: 351
GlyphClass: 2
Flags: W
LayerCount: 2
Fore
SplineSet
-22 -98 m 1,0,1
 5 -104 5 -104 31 -104 c 0,2,3
 101 -104 101 -104 101 3 c 2,4,-1
 101 427 l 1,5,-1
 22 427 l 1,6,-1
 22 538 l 1,7,-1
 101 538 l 1,8,-1
 101 589 l 2,9,10
 101 673 101 673 142.5 716 c 128,-1,11
 184 759 184 759 261 759 c 2,12,-1
 352 759 l 1,13,-1
 352 646 l 1,14,-1
 281 646 l 2,15,16
 255 646 255 646 243.5 630.5 c 128,-1,17
 232 615 232 615 232 581 c 2,18,-1
 232 538 l 1,19,-1
 340 538 l 1,20,-1
 340 427 l 1,21,-1
 232 427 l 1,22,-1
 232 3 l 2,23,24
 232 -61 232 -61 216 -106.5 c 128,-1,25
 200 -152 200 -152 173 -175.5 c 128,-1,26
 146 -199 146 -199 117.5 -209 c 128,-1,27
 89 -219 89 -219 58 -219 c 0,28,29
 36 -219 36 -219 -22 -211 c 1,30,-1
 -22 -98 l 1,0,1
EndSplineSet
EndChar

StartChar: uni0194
Encoding: 404 404 342
Width: 645
GlyphClass: 2
Flags: W
LayerCount: 2
Fore
SplineSet
2 735 m 1,0,-1
 147 735 l 1,1,-1
 308 244 l 1,2,-1
 322 198 l 1,3,-1
 323 198 l 1,4,-1
 339 244 l 1,5,-1
 498 735 l 1,6,-1
 644 735 l 1,7,-1
 425 134 l 1,8,9
 512 32 512 32 512 -50 c 0,10,11
 512 -124 512 -124 458 -171.5 c 128,-1,12
 404 -219 404 -219 321 -219 c 0,13,14
 237 -219 237 -219 183.5 -173.5 c 128,-1,15
 130 -128 130 -128 130 -50 c 0,16,17
 130 -16 130 -16 149 25.5 c 128,-1,18
 168 67 168 67 181 84.5 c 128,-1,19
 194 102 194 102 220 134 c 1,20,-1
 2 735 l 1,0,-1
265 -45 m 0,21,22
 265 -73 265 -73 281 -91.5 c 128,-1,23
 297 -110 297 -110 321 -110 c 0,24,25
 347 -110 347 -110 362 -91.5 c 128,-1,26
 377 -73 377 -73 377 -44 c 0,27,28
 377 6 377 6 321 67 c 1,29,30
 265 10 265 10 265 -45 c 0,21,22
EndSplineSet
EndChar

StartChar: uni0195
Encoding: 405 405 343
Width: 877
GlyphClass: 2
Flags: W
LayerCount: 2
Fore
SplineSet
66 0 m 1,0,-1
 66 759 l 1,1,-1
 194 759 l 1,2,-1
 194 493 l 1,3,-1
 195 493 l 1,4,5
 246 554 246 554 329 554 c 0,6,7
 362 554 362 554 392.5 544.5 c 128,-1,8
 423 535 423 535 450 513 c 128,-1,9
 477 491 477 491 493.5 447.5 c 128,-1,10
 510 404 510 404 510 345 c 2,11,-1
 510 201 l 2,12,13
 510 152 510 152 530.5 123.5 c 128,-1,14
 551 95 551 95 604 95 c 0,15,16
 693 95 693 95 693 201 c 2,17,-1
 693 538 l 1,18,-1
 824 538 l 1,19,-1
 824 178 l 2,20,21
 824 127 824 127 805.5 88 c 128,-1,22
 787 49 787 49 755 27 c 128,-1,23
 723 5 723 5 685 -5.5 c 128,-1,24
 647 -16 647 -16 604 -16 c 0,25,26
 560 -16 560 -16 523 -7.5 c 128,-1,27
 486 1 486 1 452 21.5 c 128,-1,28
 418 42 418 42 399 81.5 c 128,-1,29
 380 121 380 121 380 177 c 2,30,-1
 380 331 l 2,31,32
 380 443 380 443 304 443 c 0,33,34
 257 443 257 443 225.5 402 c 128,-1,35
 194 361 194 361 194 305 c 2,36,-1
 194 0 l 1,37,-1
 66 0 l 1,0,-1
EndSplineSet
EndChar

StartChar: uni0196
Encoding: 406 406 344
Width: 361
GlyphClass: 2
Flags: W
LayerCount: 2
Fore
SplineSet
78 165 m 2,0,-1
 78 735 l 1,1,-1
 214 735 l 1,2,-1
 214 171 l 2,3,4
 214 133 214 133 227 116.5 c 128,-1,5
 240 100 240 100 272 100 c 0,6,7
 314 100 314 100 348 106 c 1,8,-1
 348 -7 l 1,9,10
 279 -16 279 -16 246 -16 c 0,11,12
 174 -16 174 -16 126 26 c 128,-1,13
 78 68 78 68 78 165 c 2,0,-1
EndSplineSet
EndChar

StartChar: uni0197
Encoding: 407 407 345
Width: 289
GlyphClass: 2
Flags: W
LayerCount: 2
Fore
SplineSet
10 315 m 1,0,-1
 10 422 l 1,1,-1
 77 422 l 1,2,-1
 77 735 l 1,3,-1
 213 735 l 1,4,-1
 213 422 l 1,5,-1
 280 422 l 1,6,-1
 280 315 l 1,7,-1
 213 315 l 1,8,-1
 213 0 l 1,9,-1
 77 0 l 1,10,-1
 77 315 l 1,11,-1
 10 315 l 1,0,-1
EndSplineSet
EndChar

StartChar: uni0198
Encoding: 408 408 346
Width: 655
GlyphClass: 2
Flags: W
LayerCount: 2
Fore
SplineSet
77 0 m 1,0,-1
 77 735 l 1,1,-1
 213 735 l 1,2,-1
 213 420 l 1,3,-1
 215 420 l 1,4,-1
 436 677 l 2,5,6
 500 751 500 751 604 751 c 0,7,8
 658 751 658 751 701 740 c 1,9,-1
 701 622 l 1,10,11
 656 635 656 635 609 635 c 0,12,13
 567 635 567 635 548 613 c 2,14,-1
 371 413 l 1,15,-1
 661 0 l 1,16,-1
 498 0 l 1,17,-1
 285 317 l 1,18,-1
 213 235 l 1,19,-1
 213 0 l 1,20,-1
 77 0 l 1,0,-1
EndSplineSet
EndChar

StartChar: uni0199
Encoding: 409 409 347
Width: 533
GlyphClass: 2
Flags: W
LayerCount: 2
Fore
SplineSet
66 0 m 1,0,-1
 66 619 l 2,1,2
 66 703 66 703 118 747.5 c 128,-1,3
 170 792 170 792 251 792 c 0,4,5
 287 792 287 792 349 787 c 1,6,-1
 349 672 l 1,7,8
 317 677 317 677 276 677 c 0,9,10
 242 677 242 677 218.5 654 c 128,-1,11
 195 631 195 631 195 593 c 2,12,-1
 195 341 l 1,13,-1
 373 538 l 1,14,-1
 536 538 l 1,15,-1
 335 318 l 1,16,-1
 546 0 l 1,17,-1
 394 0 l 1,18,-1
 251 226 l 1,19,-1
 195 165 l 1,20,-1
 195 0 l 1,21,-1
 66 0 l 1,0,-1
EndSplineSet
EndChar

StartChar: uni019A
Encoding: 410 410 348
Width: 268
GlyphClass: 2
Flags: W
LayerCount: 2
Fore
SplineSet
-9 372 m 1,0,-1
 -9 479 l 1,1,-1
 69 479 l 1,2,-1
 69 759 l 1,3,-1
 200 759 l 1,4,-1
 200 479 l 1,5,-1
 278 479 l 1,6,-1
 278 372 l 1,7,-1
 200 372 l 1,8,-1
 200 0 l 1,9,-1
 69 0 l 1,10,-1
 69 372 l 1,11,-1
 -9 372 l 1,0,-1
EndSplineSet
EndChar

StartChar: uni019B
Encoding: 411 411 349
Width: 527
GlyphClass: 2
Flags: W
LayerCount: 2
Fore
SplineSet
5 0 m 1,0,-1
 205 519 l 1,1,-1
 198 536 l 1,2,-1
 93 455 l 1,3,-1
 32 536 l 1,4,-1
 146 621 l 1,5,6
 126 643 126 643 79 643 c 2,7,-1
 58 643 l 1,8,-1
 58 753 l 1,9,-1
 100 753 l 2,10,11
 192 753 192 753 247 694 c 1,12,-1
 346 765 l 1,13,-1
 408 684 l 1,14,-1
 299 609 l 1,15,-1
 522 0 l 1,16,-1
 381 0 l 1,17,-1
 302 264 l 2,18,19
 301 268 301 268 288.5 315 c 128,-1,20
 276 362 276 362 270 385 c 1,21,-1
 268 385 l 1,22,23
 259 350 259 350 235 264 c 1,24,-1
 148 0 l 1,25,-1
 5 0 l 1,0,-1
EndSplineSet
EndChar

StartChar: uni019C
Encoding: 412 412 350
Width: 960
GlyphClass: 2
Flags: W
LayerCount: 2
Fore
SplineSet
76 258 m 2,0,-1
 76 735 l 1,1,-1
 211 735 l 1,2,-1
 211 242 l 2,3,4
 211 100 211 100 292 100 c 0,5,6
 346 100 346 100 379.5 152.5 c 128,-1,7
 413 205 413 205 413 277 c 2,8,-1
 413 735 l 1,9,-1
 549 735 l 1,10,-1
 549 236 l 2,11,12
 549 160 549 160 573 130 c 128,-1,13
 597 100 597 100 631 100 c 0,14,15
 687 100 687 100 718.5 148.5 c 128,-1,16
 750 197 750 197 750 276 c 2,17,-1
 750 735 l 1,18,-1
 884 735 l 1,19,-1
 884 0 l 1,20,-1
 755 0 l 1,21,-1
 755 65 l 1,22,-1
 754 65 l 1,23,24
 729 26 729 26 686.5 4.5 c 128,-1,25
 644 -17 644 -17 601 -17 c 0,26,27
 537 -17 537 -17 501 8 c 128,-1,28
 465 33 465 33 446 81 c 1,29,30
 423 37 423 37 376.5 10.5 c 128,-1,31
 330 -16 330 -16 262 -16 c 0,32,33
 207 -16 207 -16 169 5 c 128,-1,34
 131 26 131 26 111.5 65.5 c 128,-1,35
 92 105 92 105 84 151.5 c 128,-1,36
 76 198 76 198 76 258 c 2,0,-1
EndSplineSet
EndChar

StartChar: uni019D
Encoding: 413 413 351
Width: 705
GlyphClass: 2
Flags: W
LayerCount: 2
Fore
SplineSet
77 735 m 1,0,-1
 216 735 l 1,1,-1
 434 335 l 1,2,-1
 502 205 l 1,3,-1
 507 205 l 1,4,5
 493 361 493 361 493 417 c 2,6,-1
 493 735 l 1,7,-1
 629 735 l 1,8,-1
 629 0 l 1,9,-1
 489 0 l 1,10,-1
 271 394 l 1,11,-1
 203 529 l 1,12,-1
 198 529 l 1,13,14
 213 404 213 404 213 315 c 2,15,-1
 213 4 l 2,16,17
 213 -47 213 -47 201.5 -87.5 c 128,-1,18
 190 -128 190 -128 172 -152 c 128,-1,19
 154 -176 154 -176 129.5 -191.5 c 128,-1,20
 105 -207 105 -207 81.5 -213 c 128,-1,21
 58 -219 58 -219 34 -219 c 0,22,23
 -2 -219 -2 -219 -45 -211 c 1,24,-1
 -45 -98 l 1,25,26
 -22 -103 -22 -103 6 -103 c 0,27,28
 42 -103 42 -103 59.5 -77.5 c 128,-1,29
 77 -52 77 -52 77 5 c 2,30,-1
 77 735 l 1,0,-1
EndSplineSet
EndChar

StartChar: uni019E
Encoding: 414 414 352
Width: 571
GlyphClass: 2
Flags: W
LayerCount: 2
Fore
SplineSet
60 0 m 1,0,-1
 60 538 l 1,1,-1
 185 538 l 1,2,-1
 185 480 l 1,3,-1
 187 480 l 1,4,5
 233 554 233 554 330 554 c 0,6,7
 506 554 506 554 506 345 c 2,8,-1
 506 -215 l 1,9,-1
 376 -215 l 1,10,-1
 376 330 l 2,11,12
 376 443 376 443 300 443 c 0,13,14
 253 443 253 443 222 404.5 c 128,-1,15
 191 366 191 366 191 309 c 2,16,-1
 191 0 l 1,17,-1
 60 0 l 1,0,-1
EndSplineSet
EndChar

StartChar: uni019F
Encoding: 415 415 353
Width: 708
GlyphClass: 2
Flags: W
LayerCount: 2
Fore
SplineSet
36 367 m 256,0,1
 36 540 36 540 123.5 645.5 c 128,-1,2
 211 751 211 751 354 751 c 0,3,4
 498 751 498 751 585.5 645.5 c 128,-1,5
 673 540 673 540 673 367 c 256,6,7
 673 194 673 194 585.5 89 c 128,-1,8
 498 -16 498 -16 354 -16 c 256,9,10
 210 -16 210 -16 123 89 c 128,-1,11
 36 194 36 194 36 367 c 256,0,1
529 309 m 1,12,-1
 179 309 l 1,13,14
 191 210 191 210 236 155 c 128,-1,15
 281 100 281 100 354 100 c 256,16,17
 427 100 427 100 473 155.5 c 128,-1,18
 519 211 519 211 529 309 c 1,12,-1
179 415 m 1,19,-1
 530 415 l 1,20,21
 519 518 519 518 474 576.5 c 128,-1,22
 429 635 429 635 354 635 c 256,23,24
 279 635 279 635 234 577 c 128,-1,25
 189 519 189 519 179 415 c 1,19,-1
EndSplineSet
EndChar

StartChar: uni01A2
Encoding: 418 418 356
Width: 959
GlyphClass: 2
Flags: W
LayerCount: 2
Fore
SplineSet
36 366 m 0,0,1
 36 540 36 540 123 645.5 c 128,-1,2
 210 751 210 751 352 751 c 0,3,4
 387 751 387 751 490 731 c 128,-1,5
 593 711 593 711 646 711 c 0,6,7
 763 711 763 711 884 735 c 1,8,-1
 884 0 l 1,9,-1
 749 0 l 1,10,-1
 749 603 l 1,11,12
 709 594 709 594 646 594 c 0,13,14
 614 594 614 594 561 602 c 1,15,-1
 561 63 l 1,16,17
 476 -16 476 -16 352 -16 c 0,18,19
 209 -16 209 -16 122.5 89 c 128,-1,20
 36 194 36 194 36 366 c 0,0,1
176 366 m 0,21,22
 176 243 176 243 222.5 171.5 c 128,-1,23
 269 100 269 100 352 100 c 0,24,25
 388 100 388 100 425 118 c 1,26,-1
 425 622 l 1,27,28
 384 635 384 635 352 635 c 0,29,30
 270 635 270 635 223 562.5 c 128,-1,31
 176 490 176 490 176 366 c 0,21,22
EndSplineSet
EndChar

StartChar: uni01A3
Encoding: 419 419 357
Width: 753
GlyphClass: 2
Flags: W
LayerCount: 2
Fore
SplineSet
31 268 m 0,0,1
 31 402 31 402 98 478 c 128,-1,2
 165 554 165 554 280 554 c 0,3,4
 320 554 320 554 397 540 c 128,-1,5
 474 526 474 526 507 526 c 0,6,7
 598 526 598 526 694 545 c 1,8,-1
 694 0 l 1,9,-1
 564 0 l 1,10,-1
 564 417 l 1,11,12
 542 414 542 414 506 414 c 0,13,14
 476 414 476 414 450 417 c 1,15,-1
 450 49 l 1,16,17
 387 -16 387 -16 280 -16 c 0,18,19
 164 -16 164 -16 97.5 60 c 128,-1,20
 31 136 31 136 31 268 c 0,0,1
165 268 m 0,21,22
 165 185 165 185 196.5 140 c 128,-1,23
 228 95 228 95 280 95 c 0,24,25
 295 95 295 95 320 112 c 1,26,-1
 320 437 l 1,27,28
 292 443 292 443 280 443 c 0,29,30
 226 443 226 443 195.5 397.5 c 128,-1,31
 165 352 165 352 165 268 c 0,21,22
EndSplineSet
EndChar

StartChar: uni01A5
Encoding: 421 421 359
Width: 584
GlyphClass: 2
Flags: W
LayerCount: 2
Fore
SplineSet
194 269 m 0,0,1
 194 189 194 189 224 142 c 128,-1,2
 254 95 254 95 307 95 c 0,3,4
 359 95 359 95 389.5 141 c 128,-1,5
 420 187 420 187 420 269 c 0,6,7
 420 348 420 348 391 395.5 c 128,-1,8
 362 443 362 443 307 443 c 0,9,10
 253 443 253 443 223.5 395 c 128,-1,11
 194 347 194 347 194 269 c 0,0,1
66 -215 m 1,12,-1
 66 592 l 2,13,14
 66 677 66 677 118 721.5 c 128,-1,15
 170 766 170 766 250 766 c 0,16,17
 282 766 282 766 344 761 c 1,18,-1
 344 646 l 1,19,20
 314 649 314 649 274 649 c 0,21,22
 240 649 240 649 217 627 c 128,-1,23
 194 605 194 605 194 568 c 2,24,-1
 194 483 l 1,25,26
 243 554 243 554 326 554 c 0,27,28
 424 554 424 554 489 477.5 c 128,-1,29
 554 401 554 401 554 269 c 0,30,31
 554 194 554 194 533 136.5 c 128,-1,32
 512 79 512 79 477.5 47 c 128,-1,33
 443 15 443 15 404.5 -0.5 c 128,-1,34
 366 -16 366 -16 326 -16 c 0,35,36
 274 -16 274 -16 242 5 c 128,-1,37
 210 26 210 26 195 52 c 1,38,-1
 195 -215 l 1,39,-1
 66 -215 l 1,12,-1
EndSplineSet
EndChar

StartChar: uni01A6
Encoding: 422 422 360
Width: 663
GlyphClass: 2
Flags: W
LayerCount: 2
Fore
SplineSet
208 326 m 1,0,-1
 353 326 l 2,1,2
 468 326 468 326 468 435 c 0,3,4
 468 530 468 530 353 530 c 2,5,-1
 208 530 l 1,6,-1
 208 326 l 1,0,-1
72 0 m 1,7,-1
 72 735 l 1,8,-1
 208 735 l 1,9,-1
 208 646 l 1,10,-1
 377 646 l 2,11,12
 490 646 490 646 549 588.5 c 128,-1,13
 608 531 608 531 608 446 c 0,14,15
 608 323 608 323 499 264 c 1,16,17
 525 245 525 245 539.5 224 c 128,-1,18
 554 203 554 203 559 186 c 128,-1,19
 564 169 564 169 571 133 c 0,20,21
 596 15 596 15 655 -86 c 1,22,-1
 502 -86 l 1,23,24
 495 -74 495 -74 488 -61 c 128,-1,25
 481 -48 481 -48 475.5 -34.5 c 128,-1,26
 470 -21 470 -21 465.5 -10.5 c 128,-1,27
 461 0 461 0 456.5 15 c 128,-1,28
 452 30 452 30 449 38.5 c 128,-1,29
 446 47 446 47 442.5 62.5 c 128,-1,30
 439 78 439 78 437.5 83.5 c 128,-1,31
 436 89 436 89 432.5 105 c 128,-1,32
 429 121 429 121 428 123 c 0,33,34
 417 172 417 172 402.5 192 c 128,-1,35
 388 212 388 212 351 212 c 2,36,-1
 208 212 l 1,37,-1
 208 0 l 1,38,-1
 72 0 l 1,7,-1
EndSplineSet
EndChar

StartChar: uni01A7
Encoding: 423 423 361
Width: 605
GlyphClass: 2
Flags: W
LayerCount: 2
Fore
SplineSet
26 203 m 0,0,1
 26 248 26 248 42.5 284.5 c 128,-1,2
 59 321 59 321 90 346 c 128,-1,3
 121 371 121 371 152.5 386.5 c 128,-1,4
 184 402 184 402 226 415 c 0,5,6
 237 419 237 419 258.5 426 c 128,-1,7
 280 433 280 433 290.5 436 c 128,-1,8
 301 439 301 439 319.5 446 c 128,-1,9
 338 453 338 453 348 458 c 128,-1,10
 358 463 358 463 371.5 470 c 128,-1,11
 385 477 385 477 392.5 484.5 c 128,-1,12
 400 492 400 492 407.5 501.5 c 128,-1,13
 415 511 415 511 418 522 c 128,-1,14
 421 533 421 533 421 546 c 0,15,16
 421 586 421 586 389 610.5 c 128,-1,17
 357 635 357 635 301 635 c 0,18,19
 212 635 212 635 147 551 c 1,20,-1
 33 589 l 1,21,22
 67 660 67 660 135.5 705.5 c 128,-1,23
 204 751 204 751 300 751 c 0,24,25
 416 751 416 751 489 694.5 c 128,-1,26
 562 638 562 638 562 546 c 0,27,28
 562 505 562 505 546.5 471 c 128,-1,29
 531 437 531 437 515 418 c 128,-1,30
 499 399 499 399 458.5 378 c 128,-1,31
 418 357 418 357 401 350.5 c 128,-1,32
 384 344 384 344 333 328 c 0,33,34
 321 323 321 323 315 321 c 0,35,36
 280 310 280 310 258 300 c 128,-1,37
 236 290 236 290 213 275.5 c 128,-1,38
 190 261 190 261 179 241.5 c 128,-1,39
 168 222 168 222 168 197 c 0,40,41
 168 155 168 155 202.5 127 c 128,-1,42
 237 99 237 99 293 99 c 0,43,44
 345 99 345 99 395 128.5 c 128,-1,45
 445 158 445 158 469 202 c 1,46,-1
 587 162 l 1,47,48
 551 80 551 80 472.5 32 c 128,-1,49
 394 -16 394 -16 296 -16 c 0,50,51
 179 -16 179 -16 102.5 41.5 c 128,-1,52
 26 99 26 99 26 203 c 0,0,1
EndSplineSet
EndChar

StartChar: uni01A8
Encoding: 424 424 362
Width: 489
GlyphClass: 2
Flags: W
LayerCount: 2
Fore
SplineSet
27 150 m 0,0,1
 27 184 27 184 41 210.5 c 128,-1,2
 55 237 55 237 80.5 255.5 c 128,-1,3
 106 274 106 274 129.5 285.5 c 128,-1,4
 153 297 153 297 186 309 c 0,5,6
 193 310 193 310 207.5 315 c 128,-1,7
 222 320 222 320 229 322 c 128,-1,8
 236 324 236 324 247.5 328.5 c 128,-1,9
 259 333 259 333 265.5 336.5 c 128,-1,10
 272 340 272 340 281 344.5 c 128,-1,11
 290 349 290 349 294.5 353.5 c 128,-1,12
 299 358 299 358 304.5 364 c 128,-1,13
 310 370 310 370 311.5 376.5 c 128,-1,14
 313 383 313 383 313 391 c 0,15,16
 313 416 313 416 293 430 c 128,-1,17
 273 444 273 444 240 444 c 0,18,19
 171 444 171 444 115 376 c 1,20,-1
 27 429 l 1,21,22
 58 484 58 484 114.5 519 c 128,-1,23
 171 554 171 554 243 554 c 0,24,25
 329 554 329 554 387.5 510 c 128,-1,26
 446 466 446 466 446 390 c 0,27,28
 446 328 446 328 404 292.5 c 128,-1,29
 362 257 362 257 293 235 c 0,30,31
 285 232 285 232 266 226 c 128,-1,32
 247 220 247 220 238 217 c 128,-1,33
 229 214 229 214 214 208 c 128,-1,34
 199 202 199 202 191.5 197 c 128,-1,35
 184 192 184 192 175.5 184.5 c 128,-1,36
 167 177 167 177 164 168.5 c 128,-1,37
 161 160 161 160 161 150 c 0,38,39
 161 124 161 124 181.5 109 c 128,-1,40
 202 94 202 94 236 94 c 0,41,42
 319 94 319 94 375 169 c 1,43,-1
 468 115 l 1,44,45
 436 58 436 58 375 21 c 128,-1,46
 314 -16 314 -16 236 -16 c 0,47,48
 132 -16 132 -16 79.5 31.5 c 128,-1,49
 27 79 27 79 27 150 c 0,0,1
EndSplineSet
EndChar

StartChar: uni01A9
Encoding: 425 425 363
Width: 621
GlyphClass: 2
Flags: W
LayerCount: 2
Fore
SplineSet
71 0 m 1,0,-1
 71 88 l 1,1,-1
 326 369 l 1,2,-1
 71 646 l 1,3,-1
 71 735 l 1,4,-1
 572 735 l 1,5,-1
 572 617 l 1,6,-1
 263 617 l 1,7,-1
 480 369 l 1,8,-1
 263 116 l 1,9,-1
 579 116 l 1,10,-1
 579 0 l 1,11,-1
 71 0 l 1,0,-1
EndSplineSet
EndChar

StartChar: uni01AA
Encoding: 426 426 364
Width: 448
GlyphClass: 2
Flags: W
LayerCount: 2
Fore
SplineSet
59 593 m 0,0,1
 59 567 59 567 75.5 552.5 c 128,-1,2
 92 538 92 538 113 538 c 0,3,4
 149 538 149 538 173 560 c 1,5,6
 173 601 173 601 158 624.5 c 128,-1,7
 143 648 143 648 115 648 c 0,8,9
 91 648 91 648 75 632.5 c 128,-1,10
 59 617 59 617 59 593 c 0,0,1
-62 588 m 0,11,12
 -62 661 -62 661 -12.5 706 c 128,-1,13
 37 751 37 751 119 751 c 0,14,15
 205 751 205 751 252 698 c 128,-1,16
 299 645 299 645 299 551 c 2,17,-1
 299 -30 l 2,18,19
 299 -104 299 -104 362 -104 c 0,20,21
 377 -104 377 -104 437 -96 c 1,22,-1
 437 -210 l 1,23,24
 349 -219 349 -219 335 -219 c 0,25,26
 263 -219 263 -219 216 -177 c 128,-1,27
 169 -135 169 -135 169 -39 c 2,28,-1
 169 453 l 1,29,30
 148 433 148 433 93 433 c 0,31,32
 26 433 26 433 -18 476.5 c 128,-1,33
 -62 520 -62 520 -62 588 c 0,11,12
EndSplineSet
EndChar

StartChar: uni01AB
Encoding: 427 427 365
Width: 371
GlyphClass: 2
Flags: W
LayerCount: 2
Fore
SplineSet
16 427 m 1,0,-1
 16 538 l 1,1,-1
 96 538 l 1,2,-1
 96 694 l 1,3,-1
 226 694 l 1,4,-1
 226 538 l 1,5,-1
 342 538 l 1,6,-1
 342 427 l 1,7,-1
 226 427 l 1,8,-1
 226 177 l 2,9,10
 226 111 226 111 283 111 c 0,11,12
 312 111 312 111 351 117 c 1,13,-1
 351 14 l 2,14,15
 351 -100 351 -100 302.5 -159.5 c 128,-1,16
 254 -219 254 -219 166 -219 c 0,17,18
 122 -219 122 -219 86 -212 c 1,19,-1
 86 -97 l 1,20,21
 130 -104 130 -104 151 -104 c 0,22,23
 182 -104 182 -104 203 -81 c 128,-1,24
 224 -58 224 -58 224 -7 c 1,25,-1
 225 5 l 1,26,27
 184 15 184 15 178 17 c 0,28,29
 96 53 96 53 96 168 c 2,30,-1
 96 427 l 1,31,-1
 16 427 l 1,0,-1
EndSplineSet
EndChar

StartChar: uni01AC
Encoding: 428 428 366
Width: 632
GlyphClass: 2
Flags: W
LayerCount: 2
Fore
SplineSet
-38 561 m 0,0,1
 -38 651 -38 651 21.5 693 c 128,-1,2
 81 735 81 735 170 735 c 2,3,-1
 623 735 l 1,4,-1
 623 618 l 1,5,-1
 415 618 l 1,6,-1
 415 0 l 1,7,-1
 278 0 l 1,8,-1
 278 618 l 1,9,-1
 170 618 l 2,10,11
 127 618 127 618 104.5 599.5 c 128,-1,12
 82 581 82 581 82 551 c 0,13,14
 82 527 82 527 88 499 c 1,15,-1
 -31 499 l 1,16,17
 -38 529 -38 529 -38 561 c 0,0,1
EndSplineSet
EndChar

StartChar: uni01AD
Encoding: 429 429 367
Width: 371
GlyphClass: 2
Flags: W
LayerCount: 2
Fore
SplineSet
16 427 m 1,0,-1
 16 538 l 1,1,-1
 96 538 l 1,2,-1
 96 586 l 2,3,4
 96 670 96 670 148 715 c 128,-1,5
 200 760 200 760 281 760 c 0,6,7
 326 760 326 760 378 755 c 1,8,-1
 378 640 l 1,9,10
 352 644 352 644 306 644 c 0,11,12
 269 644 269 644 247.5 623.5 c 128,-1,13
 226 603 226 603 226 569 c 2,14,-1
 226 538 l 1,15,-1
 342 538 l 1,16,-1
 342 427 l 1,17,-1
 226 427 l 1,18,-1
 226 177 l 2,19,20
 226 111 226 111 283 111 c 2,21,-1
 343 111 l 1,22,-1
 343 0 l 1,23,-1
 267 0 l 2,24,25
 96 0 96 0 96 168 c 2,26,-1
 96 427 l 1,27,-1
 16 427 l 1,0,-1
EndSplineSet
EndChar

StartChar: uni01AE
Encoding: 430 430 368
Width: 571
GlyphClass: 2
Flags: W
LayerCount: 2
Fore
SplineSet
10 618 m 1,0,-1
 10 735 l 1,1,-1
 562 735 l 1,2,-1
 562 618 l 1,3,-1
 354 618 l 1,4,-1
 354 0 l 2,5,6
 354 -104 354 -104 425 -104 c 0,7,8
 437 -104 437 -104 476 -98 c 1,9,-1
 476 -211 l 1,10,11
 418 -219 418 -219 397 -219 c 0,12,13
 365 -219 365 -219 336.5 -209.5 c 128,-1,14
 308 -200 308 -200 280 -177 c 128,-1,15
 252 -154 252 -154 235 -108.5 c 128,-1,16
 218 -63 218 -63 218 0 c 2,17,-1
 218 618 l 1,18,-1
 10 618 l 1,0,-1
EndSplineSet
EndChar

StartChar: uni01B1
Encoding: 433 433 371
Width: 730
GlyphClass: 2
Flags: W
LayerCount: 2
Fore
SplineSet
36 308 m 0,0,1
 36 410 36 410 86.5 484 c 128,-1,2
 137 558 137 558 230 593 c 1,3,-1
 230 618 l 1,4,-1
 49 618 l 1,5,-1
 49 735 l 1,6,-1
 331 735 l 1,7,-1
 331 519 l 1,8,9
 253 498 253 498 216 440.5 c 128,-1,10
 179 383 179 383 179 308 c 0,11,12
 179 223 179 223 229 162.5 c 128,-1,13
 279 102 279 102 365 102 c 0,14,15
 449 102 449 102 501 162 c 128,-1,16
 553 222 553 222 553 308 c 0,17,18
 553 380 553 380 516 438.5 c 128,-1,19
 479 497 479 497 401 519 c 1,20,-1
 401 735 l 1,21,-1
 682 735 l 1,22,-1
 682 618 l 1,23,-1
 501 618 l 1,24,-1
 501 593 l 1,25,26
 594 560 594 560 645 485 c 128,-1,27
 696 410 696 410 696 308 c 0,28,29
 696 166 696 166 607 75 c 128,-1,30
 518 -16 518 -16 365 -16 c 0,31,32
 214 -16 214 -16 125 75 c 128,-1,33
 36 166 36 166 36 308 c 0,0,1
EndSplineSet
EndChar

StartChar: uni01B2
Encoding: 434 434 372
Width: 712
GlyphClass: 2
Flags: W
LayerCount: 2
Fore
SplineSet
74 264 m 2,0,-1
 74 735 l 1,1,-1
 210 735 l 1,2,-1
 210 278 l 2,3,4
 210 176 210 176 240 138 c 128,-1,5
 270 100 270 100 330 100 c 0,6,7
 410 100 410 100 473.5 190 c 128,-1,8
 537 280 537 280 537 418 c 0,9,10
 537 527 537 527 509 581 c 128,-1,11
 481 635 481 635 436 635 c 0,12,13
 401 635 401 635 355 620 c 1,14,-1
 355 741 l 1,15,16
 404 751 404 751 456 751 c 0,17,18
 565 751 565 751 621.5 665.5 c 128,-1,19
 678 580 678 580 678 420 c 0,20,21
 678 336 678 336 654 258 c 128,-1,22
 630 180 630 180 586 119 c 128,-1,23
 542 58 542 58 475.5 21 c 128,-1,24
 409 -16 409 -16 330 -16 c 0,25,26
 197 -16 197 -16 135.5 52.5 c 128,-1,27
 74 121 74 121 74 264 c 2,0,-1
EndSplineSet
EndChar

StartChar: uni01B3
Encoding: 435 435 373
Width: 638
GlyphClass: 2
Flags: W
LayerCount: 2
Fore
SplineSet
-2 735 m 1,0,-1
 153 735 l 1,1,-1
 264 513 l 2,2,3
 278 487 278 487 318 402 c 1,4,-1
 322 402 l 1,5,6
 357 475 357 475 377 515 c 2,7,-1
 439 638 l 2,8,9
 494 751 494 751 589 751 c 0,10,11
 621 751 621 751 662 747 c 1,12,-1
 662 631 l 1,13,14
 641 635 641 635 607 635 c 0,15,16
 583 635 583 635 544 566 c 2,17,-1
 388 298 l 1,18,-1
 388 0 l 1,19,-1
 252 0 l 1,20,-1
 252 298 l 1,21,-1
 -2 735 l 1,0,-1
EndSplineSet
EndChar

StartChar: uni01B4
Encoding: 436 436 374
Width: 526
GlyphClass: 2
Flags: W
LayerCount: 2
Fore
SplineSet
6 538 m 1,0,-1
 148 538 l 1,1,-1
 233 274 l 2,2,3
 261 174 261 174 268 152 c 1,4,-1
 270 152 l 1,5,6
 287 217 287 217 303 273 c 2,7,-1
 358 458 l 2,8,9
 383 551 383 551 498 551 c 0,10,11
 509 551 509 551 574 542 c 1,12,-1
 574 425 l 1,13,14
 547 434 547 434 524 434 c 0,15,16
 484 434 484 434 472 400 c 2,17,-1
 305 -57 l 2,18,19
 275 -142 275 -142 225 -178.5 c 128,-1,20
 175 -215 175 -215 102 -215 c 2,21,-1
 61 -215 l 1,22,-1
 61 -106 l 1,23,-1
 80 -106 l 2,24,25
 121 -106 121 -106 147.5 -87.5 c 128,-1,26
 174 -69 174 -69 189 -26 c 2,27,-1
 205 19 l 1,28,-1
 6 538 l 1,0,-1
EndSplineSet
EndChar

StartChar: uni01B5
Encoding: 437 437 375
Width: 601
GlyphClass: 2
Flags: W
LayerCount: 2
Fore
SplineSet
82 309 m 1,0,-1
 82 415 l 1,1,-1
 255 415 l 1,2,-1
 399 618 l 1,3,-1
 58 618 l 1,4,-1
 58 735 l 1,5,-1
 567 735 l 1,6,-1
 567 634 l 1,7,-1
 412 415 l 1,8,-1
 502 415 l 1,9,-1
 502 309 l 1,10,-1
 333 309 l 1,11,-1
 196 116 l 1,12,-1
 577 116 l 1,13,-1
 577 0 l 1,14,-1
 27 0 l 1,15,-1
 27 99 l 1,16,-1
 177 309 l 1,17,-1
 82 309 l 1,0,-1
EndSplineSet
EndChar

StartChar: uni01B6
Encoding: 438 438 376
Width: 492
GlyphClass: 2
Flags: W
LayerCount: 2
Fore
SplineSet
22 0 m 1,0,-1
 22 86 l 1,1,-1
 127 220 l 1,2,-1
 59 220 l 1,3,-1
 59 327 l 1,4,-1
 211 327 l 1,5,-1
 289 427 l 1,6,-1
 43 427 l 1,7,-1
 43 538 l 1,8,-1
 460 538 l 1,9,-1
 460 456 l 1,10,-1
 358 327 l 1,11,-1
 429 327 l 1,12,-1
 429 220 l 1,13,-1
 275 220 l 1,14,-1
 191 111 l 1,15,-1
 471 111 l 1,16,-1
 471 0 l 1,17,-1
 22 0 l 1,0,-1
EndSplineSet
EndChar

StartChar: uni01B7
Encoding: 439 439 377
Width: 699
GlyphClass: 2
Flags: W
LayerCount: 2
Fore
SplineSet
45 5 m 1,0,-1
 163 49 l 1,1,2
 180 -12 180 -12 225.5 -56 c 128,-1,3
 271 -100 271 -100 345 -100 c 0,4,5
 424 -100 424 -100 471.5 -47.5 c 128,-1,6
 519 5 519 5 519 90 c 0,7,8
 519 178 519 178 463 233 c 128,-1,9
 407 288 407 288 315 288 c 2,10,-1
 206 288 l 1,11,-1
 206 392 l 1,12,-1
 408 618 l 1,13,-1
 79 618 l 1,14,-1
 79 735 l 1,15,-1
 614 735 l 1,16,-1
 614 656 l 1,17,-1
 381 400 l 1,18,-1
 393 398 l 2,19,20
 511 379 511 379 585 297.5 c 128,-1,21
 659 216 659 216 659 90 c 0,22,23
 659 -44 659 -44 572.5 -130 c 128,-1,24
 486 -216 486 -216 349 -216 c 0,25,26
 282 -216 282 -216 228 -197 c 128,-1,27
 174 -178 174 -178 138.5 -144 c 128,-1,28
 103 -110 103 -110 80.5 -73.5 c 128,-1,29
 58 -37 58 -37 45 5 c 1,0,-1
EndSplineSet
EndChar

StartChar: uni01B8
Encoding: 440 440 378
Width: 699
GlyphClass: 2
Flags: W
LayerCount: 2
Fore
SplineSet
40 90 m 0,0,1
 40 216 40 216 115.5 299 c 128,-1,2
 191 382 191 382 307 398 c 2,3,-1
 319 400 l 1,4,-1
 86 656 l 1,5,-1
 86 735 l 1,6,-1
 621 735 l 1,7,-1
 621 618 l 1,8,-1
 291 618 l 1,9,-1
 493 392 l 1,10,-1
 493 288 l 1,11,-1
 385 288 l 2,12,13
 293 288 293 288 237 233 c 128,-1,14
 181 178 181 178 181 90 c 0,15,16
 181 5 181 5 228.5 -47.5 c 128,-1,17
 276 -100 276 -100 354 -100 c 0,18,19
 428 -100 428 -100 473.5 -56 c 128,-1,20
 519 -12 519 -12 537 49 c 1,21,-1
 656 5 l 1,22,23
 642 -37 642 -37 619.5 -73.5 c 128,-1,24
 597 -110 597 -110 561.5 -144 c 128,-1,25
 526 -178 526 -178 471.5 -197 c 128,-1,26
 417 -216 417 -216 351 -216 c 0,27,28
 214 -216 214 -216 127 -130 c 128,-1,29
 40 -44 40 -44 40 90 c 0,0,1
EndSplineSet
EndChar

StartChar: uni01B9
Encoding: 441 441 379
Width: 588
GlyphClass: 2
Flags: W
LayerCount: 2
Fore
SplineSet
37 34 m 0,0,1
 37 123 37 123 96.5 192.5 c 128,-1,2
 156 262 156 262 246 273 c 2,3,-1
 253 274 l 1,4,-1
 72 458 l 1,5,-1
 72 538 l 1,6,-1
 519 538 l 1,7,-1
 519 427 l 1,8,-1
 266 427 l 1,9,-1
 417 266 l 1,10,-1
 417 177 l 1,11,-1
 320 177 l 2,12,13
 248 177 248 177 210 136 c 128,-1,14
 172 95 172 95 172 34 c 0,15,16
 172 -26 172 -26 207.5 -67 c 128,-1,17
 243 -108 243 -108 302 -108 c 0,18,19
 357 -108 357 -108 391 -71.5 c 128,-1,20
 425 -35 425 -35 435 14 c 1,21,-1
 551 -16 l 1,22,23
 531 -101 531 -101 465.5 -160 c 128,-1,24
 400 -219 400 -219 297 -219 c 0,25,26
 181 -219 181 -219 109 -146 c 128,-1,27
 37 -73 37 -73 37 34 c 0,0,1
EndSplineSet
EndChar

StartChar: uni01BA
Encoding: 442 442 380
Width: 446
GlyphClass: 2
Flags: W
LayerCount: 2
Fore
SplineSet
34 -58 m 0,0,1
 34 -20 34 -20 58.5 13.5 c 128,-1,2
 83 47 83 47 117.5 69 c 128,-1,3
 152 91 152 91 187 110.5 c 128,-1,4
 222 130 222 130 246.5 148 c 128,-1,5
 271 166 271 166 271 184 c 0,6,7
 271 207 271 207 238 221.5 c 128,-1,8
 205 236 205 236 150 236 c 2,9,-1
 115 236 l 1,10,-1
 115 304 l 1,11,-1
 247 427 l 1,12,-1
 37 427 l 1,13,-1
 37 538 l 1,14,-1
 416 538 l 1,15,-1
 416 452 l 1,16,-1
 261 310 l 1,17,-1
 281 309 l 2,18,19
 332 304 332 304 368 275.5 c 128,-1,20
 404 247 404 247 404 190 c 0,21,22
 404 153 404 153 380 121.5 c 128,-1,23
 356 90 356 90 321.5 68 c 128,-1,24
 287 46 287 46 251.5 26.5 c 128,-1,25
 216 7 216 7 192 -12 c 128,-1,26
 168 -31 168 -31 168 -49 c 0,27,28
 168 -95 168 -95 231 -95 c 0,29,30
 274 -95 274 -95 344 -79 c 1,31,-1
 344 -193 l 1,32,33
 259 -206 259 -206 211 -206 c 0,34,35
 132 -206 132 -206 83 -167.5 c 128,-1,36
 34 -129 34 -129 34 -58 c 0,0,1
EndSplineSet
EndChar

StartChar: uni01BB
Encoding: 443 443 381
Width: 553
GlyphClass: 2
Flags: W
LayerCount: 2
Fore
SplineSet
93 299 m 1,0,-1
 93 406 l 1,1,-1
 304 406 l 1,2,3
 361 468 361 468 361 540 c 0,4,5
 361 589 361 589 334.5 614 c 128,-1,6
 308 639 308 639 274 639 c 0,7,8
 272 639 272 639 271 639 c 0,9,10
 226 638 226 638 198 607 c 128,-1,11
 170 576 170 576 152 514 c 1,12,-1
 38 549 l 1,13,14
 58 638 58 638 116.5 694.5 c 128,-1,15
 175 751 175 751 276 751 c 0,16,17
 376 751 376 751 438.5 692.5 c 128,-1,18
 501 634 501 634 501 535 c 0,19,20
 501 470 501 470 461 406 c 1,21,-1
 532 406 l 1,22,-1
 532 299 l 1,23,-1
 370 299 l 1,24,25
 363 292 363 292 342.5 272 c 128,-1,26
 322 252 322 252 313.5 243.5 c 128,-1,27
 305 235 305 235 287.5 216 c 128,-1,28
 270 197 270 197 259.5 184 c 128,-1,29
 249 171 249 171 236 151 c 128,-1,30
 223 131 223 131 212 111 c 1,31,-1
 498 111 l 1,32,-1
 498 0 l 1,33,-1
 47 0 l 1,34,35
 47 82 47 82 87 153.5 c 128,-1,36
 127 225 127 225 196 299 c 1,37,-1
 93 299 l 1,0,-1
EndSplineSet
EndChar

StartChar: uni01BC
Encoding: 444 444 382
Width: 599
GlyphClass: 2
Flags: W
LayerCount: 2
Fore
SplineSet
42 142 m 1,0,-1
 153 181 l 1,1,2
 171 142 171 142 205.5 118.5 c 128,-1,3
 240 95 240 95 286 95 c 0,4,5
 342 95 342 95 376.5 131.5 c 128,-1,6
 411 168 411 168 411 228 c 0,7,8
 411 282 411 282 371.5 322 c 128,-1,9
 332 362 332 362 257 362 c 0,10,11
 190 362 190 362 117 343 c 1,12,-1
 154 620 l 1,13,-1
 110 620 l 1,14,-1
 110 735 l 1,15,-1
 516 735 l 1,16,-1
 516 618 l 1,17,-1
 280 618 l 1,18,-1
 261 470 l 1,19,20
 278 473 278 473 309 473 c 0,21,22
 417 473 417 473 485 405.5 c 128,-1,23
 553 338 553 338 553 232 c 0,24,25
 553 185 553 185 537.5 142.5 c 128,-1,26
 522 100 522 100 491.5 63.5 c 128,-1,27
 461 27 461 27 409 5.5 c 128,-1,28
 357 -16 357 -16 291 -16 c 0,29,30
 199 -16 199 -16 133.5 28.5 c 128,-1,31
 68 73 68 73 42 142 c 1,0,-1
EndSplineSet
EndChar

StartChar: uni01BD
Encoding: 445 445 383
Width: 488
GlyphClass: 2
Flags: W
LayerCount: 2
Fore
SplineSet
40 114 m 1,0,-1
 145 159 l 1,1,2
 157 130 157 130 180.5 112 c 128,-1,3
 204 94 204 94 232 94 c 0,4,5
 269 94 269 94 291.5 115 c 128,-1,6
 314 136 314 136 314 171 c 0,7,8
 314 201 314 201 288 226.5 c 128,-1,9
 262 252 262 252 215 252 c 0,10,11
 159 252 159 252 96 240 c 1,12,-1
 125 428 l 1,13,-1
 93 428 l 1,14,-1
 93 538 l 1,15,-1
 408 538 l 1,16,-1
 408 427 l 1,17,-1
 237 427 l 1,18,-1
 226 362 l 1,19,-1
 250 363 l 2,20,21
 338 363 338 363 393 309.5 c 128,-1,22
 448 256 448 256 448 177 c 0,23,24
 448 100 448 100 394.5 42 c 128,-1,25
 341 -16 341 -16 233 -16 c 0,26,27
 101 -16 101 -16 40 114 c 1,0,-1
EndSplineSet
EndChar

StartChar: uni01BE
Encoding: 446 446 384
Width: 449
GlyphClass: 2
Flags: W
LayerCount: 2
Fore
SplineSet
20 427 m 1,0,-1
 20 538 l 1,1,-1
 96 538 l 1,2,-1
 96 692 l 1,3,-1
 226 692 l 1,4,-1
 226 538 l 1,5,-1
 340 538 l 1,6,-1
 340 427 l 1,7,-1
 226 427 l 1,8,-1
 226 404 l 2,9,10
 226 373 226 373 245.5 351 c 128,-1,11
 265 329 265 329 292.5 313.5 c 128,-1,12
 320 298 320 298 347.5 280 c 128,-1,13
 375 262 375 262 395 230 c 128,-1,14
 415 198 415 198 415 153 c 0,15,16
 415 85 415 85 369.5 34.5 c 128,-1,17
 324 -16 324 -16 225 -16 c 0,18,19
 97 -16 97 -16 29 106 c 1,20,-1
 122 156 l 1,21,22
 143 125 143 125 165 110 c 128,-1,23
 187 95 187 95 220 95 c 0,24,25
 250 95 250 95 267 110 c 128,-1,26
 284 125 284 125 284 149 c 0,27,28
 284 169 284 169 270 184.5 c 128,-1,29
 256 200 256 200 235.5 210.5 c 128,-1,30
 215 221 215 221 190 236 c 128,-1,31
 165 251 165 251 144.5 268.5 c 128,-1,32
 124 286 124 286 110 318 c 128,-1,33
 96 350 96 350 96 392 c 2,34,-1
 96 427 l 1,35,-1
 20 427 l 1,0,-1
EndSplineSet
EndChar

StartChar: uni01BF
Encoding: 447 447 385
Width: 575
GlyphClass: 2
Flags: W
LayerCount: 2
Fore
SplineSet
66 -215 m 1,0,-1
 66 538 l 1,1,-1
 192 538 l 1,2,-1
 192 496 l 1,3,4
 246 554 246 554 334 554 c 0,5,6
 437 554 437 554 491.5 494.5 c 128,-1,7
 546 435 546 435 546 341 c 0,8,9
 546 59 546 59 195 2 c 1,10,-1
 195 -215 l 1,11,-1
 66 -215 l 1,0,-1
195 110 m 1,12,13
 283 122 283 122 348.5 178 c 128,-1,14
 414 234 414 234 414 324 c 0,15,16
 414 385 414 385 387.5 414 c 128,-1,17
 361 443 361 443 318 443 c 0,18,19
 279 443 279 443 245 422 c 128,-1,20
 211 401 211 401 195 371 c 1,21,-1
 195 110 l 1,12,13
EndSplineSet
EndChar

StartChar: uni01C0
Encoding: 448 448 386
Width: 268
GlyphClass: 2
Flags: W
LayerCount: 2
Fore
SplineSet
75 -198 m 1,0,-1
 75 813 l 1,1,-1
 193 813 l 1,2,-1
 193 -198 l 1,3,-1
 75 -198 l 1,0,-1
EndSplineSet
EndChar

StartChar: uni01C1
Encoding: 449 449 387
Width: 468
GlyphClass: 2
Flags: W
LayerCount: 2
Fore
SplineSet
75 -198 m 1,0,-1
 75 813 l 1,1,-1
 193 813 l 1,2,-1
 193 -198 l 1,3,-1
 75 -198 l 1,0,-1
277 -198 m 1,4,-1
 277 813 l 1,5,-1
 394 813 l 1,6,-1
 394 -198 l 1,7,-1
 277 -198 l 1,4,-1
EndSplineSet
EndChar

StartChar: uni01C2
Encoding: 450 450 388
Width: 368
GlyphClass: 2
Flags: W
LayerCount: 2
Fore
SplineSet
14 408 m 1,0,-1
 14 498 l 1,1,-1
 126 498 l 1,2,-1
 126 813 l 1,3,-1
 246 813 l 1,4,-1
 246 498 l 1,5,-1
 355 498 l 1,6,-1
 355 408 l 1,7,-1
 246 408 l 1,8,-1
 246 288 l 1,9,-1
 355 288 l 1,10,-1
 355 196 l 1,11,-1
 246 196 l 1,12,-1
 246 -198 l 1,13,-1
 126 -198 l 1,14,-1
 126 196 l 1,15,-1
 14 196 l 1,16,-1
 14 288 l 1,17,-1
 126 288 l 1,18,-1
 126 408 l 1,19,-1
 14 408 l 1,0,-1
EndSplineSet
EndChar

StartChar: uni01DD
Encoding: 477 477 415
Width: 559
GlyphClass: 2
Flags: W
LayerCount: 2
Fore
SplineSet
29 265 m 0,0,1
 29 289 29 289 32 314 c 1,2,-1
 397 314 l 1,3,4
 397 370 397 370 362.5 410 c 128,-1,5
 328 450 328 450 268 450 c 0,6,7
 226 450 226 450 194 428 c 128,-1,8
 162 406 162 406 146 374 c 1,9,-1
 37 414 l 1,10,11
 64 473 64 473 123 513.5 c 128,-1,12
 182 554 182 554 271 554 c 0,13,14
 385 554 385 554 457.5 475.5 c 128,-1,15
 530 397 530 397 530 267 c 0,16,17
 530 136 530 136 457.5 60 c 128,-1,18
 385 -16 385 -16 278 -16 c 0,19,20
 173 -16 173 -16 101 62 c 128,-1,21
 29 140 29 140 29 265 c 0,0,1
161 224 m 1,22,23
 161 167 161 167 192 127 c 128,-1,24
 223 87 223 87 278 87 c 0,25,26
 331 87 331 87 363 127 c 128,-1,27
 395 167 395 167 397 224 c 1,28,-1
 161 224 l 1,22,23
EndSplineSet
EndChar

StartChar: uni01E4
Encoding: 484 484 422
Width: 726
GlyphClass: 2
Flags: W
LayerCount: 2
Fore
SplineSet
36 368 m 0,0,1
 36 530 36 530 125 640.5 c 128,-1,2
 214 751 214 751 373 751 c 0,3,4
 429 751 429 751 477.5 732.5 c 128,-1,5
 526 714 526 714 558 684 c 128,-1,6
 590 654 590 654 610 626 c 128,-1,7
 630 598 630 598 643 570 c 1,8,-1
 526 532 l 1,9,10
 490 584 490 584 464 604 c 0,11,12
 424 635 424 635 373 635 c 0,13,14
 282 635 282 635 229 563 c 128,-1,15
 176 491 176 491 176 368 c 0,16,17
 176 247 176 247 229 173.5 c 128,-1,18
 282 100 282 100 363 100 c 0,19,20
 454 100 454 100 498 166 c 1,21,-1
 331 166 l 1,22,-1
 331 250 l 1,23,-1
 529 250 l 1,24,25
 530 268 530 268 530 277 c 2,26,-1
 530 303 l 1,27,-1
 358 303 l 1,28,-1
 358 415 l 1,29,-1
 662 415 l 1,30,-1
 662 250 l 1,31,-1
 719 250 l 1,32,-1
 719 166 l 1,33,-1
 662 166 l 1,34,-1
 662 0 l 1,35,-1
 569 0 l 1,36,-1
 556 66 l 1,37,38
 497 -16 497 -16 362 -16 c 0,39,40
 224 -16 224 -16 130 87.5 c 128,-1,41
 36 191 36 191 36 368 c 0,0,1
EndSplineSet
EndChar

StartChar: uni01E5
Encoding: 485 485 423
Width: 572
GlyphClass: 2
Flags: W
LayerCount: 2
Fore
SplineSet
34 299 m 256,0,1
 34 414 34 414 97.5 484 c 128,-1,2
 161 554 161 554 258 554 c 0,3,4
 304 554 304 554 336.5 531.5 c 128,-1,5
 369 509 369 509 381 486 c 1,6,-1
 381 538 l 1,7,-1
 511 538 l 1,8,-1
 511 106 l 2,9,10
 511 52 511 52 508 18 c 1,11,-1
 570 18 l 1,12,-1
 570 -58 l 1,13,-1
 496 -58 l 1,14,15
 472 -137 472 -137 418 -178 c 128,-1,16
 364 -219 364 -219 266 -219 c 0,17,18
 130 -219 130 -219 52 -113 c 1,19,-1
 138 -53 l 1,20,21
 187 -115 187 -115 268 -115 c 0,22,23
 327 -115 327 -115 362 -58 c 1,24,-1
 197 -58 l 1,25,-1
 197 18 l 1,26,-1
 379 18 l 1,27,28
 382 40 382 40 382 71 c 2,29,-1
 382 109 l 1,30,31
 365 82 365 82 330 65 c 128,-1,32
 295 48 295 48 259 48 c 0,33,34
 163 48 163 48 98.5 116 c 128,-1,35
 34 184 34 184 34 299 c 256,0,1
167 299 m 0,36,37
 167 233 167 233 199 196.5 c 128,-1,38
 231 160 231 160 273 160 c 0,39,40
 318 160 318 160 348.5 198 c 128,-1,41
 379 236 379 236 379 302 c 0,42,43
 379 367 379 367 349.5 405 c 128,-1,44
 320 443 320 443 275 443 c 0,45,46
 228 443 228 443 197.5 402.5 c 128,-1,47
 167 362 167 362 167 299 c 0,36,37
EndSplineSet
EndChar

StartChar: uni01EF
Encoding: 495 495 433
Width: 588
GlyphClass: 2
Flags: W
LayerCount: 2
Fore
SplineSet
87 787 m 1,0,-1
 213 787 l 1,1,-1
 293 689 l 1,2,-1
 374 787 l 1,3,-1
 500 787 l 1,4,-1
 348 623 l 1,5,-1
 236 623 l 1,6,-1
 87 787 l 1,0,-1
38 -16 m 1,7,-1
 155 14 l 1,8,9
 165 -35 165 -35 199 -71.5 c 128,-1,10
 233 -108 233 -108 288 -108 c 0,11,12
 347 -108 347 -108 382.5 -67 c 128,-1,13
 418 -26 418 -26 418 35 c 0,14,15
 418 95 418 95 380 136 c 128,-1,16
 342 177 342 177 269 177 c 2,17,-1
 173 177 l 1,18,-1
 173 266 l 1,19,-1
 324 427 l 1,20,-1
 70 427 l 1,21,-1
 70 538 l 1,22,-1
 518 538 l 1,23,-1
 518 458 l 1,24,-1
 336 273 l 1,25,-1
 376 265 l 1,26,27
 451 245 451 245 501.5 182 c 128,-1,28
 552 119 552 119 552 35 c 0,29,30
 552 -73 552 -73 480.5 -146 c 128,-1,31
 409 -219 409 -219 292 -219 c 0,32,33
 189 -219 189 -219 123.5 -160.5 c 128,-1,34
 58 -102 58 -102 38 -16 c 1,7,-1
EndSplineSet
EndChar

StartChar: uni01F6
Encoding: 502 502 440
Width: 992
GlyphClass: 2
Flags: W
LayerCount: 2
Fore
SplineSet
77 0 m 1,0,-1
 77 735 l 1,1,-1
 213 735 l 1,2,-1
 213 436 l 1,3,-1
 488 436 l 1,4,-1
 488 735 l 1,5,-1
 624 735 l 1,6,-1
 624 208 l 2,7,8
 624 95 624 95 716 95 c 0,9,10
 754 95 754 95 778.5 123.5 c 128,-1,11
 803 152 803 152 803 195 c 2,12,-1
 803 538 l 1,13,-1
 939 538 l 1,14,-1
 939 179 l 2,15,16
 939 81 939 81 874.5 32.5 c 128,-1,17
 810 -16 810 -16 716 -16 c 0,18,19
 672 -16 672 -16 633 -6 c 128,-1,20
 594 4 594 4 560.5 25.5 c 128,-1,21
 527 47 527 47 507.5 86.5 c 128,-1,22
 488 126 488 126 488 180 c 2,23,-1
 488 320 l 1,24,-1
 213 320 l 1,25,-1
 213 0 l 1,26,-1
 77 0 l 1,0,-1
EndSplineSet
EndChar

StartChar: uni01F7
Encoding: 503 503 441
Width: 645
GlyphClass: 2
Flags: W
LayerCount: 2
Fore
SplineSet
78 -213 m 1,0,-1
 78 735 l 1,1,-1
 214 735 l 1,2,-1
 214 673 l 1,3,4
 299 751 299 751 393 751 c 0,5,6
 502 751 502 751 556 683 c 128,-1,7
 610 615 610 615 610 492 c 0,8,9
 610 422 610 422 585 355 c 128,-1,10
 560 288 560 288 520 235.5 c 128,-1,11
 480 183 480 183 426.5 136 c 128,-1,12
 373 89 373 89 320.5 57 c 128,-1,13
 268 25 268 25 214 1 c 1,14,-1
 214 -213 l 1,15,-1
 78 -213 l 1,0,-1
214 131 m 1,16,17
 314 184 314 184 392 280.5 c 128,-1,18
 470 377 470 377 470 486 c 0,19,20
 470 560 470 560 442.5 597.5 c 128,-1,21
 415 635 415 635 363 635 c 0,22,23
 324 635 324 635 283.5 608.5 c 128,-1,24
 243 582 243 582 214 541 c 1,25,-1
 214 131 l 1,16,17
EndSplineSet
EndChar

StartChar: Aringacute
Encoding: 506 506 444
Width: 664
GlyphClass: 2
Flags: W
LayerCount: 2
Fore
SplineSet
-4 0 m 1,0,-1
 256 728 l 1,1,2
 242 736 242 736 229 748 c 0,3,4
 185 787 185 787 185 846 c 0,5,6
 185 903 185 903 227 944 c 0,7,8
 252 968 252 968 285 977 c 1,9,-1
 367 1106 l 1,10,-1
 521 1106 l 1,11,-1
 397 972 l 1,12,13
 420 962 420 962 439 943 c 0,14,15
 480 902 480 902 480 846 c 0,16,17
 480 787 480 787 437 748 c 0,18,19
 423 735 423 735 408 726 c 1,20,-1
 668 0 l 1,21,-1
 524 0 l 1,22,-1
 468 173 l 1,23,-1
 196 173 l 1,24,-1
 141 0 l 1,25,-1
 -4 0 l 1,0,-1
231 282 m 1,26,-1
 433 282 l 1,27,-1
 379 456 l 2,28,29
 361 516 361 516 335 603 c 1,30,-1
 330 603 l 1,31,32
 322 577 322 577 307 527 c 128,-1,33
 292 477 292 477 286 456 c 2,34,-1
 231 282 l 1,26,-1
275 846 m 0,35,36
 275 822 275 822 291.5 805.5 c 128,-1,37
 308 789 308 789 333 789 c 0,38,39
 357 789 357 789 373.5 805 c 128,-1,40
 390 821 390 821 390 846 c 256,41,42
 390 871 390 871 374 887.5 c 128,-1,43
 358 904 358 904 333 904 c 256,44,45
 308 904 308 904 291.5 887.5 c 128,-1,46
 275 871 275 871 275 846 c 0,35,36
EndSplineSet
EndChar

StartChar: aringacute
Encoding: 507 507 445
Width: 546
GlyphClass: 2
Flags: W
LayerCount: 2
Fore
SplineSet
29 144 m 0,0,1
 29 218 29 218 85.5 265.5 c 128,-1,2
 142 313 142 313 253 330 c 0,3,4
 341 344 341 344 363 351 c 1,5,-1
 363 379 l 2,6,7
 363 415 363 415 337.5 433.5 c 128,-1,8
 312 452 312 452 270 452 c 0,9,10
 186 452 186 452 122 383 c 1,11,-1
 44 450 l 1,12,13
 131 554 131 554 269 554 c 0,14,15
 391 554 391 554 442.5 496 c 128,-1,16
 494 438 494 438 494 331 c 2,17,-1
 494 0 l 1,18,-1
 367 0 l 1,19,-1
 367 61 l 1,20,21
 350 29 350 29 310 6.5 c 128,-1,22
 270 -16 270 -16 219 -16 c 0,23,24
 131 -16 131 -16 80 28.5 c 128,-1,25
 29 73 29 73 29 144 c 0,0,1
129 730 m 0,26,27
 129 787 129 787 171 828 c 0,28,29
 196 851 196 851 228 861 c 1,30,-1
 310 990 l 1,31,-1
 465 990 l 1,32,-1
 340 856 l 1,33,34
 364 846 364 846 383 827 c 0,35,36
 424 786 424 786 424 730 c 0,37,38
 424 671 424 671 381 631.5 c 128,-1,39
 338 592 338 592 277 592 c 256,40,41
 216 592 216 592 172.5 631.5 c 128,-1,42
 129 671 129 671 129 730 c 0,26,27
163 155 m 0,43,44
 163 129 163 129 183.5 110.5 c 128,-1,45
 204 92 204 92 238 92 c 0,46,47
 290 92 290 92 326.5 127 c 128,-1,48
 363 162 363 162 363 218 c 2,49,-1
 363 260 l 1,50,51
 327 251 327 251 270 243 c 0,52,53
 163 226 163 226 163 155 c 0,43,44
218 730 m 0,54,55
 218 706 218 706 234.5 689.5 c 128,-1,56
 251 673 251 673 277 673 c 0,57,58
 300 673 300 673 316.5 689 c 128,-1,59
 333 705 333 705 333 730 c 256,60,61
 333 755 333 755 317 771.5 c 128,-1,62
 301 788 301 788 277 788 c 0,63,64
 251 788 251 788 234.5 771.5 c 128,-1,65
 218 755 218 755 218 730 c 0,54,55
EndSplineSet
EndChar

StartChar: uni021C
Encoding: 540 540 478
Width: 577
GlyphClass: 2
Flags: W
LayerCount: 2
Fore
SplineSet
34 -79 m 1,0,1
 110 -97 110 -97 194 -97 c 0,2,3
 284 -97 284 -97 339.5 -46 c 128,-1,4
 395 5 395 5 395 89 c 0,5,6
 395 181 395 181 352.5 222.5 c 128,-1,7
 310 264 310 264 251 264 c 0,8,9
 196 264 196 264 131 239 c 1,10,-1
 131 357 l 1,11,-1
 243 381 l 2,12,13
 304 394 304 394 343.5 430 c 128,-1,14
 383 466 383 466 383 522 c 0,15,16
 383 571 383 571 351 602 c 128,-1,17
 319 633 319 633 262 633 c 0,18,19
 218 633 218 633 191 613 c 128,-1,20
 164 593 164 593 142 551 c 1,21,-1
 36 602 l 1,22,23
 63 672 63 672 124 711.5 c 128,-1,24
 185 751 185 751 264 751 c 0,25,26
 391 751 391 751 458.5 692.5 c 128,-1,27
 526 634 526 634 526 539 c 0,28,29
 526 458 526 458 488 405 c 128,-1,30
 450 352 450 352 398 329 c 1,31,-1
 398 328 l 1,32,33
 456 307 456 307 497 244 c 128,-1,34
 538 181 538 181 538 85 c 0,35,36
 538 -58 538 -58 442 -137 c 128,-1,37
 346 -216 346 -216 194 -216 c 0,38,39
 121 -216 121 -216 34 -200 c 1,40,-1
 34 -79 l 1,0,1
EndSplineSet
EndChar

StartChar: uni021D
Encoding: 541 541 479
Width: 451
GlyphClass: 2
Flags: W
LayerCount: 2
Fore
SplineSet
26 -94 m 1,0,1
 89 -108 89 -108 153 -108 c 0,2,3
 213 -108 213 -108 249 -74.5 c 128,-1,4
 285 -41 285 -41 285 23 c 0,5,6
 285 81 285 81 255.5 114.5 c 128,-1,7
 226 148 226 148 185 148 c 0,8,9
 149 148 149 148 102 131 c 1,10,-1
 102 241 l 1,11,-1
 186 259 l 2,12,13
 229 268 229 268 253.5 296 c 128,-1,14
 278 324 278 324 278 362 c 0,15,16
 278 399 278 399 260.5 421 c 128,-1,17
 243 443 243 443 213 443 c 0,18,19
 154 443 154 443 132 376 c 1,20,-1
 32 414 l 1,21,22
 46 474 46 474 94.5 514 c 128,-1,23
 143 554 143 554 222 554 c 0,24,25
 307 554 307 554 358.5 502 c 128,-1,26
 410 450 410 450 410 381 c 0,27,28
 410 265 410 265 314 211 c 1,29,30
 355 195 355 195 386.5 144.5 c 128,-1,31
 418 94 418 94 418 27 c 0,32,33
 418 -93 418 -93 349 -156 c 128,-1,34
 280 -219 280 -219 154 -219 c 0,35,36
 110 -219 110 -219 26 -208 c 1,37,-1
 26 -94 l 1,0,1
EndSplineSet
EndChar

StartChar: uni0220
Encoding: 544 544 482
Width: 696
GlyphClass: 2
Flags: W
LayerCount: 2
Fore
SplineSet
77 0 m 1,0,-1
 77 735 l 1,1,-1
 206 735 l 1,2,-1
 206 656 l 1,3,-1
 207 656 l 1,4,5
 289 751 289 751 407 751 c 0,6,7
 622 751 622 751 622 486 c 2,8,-1
 622 -215 l 1,9,-1
 486 -215 l 1,10,-1
 486 477 l 2,11,12
 486 635 486 635 372 635 c 0,13,14
 307 635 307 635 260 579 c 128,-1,15
 213 523 213 523 213 446 c 2,16,-1
 213 0 l 1,17,-1
 77 0 l 1,0,-1
EndSplineSet
EndChar

StartChar: uni0221
Encoding: 545 545 483
Width: 736
GlyphClass: 2
Flags: W
LayerCount: 2
Fore
SplineSet
531 -75 m 1,0,1
 538 -98 538 -98 555 -112.5 c 128,-1,2
 572 -127 572 -127 598 -127 c 0,3,4
 619 -127 619 -127 632 -116 c 128,-1,5
 645 -105 645 -105 645 -89 c 256,6,7
 645 -73 645 -73 630.5 -60 c 128,-1,8
 616 -47 616 -47 593 -47 c 0,9,10
 559 -47 559 -47 531 -75 c 1,0,1
31 269 m 0,11,12
 31 403 31 403 95.5 478.5 c 128,-1,13
 160 554 160 554 261 554 c 0,14,15
 305 554 305 554 338.5 534.5 c 128,-1,16
 372 515 372 515 389 488 c 1,17,-1
 389 759 l 1,18,-1
 519 759 l 1,19,-1
 519 73 l 2,20,21
 519 36 519 36 521 26 c 1,22,23
 555 47 555 47 597 47 c 0,24,25
 664 47 664 47 706 8.5 c 128,-1,26
 748 -30 748 -30 748 -86 c 0,27,28
 748 -147 748 -147 707.5 -183 c 128,-1,29
 667 -219 667 -219 599 -219 c 0,30,31
 532 -219 532 -219 481 -171 c 1,32,33
 474 -184 474 -184 460 -222 c 1,34,-1
 352 -181 l 1,35,36
 383 -109 383 -109 407 -74 c 1,37,38
 394 -37 394 -37 390 31 c 1,39,-1
 390 60 l 1,40,41
 376 33 376 33 341.5 8.5 c 128,-1,42
 307 -16 307 -16 260 -16 c 0,43,44
 217 -16 217 -16 178 0 c 128,-1,45
 139 16 139 16 105 48 c 128,-1,46
 71 80 71 80 51 137 c 128,-1,47
 31 194 31 194 31 269 c 0,11,12
165 269 m 0,48,49
 165 185 165 185 196 140 c 128,-1,50
 227 95 227 95 278 95 c 256,51,52
 329 95 329 95 359.5 141.5 c 128,-1,53
 390 188 390 188 390 269 c 0,54,55
 390 347 390 347 360.5 395 c 128,-1,56
 331 443 331 443 278 443 c 256,57,58
 225 443 225 443 195 397 c 128,-1,59
 165 351 165 351 165 269 c 0,48,49
EndSplineSet
EndChar

StartChar: uni0222
Encoding: 546 546 484
Width: 719
GlyphClass: 2
Flags: W
LayerCount: 2
Fore
SplineSet
36 246 m 0,0,1
 36 310 36 310 69 367.5 c 128,-1,2
 102 425 102 425 169 464 c 1,3,4
 121 490 121 490 92 530 c 128,-1,5
 63 570 63 570 63 638 c 0,6,7
 63 698 63 698 79 735 c 1,8,-1
 213 735 l 1,9,10
 204 697 204 697 204 647 c 0,11,12
 204 593 204 593 246.5 552.5 c 128,-1,13
 289 512 289 512 361 512 c 0,14,15
 432 512 432 512 474 553 c 128,-1,16
 516 594 516 594 516 647 c 0,17,18
 516 683 516 683 507 735 c 1,19,-1
 641 735 l 1,20,21
 657 697 657 697 657 638 c 0,22,23
 657 569 657 569 628 529.5 c 128,-1,24
 599 490 599 490 551 464 c 1,25,26
 618 425 618 425 651.5 367.5 c 128,-1,27
 685 310 685 310 685 246 c 0,28,29
 685 199 685 199 666 154.5 c 128,-1,30
 647 110 647 110 610 70.5 c 128,-1,31
 573 31 573 31 508.5 7.5 c 128,-1,32
 444 -16 444 -16 361 -16 c 256,33,34
 278 -16 278 -16 212.5 7.5 c 128,-1,35
 147 31 147 31 110 70.5 c 128,-1,36
 73 110 73 110 54.5 154.5 c 128,-1,37
 36 199 36 199 36 246 c 0,0,1
177 246 m 0,38,39
 177 178 177 178 228 139 c 128,-1,40
 279 100 279 100 361 100 c 0,41,42
 441 100 441 100 492 139 c 128,-1,43
 543 178 543 178 543 246 c 0,44,45
 543 312 543 312 490 353 c 128,-1,46
 437 394 437 394 361 394 c 0,47,48
 283 394 283 394 230 353.5 c 128,-1,49
 177 313 177 313 177 246 c 0,38,39
EndSplineSet
EndChar

StartChar: uni0223
Encoding: 547 547 485
Width: 558
GlyphClass: 2
Flags: W
LayerCount: 2
Fore
SplineSet
31 248 m 0,0,1
 31 324 31 324 61 380.5 c 128,-1,2
 91 437 91 437 144 465 c 1,3,4
 52 519 52 519 52 643 c 0,5,6
 52 693 52 693 68 740 c 1,7,-1
 196 740 l 1,8,9
 186 688 186 688 186 652 c 0,10,11
 186 515 186 515 279 515 c 256,12,13
 372 515 372 515 372 652 c 0,14,15
 372 684 372 684 361 740 c 1,16,-1
 488 740 l 1,17,18
 505 695 505 695 505 643 c 0,19,20
 505 516 505 516 415 465 c 1,21,22
 467 438 467 438 497.5 381 c 128,-1,23
 528 324 528 324 528 248 c 0,24,25
 528 210 528 210 520 174.5 c 128,-1,26
 512 139 512 139 494 103.5 c 128,-1,27
 476 68 476 68 448.5 42 c 128,-1,28
 421 16 421 16 377 0 c 128,-1,29
 333 -16 333 -16 279 -16 c 0,30,31
 213 -16 213 -16 162.5 7.5 c 128,-1,32
 112 31 112 31 85 71 c 128,-1,33
 58 111 58 111 44.5 155.5 c 128,-1,34
 31 200 31 200 31 248 c 0,0,1
165 248 m 256,35,36
 165 180 165 180 196.5 137.5 c 128,-1,37
 228 95 228 95 279 95 c 0,38,39
 331 95 331 95 362.5 137 c 128,-1,40
 394 179 394 179 394 248 c 0,41,42
 394 316 394 316 362.5 359 c 128,-1,43
 331 402 331 402 279 402 c 0,44,45
 228 402 228 402 196.5 359 c 128,-1,46
 165 316 165 316 165 248 c 256,35,36
EndSplineSet
EndChar

StartChar: uni0224
Encoding: 548 548 486
Width: 601
GlyphClass: 2
Flags: W
LayerCount: 2
Fore
SplineSet
27 0 m 1,0,-1
 27 99 l 1,1,-1
 399 618 l 1,2,-1
 58 618 l 1,3,-1
 58 735 l 1,4,-1
 567 735 l 1,5,-1
 567 634 l 1,6,-1
 196 116 l 1,7,-1
 455 116 l 2,8,9
 629 116 629 116 629 -79 c 0,10,11
 629 -149 629 -149 600 -215 c 1,12,-1
 477 -215 l 1,13,14
 509 -153 509 -153 509 -98 c 0,15,16
 509 -58 509 -58 487.5 -29 c 128,-1,17
 466 0 466 0 419 0 c 2,18,-1
 27 0 l 1,0,-1
EndSplineSet
EndChar

StartChar: uni0225
Encoding: 549 549 487
Width: 483
GlyphClass: 2
Flags: W
LayerCount: 2
Fore
SplineSet
22 0 m 1,0,-1
 22 86 l 1,1,-1
 289 428 l 1,2,-1
 43 428 l 1,3,-1
 43 540 l 1,4,-1
 460 540 l 1,5,-1
 460 458 l 1,6,-1
 191 111 l 1,7,-1
 374 111 l 2,8,9
 545 111 545 111 545 -77 c 0,10,11
 545 -166 545 -166 523 -215 c 1,12,-1
 409 -215 l 1,13,14
 431 -173 431 -173 431 -100 c 0,15,16
 431 -52 431 -52 412 -26 c 128,-1,17
 393 0 393 0 344 0 c 2,18,-1
 22 0 l 1,0,-1
EndSplineSet
EndChar

StartChar: uni0234
Encoding: 564 564 502
Width: 413
GlyphClass: 2
Flags: W
LayerCount: 2
Fore
SplineSet
211 -74 m 1,0,1
 215 -96 215 -96 233.5 -111.5 c 128,-1,2
 252 -127 252 -127 277 -127 c 0,3,4
 299 -127 299 -127 311 -116 c 128,-1,5
 323 -105 323 -105 323 -89 c 256,6,7
 323 -73 323 -73 308.5 -60 c 128,-1,8
 294 -47 294 -47 272 -47 c 0,9,10
 239 -47 239 -47 211 -74 c 1,0,1
32 -181 m 1,11,12
 73 -93 73 -93 87 -74 c 1,13,14
 68 -27 68 -27 68 42 c 2,15,-1
 68 759 l 1,16,-1
 199 759 l 1,17,-1
 199 72 l 2,18,19
 199 34 199 34 200 26 c 1,20,21
 235 47 235 47 277 47 c 0,22,23
 343 47 343 47 384.5 9 c 128,-1,24
 426 -29 426 -29 426 -86 c 0,25,26
 426 -147 426 -147 386 -183 c 128,-1,27
 346 -219 346 -219 278 -219 c 0,28,29
 211 -219 211 -219 160 -171 c 1,30,31
 148 -191 148 -191 138 -222 c 1,32,-1
 32 -181 l 1,11,12
EndSplineSet
EndChar

StartChar: uni0235
Encoding: 565 565 503
Width: 721
GlyphClass: 2
Flags: W
LayerCount: 2
Fore
SplineSet
519 -74 m 1,0,1
 524 -98 524 -98 542.5 -112.5 c 128,-1,2
 561 -127 561 -127 585 -127 c 0,3,4
 607 -127 607 -127 619 -116.5 c 128,-1,5
 631 -106 631 -106 631 -89 c 0,6,7
 631 -74 631 -74 617.5 -60.5 c 128,-1,8
 604 -47 604 -47 581 -47 c 0,9,10
 547 -47 547 -47 519 -74 c 1,0,1
60 0 m 1,11,-1
 60 538 l 1,12,-1
 185 538 l 1,13,-1
 185 478 l 1,14,-1
 186 478 l 1,15,16
 202 507 202 507 238.5 530.5 c 128,-1,17
 275 554 275 554 330 554 c 0,18,19
 506 554 506 554 506 345 c 2,20,-1
 506 68 l 2,21,22
 505 53 505 53 505 43 c 0,23,24
 505 32 505 32 506 26 c 1,25,26
 539 47 539 47 584 47 c 0,27,28
 650 47 650 47 692 9 c 128,-1,29
 734 -29 734 -29 734 -86 c 0,30,31
 734 -147 734 -147 694 -183 c 128,-1,32
 654 -219 654 -219 585 -219 c 0,33,34
 520 -219 520 -219 468 -170 c 1,35,36
 452 -206 452 -206 446 -222 c 1,37,-1
 340 -181 l 1,38,39
 359 -127 359 -127 394 -74 c 1,40,41
 376 -27 376 -27 376 44 c 2,42,-1
 376 330 l 2,43,44
 376 443 376 443 300 443 c 0,45,46
 253 443 253 443 222 404.5 c 128,-1,47
 191 366 191 366 191 309 c 2,48,-1
 191 0 l 1,49,-1
 60 0 l 1,11,-1
EndSplineSet
EndChar

StartChar: uni0236
Encoding: 566 566 504
Width: 446
GlyphClass: 2
Flags: W
LayerCount: 2
Fore
SplineSet
238 -74 m 1,0,1
 242 -94 242 -94 260.5 -110.5 c 128,-1,2
 279 -127 279 -127 304 -127 c 0,3,4
 327 -127 327 -127 339.5 -116 c 128,-1,5
 352 -105 352 -105 352 -89 c 0,6,7
 352 -75 352 -75 337.5 -61 c 128,-1,8
 323 -47 323 -47 300 -47 c 0,9,10
 267 -47 267 -47 238 -74 c 1,0,1
16 427 m 1,11,-1
 16 538 l 1,12,-1
 96 538 l 1,13,-1
 96 694 l 1,14,-1
 226 694 l 1,15,-1
 226 538 l 1,16,-1
 342 538 l 1,17,-1
 342 427 l 1,18,-1
 226 427 l 1,19,-1
 226 26 l 1,20,21
 259 47 259 47 304 47 c 0,22,23
 371 47 371 47 412 9 c 128,-1,24
 453 -29 453 -29 453 -86 c 0,25,26
 453 -147 453 -147 413 -183 c 128,-1,27
 373 -219 373 -219 306 -219 c 0,28,29
 238 -219 238 -219 187 -171 c 1,30,31
 172 -195 172 -195 164 -222 c 1,32,-1
 59 -181 l 1,33,34
 89 -109 89 -109 114 -74 c 1,35,36
 96 -29 96 -29 96 44 c 2,37,-1
 96 427 l 1,38,-1
 16 427 l 1,11,-1
EndSplineSet
EndChar

StartChar: uni0237
Encoding: 567 567 505
Width: 272
GlyphClass: 2
Flags: W
LayerCount: 2
Fore
SplineSet
-12 -97 m 1,0,-1
 5 -97 l 2,1,2
 39 -97 39 -97 56 -73.5 c 128,-1,3
 73 -50 73 -50 73 2 c 2,4,-1
 73 538 l 1,5,-1
 205 538 l 1,6,-1
 205 -3 l 2,7,8
 205 -105 205 -105 159 -157 c 128,-1,9
 113 -209 113 -209 26 -209 c 2,10,-1
 -12 -209 l 1,11,-1
 -12 -97 l 1,0,-1
EndSplineSet
EndChar

StartChar: uni0238
Encoding: 568 568 506
Width: 907
GlyphClass: 2
Flags: W
LayerCount: 2
Fore
SplineSet
31 269 m 0,0,1
 31 404 31 404 96.5 479 c 128,-1,2
 162 554 162 554 260 554 c 0,3,4
 303 554 303 554 337 534.5 c 128,-1,5
 371 515 371 515 388 488 c 1,6,-1
 388 759 l 1,7,-1
 519 759 l 1,8,-1
 519 489 l 1,9,10
 572 554 572 554 648 554 c 0,11,12
 748 554 748 554 812 479 c 128,-1,13
 876 404 876 404 876 269 c 0,14,15
 876 193 876 193 855 135.5 c 128,-1,16
 834 78 834 78 800 46 c 128,-1,17
 766 14 766 14 727.5 -1 c 128,-1,18
 689 -16 689 -16 649 -16 c 0,19,20
 602 -16 602 -16 568.5 6 c 128,-1,21
 535 28 535 28 519 59 c 1,22,-1
 519 0 l 1,23,-1
 389 0 l 1,24,-1
 389 60 l 1,25,26
 372 28 372 28 336 6 c 128,-1,27
 300 -16 300 -16 258 -16 c 0,28,29
 217 -16 217 -16 179.5 -1 c 128,-1,30
 142 14 142 14 107.5 45.5 c 128,-1,31
 73 77 73 77 52 135 c 128,-1,32
 31 193 31 193 31 269 c 0,0,1
165 269 m 0,33,34
 165 184 165 184 196.5 139.5 c 128,-1,35
 228 95 228 95 278 95 c 0,36,37
 331 95 331 95 360.5 140.5 c 128,-1,38
 390 186 390 186 390 263 c 2,39,-1
 390 268 l 2,40,41
 390 345 390 345 360.5 394 c 128,-1,42
 331 443 331 443 278 443 c 0,43,44
 226 443 226 443 195.5 397.5 c 128,-1,45
 165 352 165 352 165 269 c 0,33,34
518 262 m 2,46,47
 518 188 518 188 549 141.5 c 128,-1,48
 580 95 580 95 629 95 c 0,49,50
 679 95 679 95 710.5 139.5 c 128,-1,51
 742 184 742 184 742 269 c 0,52,53
 742 350 742 350 712 396.5 c 128,-1,54
 682 443 682 443 630 443 c 0,55,56
 577 443 577 443 547.5 393.5 c 128,-1,57
 518 344 518 344 518 267 c 2,58,-1
 518 262 l 2,46,47
EndSplineSet
EndChar

StartChar: uni0239
Encoding: 569 569 507
Width: 907
GlyphClass: 2
Flags: W
LayerCount: 2
Fore
SplineSet
31 269 m 0,0,1
 31 402 31 402 95 478 c 128,-1,2
 159 554 159 554 260 554 c 0,3,4
 342 554 342 554 389 484 c 1,5,-1
 389 538 l 1,6,-1
 519 538 l 1,7,-1
 519 485 l 1,8,9
 564 554 564 554 649 554 c 0,10,11
 750 554 750 554 813.5 478 c 128,-1,12
 877 402 877 402 877 269 c 0,13,14
 877 194 877 194 857 137 c 128,-1,15
 837 80 837 80 803.5 48 c 128,-1,16
 770 16 770 16 731 0 c 128,-1,17
 692 -16 692 -16 649 -16 c 0,18,19
 600 -16 600 -16 567 6.5 c 128,-1,20
 534 29 534 29 519 58 c 1,21,-1
 519 -215 l 1,22,-1
 388 -215 l 1,23,-1
 388 58 l 1,24,25
 369 28 369 28 335.5 6 c 128,-1,26
 302 -16 302 -16 258 -16 c 0,27,28
 216 -16 216 -16 177.5 0 c 128,-1,29
 139 16 139 16 105 47.5 c 128,-1,30
 71 79 71 79 51 136.5 c 128,-1,31
 31 194 31 194 31 269 c 0,0,1
164 269 m 0,32,33
 164 186 164 186 195 140.5 c 128,-1,34
 226 95 226 95 276 95 c 0,35,36
 331 95 331 95 361 141 c 128,-1,37
 391 187 391 187 391 269 c 2,38,-1
 391 275 l 2,39,40
 391 350 391 350 360.5 396.5 c 128,-1,41
 330 443 330 443 277 443 c 256,42,43
 224 443 224 443 194 395 c 128,-1,44
 164 347 164 347 164 269 c 0,32,33
517 271 m 2,45,46
 517 190 517 190 548 142.5 c 128,-1,47
 579 95 579 95 631 95 c 0,48,49
 681 95 681 95 712 140.5 c 128,-1,50
 743 186 743 186 743 269 c 0,51,52
 743 349 743 349 713.5 396 c 128,-1,53
 684 443 684 443 631 443 c 0,54,55
 581 443 581 443 549 396.5 c 128,-1,56
 517 350 517 350 517 277 c 2,57,-1
 517 271 l 2,45,46
EndSplineSet
EndChar

StartChar: uni023A
Encoding: 570 570 508
Width: 664
GlyphClass: 2
Flags: W
LayerCount: 2
Fore
SplineSet
231 282 m 1,0,-1
 249 282 l 1,1,-1
 373 474 l 1,2,3
 358 524 358 524 335 603 c 1,4,-1
 330 603 l 1,5,6
 322 577 322 577 307 526.5 c 128,-1,7
 292 476 292 476 286 456 c 2,8,-1
 231 282 l 1,0,-1
343 282 m 1,9,-1
 434 282 l 1,10,-1
 404 377 l 1,11,-1
 343 282 l 1,9,-1
-4 0 m 1,12,-1
 259 735 l 1,13,-1
 406 735 l 1,14,-1
 454 600 l 1,15,-1
 573 785 l 1,16,-1
 666 785 l 1,17,-1
 487 507 l 1,18,-1
 668 0 l 1,19,-1
 524 0 l 1,20,-1
 468 173 l 1,21,-1
 273 173 l 1,22,-1
 100 -96 l 1,23,-1
 6 -96 l 1,24,-1
 68 0 l 1,25,-1
 -4 0 l 1,12,-1
EndSplineSet
EndChar

StartChar: uni023B
Encoding: 571 571 509
Width: 667
GlyphClass: 2
Flags: W
LayerCount: 2
Fore
SplineSet
36 368 m 0,0,1
 36 539 36 539 125.5 645 c 128,-1,2
 215 751 215 751 365 751 c 0,3,4
 411 751 411 751 460 736 c 1,5,-1
 478 787 l 1,6,-1
 578 787 l 1,7,-1
 541 689 l 1,8,9
 568 668 568 668 593.5 634.5 c 128,-1,10
 619 601 619 601 631 569 c 1,11,-1
 514 531 l 1,12,13
 506 546 506 546 493 561 c 1,14,-1
 324 106 l 1,15,16
 345 100 345 100 364 100 c 0,17,18
 422 100 422 100 465.5 136.5 c 128,-1,19
 509 173 509 173 527 221 c 1,20,-1
 649 183 l 1,21,22
 638 157 638 157 624.5 133.5 c 128,-1,23
 611 110 611 110 586 81.5 c 128,-1,24
 561 53 561 53 531 32.5 c 128,-1,25
 501 12 501 12 458 -2 c 128,-1,26
 415 -16 415 -16 365 -16 c 0,27,28
 322 -16 322 -16 282 -6 c 1,29,-1
 266 -54 l 1,30,-1
 166 -54 l 1,31,-1
 196 28 l 1,32,33
 119 78 119 78 77.5 165 c 128,-1,34
 36 252 36 252 36 368 c 0,0,1
243 154 m 1,35,-1
 419 624 l 1,36,37
 391 635 391 635 364 635 c 0,38,39
 275 635 275 635 225.5 559 c 128,-1,40
 176 483 176 483 176 368 c 0,41,42
 176 228 176 228 243 154 c 1,35,-1
EndSplineSet
EndChar

StartChar: uni023C
Encoding: 572 572 510
Width: 519
GlyphClass: 2
Flags: W
LayerCount: 2
Fore
SplineSet
31 269 m 0,0,1
 31 394 31 394 98 474 c 128,-1,2
 165 554 165 554 285 554 c 0,3,4
 316 554 316 554 345 546 c 1,5,-1
 366 604 l 1,6,-1
 457 604 l 1,7,-1
 420 504 l 1,8,9
 442 488 442 488 462.5 455 c 128,-1,10
 483 422 483 422 490 389 c 1,11,-1
 387 361 l 1,12,13
 380 376 380 376 374 384 c 1,14,-1
 268 96 l 1,15,16
 273 95 273 95 282 95 c 0,17,18
 356 95 356 95 392 186 c 1,19,-1
 502 155 l 1,20,21
 488 95 488 95 429.5 39.5 c 128,-1,22
 371 -16 371 -16 281 -16 c 0,23,24
 248 -16 248 -16 227 -12 c 1,25,-1
 212 -55 l 1,26,-1
 121 -55 l 1,27,-1
 149 19 l 1,28,29
 89 57 89 57 60 125 c 128,-1,30
 31 193 31 193 31 269 c 0,0,1
197 149 m 1,31,-1
 305 438 l 1,32,33
 293 443 293 443 282 443 c 0,34,35
 226 443 226 443 195.5 393.5 c 128,-1,36
 165 344 165 344 165 269 c 0,37,38
 165 197 165 197 197 149 c 1,31,-1
EndSplineSet
EndChar

StartChar: uni023D
Encoding: 573 573 511
Width: 551
GlyphClass: 2
Flags: W
LayerCount: 2
Fore
SplineSet
3 358 m 1,0,-1
 3 466 l 1,1,-1
 77 466 l 1,2,-1
 77 735 l 1,3,-1
 213 735 l 1,4,-1
 213 466 l 1,5,-1
 390 466 l 1,6,-1
 390 358 l 1,7,-1
 213 358 l 1,8,-1
 213 116 l 1,9,-1
 540 116 l 1,10,-1
 540 0 l 1,11,-1
 77 0 l 1,12,-1
 77 358 l 1,13,-1
 3 358 l 1,0,-1
EndSplineSet
EndChar

StartChar: uni023E
Encoding: 574 574 512
Width: 571
GlyphClass: 2
Flags: W
LayerCount: 2
Fore
SplineSet
353 618 m 1,0,-1
 353 519 l 1,1,-1
 408 618 l 1,2,-1
 353 618 l 1,0,-1
10 618 m 1,3,-1
 10 735 l 1,4,-1
 472 735 l 1,5,-1
 501 787 l 1,6,-1
 592 787 l 1,7,-1
 561 731 l 1,8,-1
 561 618 l 1,9,-1
 499 618 l 1,10,-1
 353 353 l 1,11,-1
 353 0 l 1,12,-1
 218 0 l 1,13,-1
 218 109 l 1,14,-1
 130 -51 l 1,15,-1
 39 -51 l 1,16,-1
 218 274 l 1,17,-1
 218 618 l 1,18,-1
 10 618 l 1,3,-1
EndSplineSet
EndChar

StartChar: uni023F
Encoding: 575 575 513
Width: 489
GlyphClass: 2
Flags: W
LayerCount: 2
Fore
SplineSet
21 114 m 1,0,-1
 112 169 l 1,1,2
 168 89 168 89 254 89 c 0,3,4
 289 89 289 89 313 105 c 128,-1,5
 337 121 337 121 337 145 c 0,6,7
 337 161 337 161 328.5 173.5 c 128,-1,8
 320 186 320 186 301.5 195.5 c 128,-1,9
 283 205 283 205 268.5 211 c 128,-1,10
 254 217 254 217 224.5 226.5 c 128,-1,11
 195 236 195 236 182 241 c 0,12,13
 116 266 116 266 80 299 c 128,-1,14
 44 332 44 332 44 394 c 0,15,16
 44 468 44 468 106 511 c 128,-1,17
 168 554 168 554 251 554 c 0,18,19
 324 554 324 554 382 519 c 128,-1,20
 440 484 440 484 470 429 c 1,21,-1
 384 377 l 1,22,23
 355 413 355 413 325 431 c 128,-1,24
 295 449 295 449 250 449 c 0,25,26
 216 449 216 449 196 433 c 128,-1,27
 176 417 176 417 176 393 c 0,28,29
 176 368 176 368 202 349.5 c 128,-1,30
 228 331 228 331 267 320 c 0,31,32
 307 309 307 309 337 297 c 128,-1,33
 367 285 367 285 401 264.5 c 128,-1,34
 435 244 435 244 453 214 c 128,-1,35
 471 184 471 184 471 145 c 0,36,37
 471 75 471 75 413.5 29.5 c 128,-1,38
 356 -16 356 -16 254 -16 c 0,39,40
 209 -16 209 -16 173 -4 c 1,41,42
 174 -10 174 -10 179.5 -26.5 c 128,-1,43
 185 -43 185 -43 187.5 -50 c 128,-1,44
 190 -57 190 -57 196 -70 c 128,-1,45
 202 -83 202 -83 206.5 -89 c 128,-1,46
 211 -95 211 -95 219.5 -104 c 128,-1,47
 228 -113 228 -113 237.5 -117 c 128,-1,48
 247 -121 247 -121 260.5 -124 c 128,-1,49
 274 -127 274 -127 290 -127 c 0,50,51
 327 -127 327 -127 355 -121 c 1,52,-1
 355 -212 l 1,53,54
 304 -219 304 -219 285 -219 c 0,55,56
 231 -219 231 -219 191.5 -200.5 c 128,-1,57
 152 -182 152 -182 129.5 -147.5 c 128,-1,58
 107 -113 107 -113 95.5 -83 c 128,-1,59
 84 -53 84 -53 75 -12 c 0,60,61
 56 73 56 73 21 114 c 1,0,-1
EndSplineSet
EndChar

StartChar: uni0240
Encoding: 576 576 514
Width: 492
GlyphClass: 2
Flags: W
LayerCount: 2
Fore
SplineSet
22 0 m 1,0,-1
 22 86 l 1,1,-1
 289 427 l 1,2,-1
 43 427 l 1,3,-1
 43 538 l 1,4,-1
 460 538 l 1,5,-1
 460 456 l 1,6,-1
 170 86 l 1,7,8
 201 77 201 77 228 53.5 c 128,-1,9
 255 30 255 30 274.5 3 c 128,-1,10
 294 -24 294 -24 313 -49 c 128,-1,11
 332 -74 332 -74 356.5 -91 c 128,-1,12
 381 -108 381 -108 408 -108 c 0,13,14
 451 -108 451 -108 473 -102 c 1,15,-1
 473 -211 l 1,16,17
 440 -219 440 -219 400 -219 c 0,18,19
 354 -219 354 -219 317 -198 c 128,-1,20
 280 -177 280 -177 255.5 -146.5 c 128,-1,21
 231 -116 231 -116 207.5 -84.5 c 128,-1,22
 184 -53 184 -53 155 -29 c 128,-1,23
 126 -5 126 -5 92 0 c 1,24,-1
 22 0 l 1,0,-1
EndSplineSet
EndChar

StartChar: uni0241
Encoding: 577 577 515
Width: 593
GlyphClass: 2
Flags: W
LayerCount: 2
Fore
SplineSet
55 564 m 1,0,1
 75 646 75 646 141 698.5 c 128,-1,2
 207 751 207 751 302 751 c 0,3,4
 402 751 402 751 467 693 c 128,-1,5
 532 635 532 635 532 540 c 0,6,7
 532 497 532 497 515 460.5 c 128,-1,8
 498 424 498 424 473 398.5 c 128,-1,9
 448 373 448 373 423.5 349.5 c 128,-1,10
 399 326 399 326 381.5 296 c 128,-1,11
 364 266 364 266 364 230 c 2,12,-1
 364 0 l 1,13,-1
 229 0 l 1,14,-1
 229 242 l 2,15,16
 229 285 229 285 246 321 c 128,-1,17
 263 357 263 357 286.5 382 c 128,-1,18
 310 407 310 407 334 430.5 c 128,-1,19
 358 454 358 454 375 483 c 128,-1,20
 392 512 392 512 392 546 c 0,21,22
 392 586 392 586 366.5 610.5 c 128,-1,23
 341 635 341 635 304 635 c 0,24,25
 261 635 261 635 228 607.5 c 128,-1,26
 195 580 195 580 178 528 c 1,27,-1
 55 564 l 1,0,1
EndSplineSet
EndChar

StartChar: uni0250
Encoding: 592 592 516
Width: 546
GlyphClass: 2
Flags: W
LayerCount: 2
Fore
SplineSet
184 278 m 1,0,1
 233 289 233 289 277 296 c 0,2,3
 331 305 331 305 358 325.5 c 128,-1,4
 385 346 385 346 385 383 c 0,5,6
 385 410 385 410 364 428 c 128,-1,7
 343 446 343 446 309 446 c 0,8,9
 258 446 258 446 221 411 c 128,-1,10
 184 376 184 376 184 326 c 2,11,-1
 184 278 l 1,0,1
53 207 m 2,12,-1
 53 538 l 1,13,-1
 181 538 l 1,14,-1
 181 477 l 1,15,16
 196 507 196 507 235 530.5 c 128,-1,17
 274 554 274 554 328 554 c 0,18,19
 415 554 415 554 466.5 510 c 128,-1,20
 518 466 518 466 518 394 c 0,21,22
 518 315 518 315 456 268.5 c 128,-1,23
 394 222 394 222 280 206 c 0,24,25
 216 197 216 197 184 188 c 1,26,-1
 184 156 l 2,27,28
 184 123 184 123 211.5 104.5 c 128,-1,29
 239 86 239 86 278 86 c 0,30,31
 361 86 361 86 425 155 c 1,32,-1
 504 88 l 1,33,34
 462 37 462 37 403 10.5 c 128,-1,35
 344 -16 344 -16 278 -16 c 0,36,37
 158 -16 158 -16 105.5 42 c 128,-1,38
 53 100 53 100 53 207 c 2,12,-1
EndSplineSet
EndChar

StartChar: uni0251
Encoding: 593 593 517
Width: 577
GlyphClass: 2
Flags: W
LayerCount: 2
Fore
SplineSet
165 269 m 0,0,1
 165 184 165 184 196 139.5 c 128,-1,2
 227 95 227 95 277 95 c 0,3,4
 319 95 319 95 352.5 137 c 128,-1,5
 386 179 386 179 386 269 c 0,6,7
 386 347 386 347 357 395 c 128,-1,8
 328 443 328 443 276 443 c 256,9,10
 224 443 224 443 194.5 397 c 128,-1,11
 165 351 165 351 165 269 c 0,0,1
31 269 m 0,12,13
 31 403 31 403 94 478.5 c 128,-1,14
 157 554 157 554 258 554 c 0,15,16
 338 554 338 554 384 488 c 1,17,-1
 384 538 l 1,18,-1
 515 538 l 1,19,-1
 515 0 l 1,20,-1
 387 0 l 1,21,-1
 387 61 l 1,22,23
 371 29 371 29 335.5 6.5 c 128,-1,24
 300 -16 300 -16 257 -16 c 0,25,26
 215 -16 215 -16 176 0 c 128,-1,27
 137 16 137 16 103.5 48 c 128,-1,28
 70 80 70 80 50.5 137 c 128,-1,29
 31 194 31 194 31 269 c 0,12,13
EndSplineSet
EndChar

StartChar: uni0252
Encoding: 594 594 518
Width: 577
GlyphClass: 2
Flags: W
LayerCount: 2
Fore
SplineSet
63 0 m 1,0,-1
 63 538 l 1,1,-1
 193 538 l 1,2,-1
 193 489 l 1,3,4
 246 554 246 554 320 554 c 0,5,6
 420 554 420 554 483.5 478 c 128,-1,7
 547 402 547 402 547 269 c 0,8,9
 547 194 547 194 526.5 136.5 c 128,-1,10
 506 79 506 79 472 47 c 128,-1,11
 438 15 438 15 400 -0.5 c 128,-1,12
 362 -16 362 -16 322 -16 c 0,13,14
 277 -16 277 -16 241.5 8 c 128,-1,15
 206 32 206 32 191 61 c 1,16,-1
 191 0 l 1,17,-1
 63 0 l 1,0,-1
191 269 m 0,18,19
 191 188 191 188 221.5 141.5 c 128,-1,20
 252 95 252 95 301 95 c 0,21,22
 352 95 352 95 382 140 c 128,-1,23
 412 185 412 185 412 269 c 0,24,25
 412 351 412 351 382.5 397 c 128,-1,26
 353 443 353 443 301 443 c 256,27,28
 249 443 249 443 220 395 c 128,-1,29
 191 347 191 347 191 269 c 0,18,19
EndSplineSet
EndChar

StartChar: uni0253
Encoding: 595 595 519
Width: 583
GlyphClass: 2
Flags: W
LayerCount: 2
Fore
SplineSet
193 270 m 0,0,1
 193 188 193 188 223.5 141.5 c 128,-1,2
 254 95 254 95 307 95 c 0,3,4
 358 95 358 95 388.5 140.5 c 128,-1,5
 419 186 419 186 419 270 c 0,6,7
 419 350 419 350 389 396.5 c 128,-1,8
 359 443 359 443 306 443 c 256,9,10
 253 443 253 443 223 396.5 c 128,-1,11
 193 350 193 350 193 270 c 0,0,1
65 0 m 1,12,-1
 65 603 l 2,13,14
 65 690 65 690 117 736 c 128,-1,15
 169 782 169 782 251 782 c 0,16,17
 294 782 294 782 350 776 c 1,18,-1
 349 660 l 1,19,20
 296 666 296 666 275 666 c 0,21,22
 239 666 239 666 216.5 643 c 128,-1,23
 194 620 194 620 194 579 c 2,24,-1
 194 489 l 1,25,26
 245 554 245 554 325 554 c 0,27,28
 425 554 425 554 489 478 c 128,-1,29
 553 402 553 402 553 270 c 0,30,31
 553 129 553 129 485 56.5 c 128,-1,32
 417 -16 417 -16 326 -16 c 0,33,34
 279 -16 279 -16 244 7.5 c 128,-1,35
 209 31 209 31 191 61 c 1,36,-1
 191 0 l 1,37,-1
 65 0 l 1,12,-1
EndSplineSet
EndChar

StartChar: uni0254
Encoding: 596 596 520
Width: 519
GlyphClass: 2
Flags: W
LayerCount: 2
Fore
SplineSet
16 155 m 1,0,-1
 128 186 l 1,1,2
 138 151 138 151 166.5 123 c 128,-1,3
 195 95 195 95 236 95 c 0,4,5
 287 95 287 95 320.5 140 c 128,-1,6
 354 185 354 185 354 268 c 0,7,8
 354 343 354 343 323.5 393 c 128,-1,9
 293 443 293 443 236 443 c 0,10,11
 199 443 199 443 175 418.5 c 128,-1,12
 151 394 151 394 141 359 c 1,13,-1
 30 389 l 1,14,15
 44 453 44 453 99.5 503.5 c 128,-1,16
 155 554 155 554 238 554 c 0,17,18
 349 554 349 554 419 477 c 128,-1,19
 489 400 489 400 489 268 c 0,20,21
 489 139 489 139 420 61.5 c 128,-1,22
 351 -16 351 -16 238 -16 c 0,23,24
 156 -16 156 -16 94.5 36 c 128,-1,25
 33 88 33 88 16 155 c 1,0,-1
EndSplineSet
EndChar

StartChar: uni0255
Encoding: 597 597 521
Width: 520
GlyphClass: 2
Flags: W
LayerCount: 2
Fore
SplineSet
269 89 m 1,0,1
 297 73 297 73 326 73 c 0,2,3
 356 73 356 73 373.5 84 c 128,-1,4
 391 95 391 95 391 111 c 0,5,6
 391 126 391 126 378.5 135 c 128,-1,7
 366 144 366 144 347 144 c 0,8,9
 296 144 296 144 269 89 c 1,0,1
31 278 m 0,10,11
 31 394 31 394 97.5 474 c 128,-1,12
 164 554 164 554 283 554 c 0,13,14
 368 554 368 554 421.5 502 c 128,-1,15
 475 450 475 450 489 389 c 1,16,-1
 380 359 l 1,17,18
 354 443 354 443 283 443 c 0,19,20
 227 443 227 443 196 393 c 128,-1,21
 165 343 165 343 165 269 c 0,22,23
 165 199 165 199 194 151 c 1,24,25
 218 184 218 184 259.5 209.5 c 128,-1,26
 301 235 301 235 352 235 c 0,27,28
 413 235 413 235 454.5 201.5 c 128,-1,29
 496 168 496 168 496 112 c 0,30,31
 496 51 496 51 450 17.5 c 128,-1,32
 404 -16 404 -16 323 -16 c 0,33,34
 275 -16 275 -16 231 -7 c 1,35,36
 220 -37 220 -37 216 -64 c 1,37,-1
 105 -39 l 1,38,39
 112 0 112 0 129 37 c 1,40,41
 31 117 31 117 31 278 c 0,10,11
EndSplineSet
EndChar

StartChar: uni0256
Encoding: 598 598 522
Width: 578
GlyphClass: 2
Flags: W
LayerCount: 2
Fore
SplineSet
31 269 m 0,0,1
 31 404 31 404 97 479 c 128,-1,2
 163 554 163 554 261 554 c 0,3,4
 304 554 304 554 338 534.5 c 128,-1,5
 372 515 372 515 389 488 c 1,6,-1
 389 759 l 1,7,-1
 519 759 l 1,8,-1
 519 -27 l 2,9,10
 519 -104 519 -104 583 -104 c 0,11,12
 616 -104 616 -104 659 -96 c 1,13,-1
 659 -210 l 1,14,15
 591 -219 591 -219 557 -219 c 0,16,17
 485 -219 485 -219 438.5 -176.5 c 128,-1,18
 392 -134 392 -134 392 -36 c 2,19,-1
 392 60 l 1,20,21
 374 28 374 28 338 6 c 128,-1,22
 302 -16 302 -16 260 -16 c 0,23,24
 217 -16 217 -16 178 0 c 128,-1,25
 139 16 139 16 105 48 c 128,-1,26
 71 80 71 80 51 137 c 128,-1,27
 31 194 31 194 31 269 c 0,0,1
165 269 m 0,28,29
 165 187 165 187 195.5 141 c 128,-1,30
 226 95 226 95 279 95 c 0,31,32
 330 95 330 95 360 142 c 128,-1,33
 390 189 390 189 390 269 c 0,34,35
 390 347 390 347 360.5 395 c 128,-1,36
 331 443 331 443 278 443 c 0,37,38
 226 443 226 443 195.5 397.5 c 128,-1,39
 165 352 165 352 165 269 c 0,28,29
EndSplineSet
EndChar

StartChar: uni0257
Encoding: 599 599 523
Width: 578
GlyphClass: 2
Flags: W
LayerCount: 2
Fore
SplineSet
31 269 m 0,0,1
 31 403 31 403 96 478.5 c 128,-1,2
 161 554 161 554 261 554 c 0,3,4
 305 554 305 554 339 534.5 c 128,-1,5
 373 515 373 515 389 488 c 1,6,-1
 389 609 l 2,7,8
 389 693 389 693 441 737.5 c 128,-1,9
 493 782 493 782 573 782 c 0,10,11
 614 782 614 782 667 778 c 1,12,-1
 667 662 l 1,13,14
 635 666 635 666 597 666 c 0,15,16
 563 666 563 666 541 644 c 128,-1,17
 519 622 519 622 519 583 c 2,18,-1
 519 0 l 1,19,-1
 393 0 l 1,20,-1
 393 62 l 1,21,22
 377 31 377 31 340.5 7.5 c 128,-1,23
 304 -16 304 -16 260 -16 c 0,24,25
 217 -16 217 -16 178 0 c 128,-1,26
 139 16 139 16 105 48 c 128,-1,27
 71 80 71 80 51 137 c 128,-1,28
 31 194 31 194 31 269 c 0,0,1
165 269 m 0,29,30
 165 184 165 184 195.5 139.5 c 128,-1,31
 226 95 226 95 279 95 c 0,32,33
 329 95 329 95 359.5 140.5 c 128,-1,34
 390 186 390 186 390 269 c 0,35,36
 390 347 390 347 360.5 395 c 128,-1,37
 331 443 331 443 278 443 c 0,38,39
 224 443 224 443 194.5 396.5 c 128,-1,40
 165 350 165 350 165 269 c 0,29,30
EndSplineSet
EndChar

StartChar: uni0258
Encoding: 600 600 524
Width: 559
GlyphClass: 2
Flags: W
LayerCount: 2
Fore
SplineSet
32 224 m 1,0,1
 29 248 29 248 29 274 c 0,2,3
 29 400 29 400 101 477 c 128,-1,4
 173 554 173 554 278 554 c 0,5,6
 385 554 385 554 457.5 478 c 128,-1,7
 530 402 530 402 530 271 c 0,8,9
 530 139 530 139 457 61.5 c 128,-1,10
 384 -16 384 -16 271 -16 c 0,11,12
 183 -16 183 -16 123.5 24.5 c 128,-1,13
 64 65 64 65 37 124 c 1,14,-1
 146 163 l 1,15,16
 163 131 163 131 194.5 109.5 c 128,-1,17
 226 88 226 88 268 88 c 0,18,19
 327 88 327 88 361 127.5 c 128,-1,20
 395 167 395 167 395 224 c 1,21,-1
 32 224 l 1,0,1
163 314 m 1,22,-1
 395 314 l 1,23,24
 394 371 394 371 363 411 c 128,-1,25
 332 451 332 451 278 451 c 0,26,27
 223 451 223 451 193 411.5 c 128,-1,28
 163 372 163 372 163 314 c 1,22,-1
EndSplineSet
EndChar

StartChar: uni025A
Encoding: 602 602 526
Width: 660
GlyphClass: 2
Flags: W
LayerCount: 2
Fore
SplineSet
30 230 m 1,0,-1
 381 382 l 1,1,2
 343 450 343 450 272 450 c 0,3,4
 189 450 189 450 145 374 c 1,5,-1
 37 414 l 1,6,7
 64 474 64 474 124 514 c 128,-1,8
 184 554 184 554 274 554 c 0,9,10
 346 554 346 554 401 521 c 128,-1,11
 456 488 456 488 487 434 c 1,12,-1
 569 470 l 1,13,14
 580 434 580 434 602 411.5 c 128,-1,15
 624 389 624 389 650 389 c 0,16,17
 681 389 681 389 698 395 c 1,18,-1
 698 292 l 1,19,20
 670 283 670 283 639 283 c 0,21,22
 607 283 607 283 580.5 297.5 c 128,-1,23
 554 312 554 312 542 335 c 1,24,-1
 524 327 l 1,25,26
 529 297 529 297 529 268 c 0,27,28
 529 142 529 142 459.5 63 c 128,-1,29
 390 -16 390 -16 277 -16 c 0,30,31
 218 -16 218 -16 170 7.5 c 128,-1,32
 122 31 122 31 93.5 68.5 c 128,-1,33
 65 106 65 106 49 147.5 c 128,-1,34
 33 189 33 189 30 230 c 1,0,-1
170 175 m 1,35,36
 179 134 179 134 209 110.5 c 128,-1,37
 239 87 239 87 277 87 c 0,38,39
 319 87 319 87 348 114.5 c 128,-1,40
 377 142 377 142 385 189 c 1,41,42
 397 221 397 221 397 255 c 0,43,44
 397 264 397 264 396 273 c 1,45,-1
 170 175 l 1,35,36
EndSplineSet
EndChar

StartChar: uni025B
Encoding: 603 603 527
Width: 504
GlyphClass: 2
Flags: W
LayerCount: 2
Fore
SplineSet
31 157 m 0,0,1
 31 202 31 202 54.5 234.5 c 128,-1,2
 78 267 78 267 112 284 c 1,3,-1
 113 284 l 1,4,5
 50 327 50 327 50 397 c 256,6,7
 50 467 50 467 108 510.5 c 128,-1,8
 166 554 166 554 260 554 c 0,9,10
 407 554 407 554 478 419 c 1,11,-1
 371 376 l 1,12,13
 353 405 353 405 324 424 c 128,-1,14
 295 443 295 443 262 443 c 0,15,16
 184 443 184 443 184 387 c 0,17,18
 184 361 184 361 206.5 343 c 128,-1,19
 229 325 229 325 271 325 c 2,20,-1
 338 325 l 1,21,-1
 338 227 l 1,22,-1
 271 227 l 2,23,24
 215 227 215 227 190 207.5 c 128,-1,25
 165 188 165 188 165 159 c 0,26,27
 165 127 165 127 196 111 c 128,-1,28
 227 95 227 95 264 95 c 0,29,30
 302 95 302 95 335.5 113 c 128,-1,31
 369 131 369 131 386 159 c 1,32,-1
 488 114 l 1,33,34
 460 57 460 57 400.5 20.5 c 128,-1,35
 341 -16 341 -16 262 -16 c 0,36,37
 163 -16 163 -16 97 30 c 128,-1,38
 31 76 31 76 31 157 c 0,0,1
EndSplineSet
EndChar

StartChar: uni025C
Encoding: 604 604 528
Width: 504
GlyphClass: 2
Flags: W
LayerCount: 2
Fore
SplineSet
16 114 m 1,0,-1
 118 159 l 1,1,2
 135 131 135 131 168.5 113 c 128,-1,3
 202 95 202 95 240 95 c 0,4,5
 277 95 277 95 308 111 c 128,-1,6
 339 127 339 127 339 159 c 0,7,8
 339 188 339 188 314 207.5 c 128,-1,9
 289 227 289 227 233 227 c 2,10,-1
 166 227 l 1,11,-1
 166 325 l 1,12,-1
 233 325 l 2,13,14
 275 325 275 325 297.5 343 c 128,-1,15
 320 361 320 361 320 387 c 0,16,17
 320 443 320 443 242 443 c 0,18,19
 209 443 209 443 180 424 c 128,-1,20
 151 405 151 405 133 376 c 1,21,-1
 26 419 l 1,22,23
 97 554 97 554 244 554 c 0,24,25
 338 554 338 554 396 510.5 c 128,-1,26
 454 467 454 467 454 397 c 256,27,28
 454 327 454 327 391 284 c 1,29,-1
 392 284 l 1,30,31
 426 267 426 267 449.5 234.5 c 128,-1,32
 473 202 473 202 473 157 c 0,33,34
 473 76 473 76 407 30 c 128,-1,35
 341 -16 341 -16 242 -16 c 0,36,37
 163 -16 163 -16 103.5 20.5 c 128,-1,38
 44 57 44 57 16 114 c 1,0,-1
EndSplineSet
EndChar

StartChar: uni025D
Encoding: 605 605 529
Width: 603
GlyphClass: 2
Flags: W
LayerCount: 2
Fore
SplineSet
16 114 m 1,0,-1
 118 159 l 1,1,2
 133 134 133 134 166.5 114.5 c 128,-1,3
 200 95 200 95 240 95 c 0,4,5
 285 95 285 95 312 113 c 128,-1,6
 339 131 339 131 339 161 c 0,7,8
 339 190 339 190 312.5 208.5 c 128,-1,9
 286 227 286 227 232 227 c 2,10,-1
 166 227 l 1,11,-1
 166 325 l 1,12,-1
 232 325 l 2,13,14
 274 325 274 325 297 343 c 128,-1,15
 320 361 320 361 320 387 c 0,16,17
 320 443 320 443 243 443 c 0,18,19
 174 443 174 443 132 376 c 1,20,-1
 26 419 l 1,21,22
 100 554 100 554 244 554 c 0,23,24
 364 554 364 554 423 486 c 1,25,-1
 500 531 l 1,26,27
 511 495 511 495 535.5 470.5 c 128,-1,28
 560 446 560 446 586 446 c 0,29,30
 615 446 615 446 635 453 c 1,31,-1
 635 349 l 1,32,33
 607 340 607 340 576 340 c 0,34,35
 544 340 544 340 515.5 355.5 c 128,-1,36
 487 371 487 371 475 393 c 1,37,-1
 452 380 l 1,38,39
 449 360 449 360 448 357 c 0,40,41
 436 310 436 310 392 285 c 1,42,-1
 393 284 l 1,43,44
 425 268 425 268 449 236.5 c 128,-1,45
 473 205 473 205 473 160 c 0,46,47
 473 77 473 77 408.5 30.5 c 128,-1,48
 344 -16 344 -16 241 -16 c 0,49,50
 162 -16 162 -16 102 21 c 128,-1,51
 42 58 42 58 16 114 c 1,0,-1
EndSplineSet
EndChar

StartChar: uni025E
Encoding: 606 606 530
Width: 556
GlyphClass: 2
Flags: W
LayerCount: 2
Fore
SplineSet
31 269 m 0,0,1
 31 327 31 327 45 376 c 128,-1,2
 59 425 59 425 89.5 466 c 128,-1,3
 120 507 120 507 173 530.5 c 128,-1,4
 226 554 226 554 297 554 c 0,5,6
 382 554 382 554 445 514.5 c 128,-1,7
 508 475 508 475 508 398 c 0,8,9
 508 323 508 323 451 285 c 1,10,-1
 452 285 l 1,11,12
 528 246 528 246 528 160 c 0,13,14
 528 112 528 112 508 77 c 128,-1,15
 488 42 488 42 453.5 22.5 c 128,-1,16
 419 3 419 3 380 -6.5 c 128,-1,17
 341 -16 341 -16 297 -16 c 0,18,19
 226 -16 226 -16 173.5 6.5 c 128,-1,20
 121 29 121 29 90.5 69.5 c 128,-1,21
 60 110 60 110 45.5 159.5 c 128,-1,22
 31 209 31 209 31 269 c 0,0,1
165 269 m 0,23,24
 165 174 165 174 204 134.5 c 128,-1,25
 243 95 243 95 299 95 c 0,26,27
 393 95 393 95 393 160 c 0,28,29
 393 186 393 186 367 206 c 128,-1,30
 341 226 341 226 296 226 c 2,31,-1
 256 226 l 1,32,-1
 256 328 l 1,33,-1
 296 328 l 2,34,35
 332 328 332 328 352.5 345 c 128,-1,36
 373 362 373 362 373 388 c 0,37,38
 373 415 373 415 352 429.5 c 128,-1,39
 331 444 331 444 298 444 c 0,40,41
 246 444 246 444 205.5 402.5 c 128,-1,42
 165 361 165 361 165 269 c 0,23,24
EndSplineSet
EndChar

StartChar: uni025F
Encoding: 607 607 531
Width: 274
GlyphClass: 2
Flags: W
LayerCount: 2
Fore
SplineSet
-19 244 m 1,0,-1
 -19 351 l 1,1,-1
 74 351 l 1,2,-1
 74 538 l 1,3,-1
 205 538 l 1,4,-1
 205 351 l 1,5,-1
 295 351 l 1,6,-1
 295 244 l 1,7,-1
 205 244 l 1,8,-1
 205 -3 l 2,9,10
 205 -105 205 -105 159.5 -157 c 128,-1,11
 114 -209 114 -209 27 -209 c 2,12,-1
 -11 -209 l 1,13,-1
 -11 -97 l 1,14,-1
 5 -97 l 2,15,16
 40 -97 40 -97 57 -73.5 c 128,-1,17
 74 -50 74 -50 74 2 c 2,18,-1
 74 244 l 1,19,-1
 -19 244 l 1,0,-1
EndSplineSet
EndChar

StartChar: uni0260
Encoding: 608 608 532
Width: 582
GlyphClass: 2
Flags: W
LayerCount: 2
Fore
SplineSet
34 279 m 256,0,1
 34 405 34 405 97.5 479.5 c 128,-1,2
 161 554 161 554 258 554 c 0,3,4
 340 554 340 554 381 484 c 1,5,-1
 381 610 l 2,6,7
 381 693 381 693 434 737.5 c 128,-1,8
 487 782 487 782 567 782 c 0,9,10
 612 782 612 782 664 778 c 1,11,-1
 664 663 l 1,12,13
 638 666 638 666 592 666 c 0,14,15
 558 666 558 666 534.5 644 c 128,-1,16
 511 622 511 622 511 584 c 2,17,-1
 511 78 l 2,18,19
 511 -66 511 -66 453.5 -142.5 c 128,-1,20
 396 -219 396 -219 265 -219 c 0,21,22
 131 -219 131 -219 52 -113 c 1,23,-1
 138 -53 l 1,24,25
 191 -115 191 -115 267 -115 c 0,26,27
 320 -115 320 -115 349.5 -76 c 128,-1,28
 379 -37 379 -37 381 23 c 2,29,-1
 382 66 l 1,30,31
 364 39 364 39 331 22 c 128,-1,32
 298 5 298 5 262 5 c 0,33,34
 161 5 161 5 97.5 79 c 128,-1,35
 34 153 34 153 34 279 c 256,0,1
167 280 m 0,36,37
 167 198 167 198 197.5 157.5 c 128,-1,38
 228 117 228 117 275 117 c 0,39,40
 324 117 324 117 352 159 c 128,-1,41
 380 201 380 201 380 280 c 0,42,43
 380 355 380 355 352 399 c 128,-1,44
 324 443 324 443 275 443 c 256,45,46
 226 443 226 443 196.5 401.5 c 128,-1,47
 167 360 167 360 167 280 c 0,36,37
EndSplineSet
EndChar

StartChar: uni0262
Encoding: 610 610 534
Width: 551
GlyphClass: 2
Flags: W
LayerCount: 2
Fore
SplineSet
31 267 m 0,0,1
 31 398 31 398 99 476 c 128,-1,2
 167 554 167 554 288 554 c 0,3,4
 436 554 436 554 502 412 c 1,5,-1
 394 367 l 1,6,7
 380 396 380 396 353 419.5 c 128,-1,8
 326 443 326 443 288 443 c 0,9,10
 230 443 230 443 197.5 397 c 128,-1,11
 165 351 165 351 165 267 c 0,12,13
 165 185 165 185 198.5 140.5 c 128,-1,14
 232 96 232 96 288 96 c 0,15,16
 327 96 327 96 353.5 119 c 128,-1,17
 380 142 380 142 386 184 c 1,18,-1
 387 210 l 1,19,-1
 269 210 l 1,20,-1
 269 310 l 1,21,-1
 509 310 l 1,22,-1
 509 0 l 1,23,-1
 412 0 l 1,24,-1
 407 40 l 1,25,26
 392 17 392 17 356 0.5 c 128,-1,27
 320 -16 320 -16 280 -16 c 0,28,29
 173 -16 173 -16 102 57.5 c 128,-1,30
 31 131 31 131 31 267 c 0,0,1
EndSplineSet
EndChar

StartChar: uni0263
Encoding: 611 611 535
Width: 528
GlyphClass: 2
Flags: W
LayerCount: 2
Fore
SplineSet
8 538 m 1,0,-1
 150 538 l 1,1,-1
 263 120 l 1,2,-1
 264 120 l 1,3,-1
 277 158 l 1,4,-1
 379 538 l 1,5,-1
 521 538 l 1,6,-1
 353 62 l 1,7,8
 383 37 383 37 402.5 1.5 c 128,-1,9
 422 -34 422 -34 422 -69 c 0,10,11
 422 -134 422 -134 378 -176.5 c 128,-1,12
 334 -219 334 -219 264 -219 c 0,13,14
 196 -219 196 -219 151.5 -178 c 128,-1,15
 107 -137 107 -137 107 -69 c 0,16,17
 107 0 107 0 173 60 c 1,18,-1
 8 538 l 1,0,-1
215 -69 m 0,19,20
 215 -93 215 -93 228.5 -110.5 c 128,-1,21
 242 -128 242 -128 264 -128 c 0,22,23
 287 -128 287 -128 301 -110 c 128,-1,24
 315 -92 315 -92 315 -69 c 0,25,26
 315 -49 315 -49 301 -24.5 c 128,-1,27
 287 0 287 0 264 16 c 1,28,29
 215 -17 215 -17 215 -69 c 0,19,20
EndSplineSet
Substitution2: "'sups' Superscript lookup 5 subtable" uni02E0
Substitution2: "'aalt' Access All Alternates lookup 0 subtable" uni02E0
EndChar

StartChar: uni0264
Encoding: 612 612 536
Width: 488
GlyphClass: 2
Flags: W
LayerCount: 2
Fore
SplineSet
246 304 m 1,0,1
 191 234 191 234 191 173 c 0,2,3
 191 140 191 140 205 117.5 c 128,-1,4
 219 95 219 95 246 95 c 0,5,6
 270 95 270 95 284.5 117.5 c 128,-1,7
 299 140 299 140 299 173 c 0,8,9
 299 238 299 238 246 304 c 1,0,1
11 434 m 1,10,-1
 11 543 l 1,11,12
 52 554 52 554 88 554 c 0,13,14
 173 554 173 554 246 488 c 1,15,16
 315 554 315 554 404 554 c 0,17,18
 444 554 444 554 479 544 c 1,19,-1
 479 432 l 1,20,21
 442 442 442 442 407 442 c 0,22,23
 366 442 366 442 324 402 c 1,24,25
 360 355 360 355 377 328.5 c 128,-1,26
 394 302 394 302 409.5 259.5 c 128,-1,27
 425 217 425 217 425 171 c 0,28,29
 425 87 425 87 378 35.5 c 128,-1,30
 331 -16 331 -16 246 -16 c 0,31,32
 157 -16 157 -16 112 36.5 c 128,-1,33
 67 89 67 89 67 171 c 0,34,35
 67 236 67 236 94 289.5 c 128,-1,36
 121 343 121 343 168 402 c 1,37,38
 124 442 124 442 81 442 c 0,39,40
 68 442 68 442 57 440.5 c 128,-1,41
 46 439 46 439 32.5 437 c 128,-1,42
 19 435 19 435 11 434 c 1,10,-1
EndSplineSet
EndChar

StartChar: uni0265
Encoding: 613 613 537
Width: 563
GlyphClass: 2
Flags: W
LayerCount: 2
Fore
SplineSet
53 193 m 2,0,-1
 53 538 l 1,1,-1
 184 538 l 1,2,-1
 184 207 l 2,3,4
 184 95 184 95 262 95 c 0,5,6
 307 95 307 95 338 137 c 128,-1,7
 369 179 369 179 369 233 c 2,8,-1
 369 538 l 1,9,-1
 498 538 l 1,10,-1
 498 -215 l 1,11,-1
 369 -215 l 1,12,-1
 369 45 l 1,13,-1
 368 45 l 1,14,15
 320 -16 320 -16 235 -16 c 0,16,17
 209 -16 209 -16 185 -10.5 c 128,-1,18
 161 -5 161 -5 136 9.5 c 128,-1,19
 111 24 111 24 93.5 46.5 c 128,-1,20
 76 69 76 69 64.5 106.5 c 128,-1,21
 53 144 53 144 53 193 c 2,0,-1
EndSplineSet
EndChar

StartChar: uni0266
Encoding: 614 614 538
Width: 563
GlyphClass: 2
Flags: W
LayerCount: 2
Fore
SplineSet
66 0 m 1,0,-1
 66 608 l 2,1,2
 66 693 66 693 118 737.5 c 128,-1,3
 170 782 170 782 250 782 c 0,4,5
 299 782 299 782 352 778 c 1,6,-1
 352 663 l 1,7,8
 323 666 323 666 276 666 c 0,9,10
 241 666 241 666 217.5 643.5 c 128,-1,11
 194 621 194 621 194 584 c 2,12,-1
 194 493 l 1,13,-1
 195 493 l 1,14,15
 251 554 251 554 329 554 c 0,16,17
 404 554 404 554 457 505.5 c 128,-1,18
 510 457 510 457 510 345 c 2,19,-1
 510 0 l 1,20,-1
 380 0 l 1,21,-1
 380 331 l 2,22,23
 380 443 380 443 304 443 c 0,24,25
 257 443 257 443 225.5 402 c 128,-1,26
 194 361 194 361 194 305 c 2,27,-1
 194 0 l 1,28,-1
 66 0 l 1,0,-1
EndSplineSet
Substitution2: "'sups' Superscript lookup 5 subtable" uni02B1
Substitution2: "'aalt' Access All Alternates lookup 0 subtable" uni02B1
EndChar

StartChar: uni0267
Encoding: 615 615 539
Width: 564
GlyphClass: 2
Flags: W
LayerCount: 2
Fore
SplineSet
66 0 m 1,0,-1
 66 608 l 2,1,2
 66 693 66 693 118 737.5 c 128,-1,3
 170 782 170 782 250 782 c 0,4,5
 299 782 299 782 352 778 c 1,6,-1
 352 663 l 1,7,8
 325 666 325 666 276 666 c 0,9,10
 241 666 241 666 217.5 643 c 128,-1,11
 194 620 194 620 194 582 c 2,12,-1
 194 493 l 1,13,-1
 195 493 l 1,14,15
 251 554 251 554 329 554 c 0,16,17
 362 554 362 554 391 545 c 128,-1,18
 420 536 420 536 448.5 514.5 c 128,-1,19
 477 493 477 493 493.5 449.5 c 128,-1,20
 510 406 510 406 510 345 c 2,21,-1
 510 -16 l 2,22,23
 510 -120 510 -120 463.5 -169 c 128,-1,24
 417 -218 417 -218 322 -218 c 0,25,26
 278 -218 278 -218 228 -212 c 1,27,-1
 228 -100 l 1,28,29
 278 -107 278 -107 297 -107 c 0,30,31
 341 -107 341 -107 360.5 -86.5 c 128,-1,32
 380 -66 380 -66 380 -7 c 2,33,-1
 380 331 l 2,34,35
 380 443 380 443 304 443 c 0,36,37
 257 443 257 443 225.5 402 c 128,-1,38
 194 361 194 361 194 305 c 2,39,-1
 194 0 l 1,40,-1
 66 0 l 1,0,-1
EndSplineSet
EndChar

StartChar: uni0268
Encoding: 616 616 540
Width: 267
GlyphClass: 2
Flags: W
LayerCount: 2
Fore
SplineSet
66 606 m 1,0,-1
 66 745 l 1,1,-1
 202 745 l 1,2,-1
 202 606 l 1,3,-1
 66 606 l 1,0,-1
-8 243 m 1,4,-1
 -8 351 l 1,5,-1
 69 351 l 1,6,-1
 69 538 l 1,7,-1
 199 538 l 1,8,-1
 199 351 l 1,9,-1
 276 351 l 1,10,-1
 276 243 l 1,11,-1
 199 243 l 1,12,-1
 199 0 l 1,13,-1
 69 0 l 1,14,-1
 69 243 l 1,15,-1
 -8 243 l 1,4,-1
EndSplineSet
EndChar

StartChar: uni0269
Encoding: 617 617 541
Width: 337
GlyphClass: 2
Flags: W
LayerCount: 2
Fore
SplineSet
54 163 m 2,0,-1
 54 538 l 1,1,-1
 185 538 l 1,2,-1
 185 172 l 2,3,4
 185 100 185 100 249 100 c 0,5,6
 291 100 291 100 325 106 c 1,7,-1
 325 -7 l 1,8,9
 257 -16 257 -16 221 -16 c 0,10,11
 149 -16 149 -16 101.5 26 c 128,-1,12
 54 68 54 68 54 163 c 2,0,-1
EndSplineSet
EndChar

StartChar: uni026B
Encoding: 619 619 543
Width: 268
GlyphClass: 2
Flags: W
LayerCount: 2
Fore
SplineSet
-23 331 m 1,0,-1
 -23 444 l 1,1,2
 27 457 27 457 47 457 c 2,3,-1
 68 457 l 1,4,-1
 68 759 l 1,5,-1
 199 759 l 1,6,-1
 199 434 l 1,7,8
 216 434 216 434 244 437 c 0,9,10
 262 439 262 439 290 446 c 1,11,-1
 290 334 l 1,12,13
 273 330 273 330 246 326 c 0,14,15
 230 324 230 324 199 324 c 1,16,-1
 199 0 l 1,17,-1
 68 0 l 1,18,-1
 68 345 l 1,19,-1
 59 346 l 2,20,21
 49 346 49 346 47 346 c 0,22,23
 23 346 23 346 -23 331 c 1,0,-1
EndSplineSet
EndChar

StartChar: uni026C
Encoding: 620 620 544
Width: 458
GlyphClass: 2
Flags: W
LayerCount: 2
Fore
SplineSet
31 414 m 0,0,1
 31 467 31 467 66 504 c 128,-1,2
 101 541 101 541 163 541 c 0,3,4
 205 541 205 541 241 518 c 1,5,-1
 241 759 l 1,6,-1
 372 759 l 1,7,-1
 372 371 l 1,8,-1
 474 371 l 1,9,-1
 474 266 l 1,10,-1
 372 266 l 1,11,-1
 372 0 l 1,12,-1
 241 0 l 1,13,-1
 241 266 l 1,14,-1
 215 266 l 2,15,16
 135 266 135 266 83 306.5 c 128,-1,17
 31 347 31 347 31 414 c 0,0,1
138 414 m 0,18,19
 138 394 138 394 154 382.5 c 128,-1,20
 170 371 170 371 194 371 c 2,21,-1
 241 371 l 1,22,-1
 240 389 l 2,23,24
 238 411 238 411 219.5 429 c 128,-1,25
 201 447 201 447 178 447 c 0,26,27
 161 447 161 447 149.5 438.5 c 128,-1,28
 138 430 138 430 138 414 c 0,18,19
EndSplineSet
EndChar

StartChar: uni026D
Encoding: 621 621 545
Width: 352
GlyphClass: 2
Flags: W
LayerCount: 2
Fore
SplineSet
68 -38 m 2,0,-1
 68 759 l 1,1,-1
 199 759 l 1,2,-1
 199 -31 l 2,3,4
 199 -104 199 -104 262 -104 c 0,5,6
 296 -104 296 -104 339 -96 c 1,7,-1
 339 -210 l 1,8,9
 270 -219 270 -219 235 -219 c 0,10,11
 163 -219 163 -219 115.5 -176.5 c 128,-1,12
 68 -134 68 -134 68 -38 c 2,0,-1
EndSplineSet
EndChar

StartChar: uni026E
Encoding: 622 622 546
Width: 719
GlyphClass: 2
Flags: W
LayerCount: 2
Fore
SplineSet
180 -66 m 1,0,-1
 296 -30 l 1,1,2
 334 -108 334 -108 415 -108 c 0,3,4
 476 -108 476 -108 511.5 -69 c 128,-1,5
 547 -30 547 -30 547 30 c 256,6,7
 547 90 547 90 506.5 132 c 128,-1,8
 466 174 466 174 396 174 c 2,9,-1
 301 174 l 1,10,-1
 301 262 l 1,11,-1
 452 427 l 1,12,-1
 198 427 l 1,13,-1
 198 0 l 1,14,-1
 68 0 l 1,15,-1
 68 759 l 1,16,-1
 198 759 l 1,17,-1
 198 538 l 1,18,-1
 646 538 l 1,19,-1
 646 458 l 1,20,-1
 475 283 l 1,21,-1
 465 269 l 1,22,23
 558 260 558 260 619.5 191 c 128,-1,24
 681 122 681 122 681 30 c 0,25,26
 681 -79 681 -79 607.5 -149 c 128,-1,27
 534 -219 534 -219 420 -219 c 0,28,29
 237 -219 237 -219 180 -66 c 1,0,-1
EndSplineSet
EndChar

StartChar: uni026F
Encoding: 623 623 547
Width: 827
GlyphClass: 2
Flags: W
LayerCount: 2
Fore
SplineSet
53 195 m 2,0,-1
 53 538 l 1,1,-1
 184 538 l 1,2,-1
 184 199 l 2,3,4
 184 147 184 147 199.5 122.5 c 128,-1,5
 215 98 215 98 250 98 c 0,6,7
 294 98 294 98 320 135 c 128,-1,8
 346 172 346 172 346 224 c 2,9,-1
 346 538 l 1,10,-1
 476 538 l 1,11,-1
 476 194 l 2,12,13
 476 98 476 98 540 98 c 0,14,15
 588 98 588 98 612.5 132 c 128,-1,16
 637 166 637 166 637 223 c 2,17,-1
 637 538 l 1,18,-1
 768 538 l 1,19,-1
 768 0 l 1,20,-1
 643 0 l 1,21,-1
 643 57 l 1,22,-1
 641 57 l 1,23,24
 592 -14 592 -14 509 -14 c 0,25,26
 421 -14 421 -14 380 75 c 1,27,28
 373 63 373 63 363 51.5 c 128,-1,29
 353 40 353 40 334.5 23.5 c 128,-1,30
 316 7 316 7 286.5 -3.5 c 128,-1,31
 257 -14 257 -14 221 -14 c 0,32,33
 53 -14 53 -14 53 195 c 2,0,-1
EndSplineSet
EndChar

StartChar: uni0270
Encoding: 624 624 548
Width: 837
GlyphClass: 2
Flags: W
LayerCount: 2
Fore
SplineSet
53 195 m 2,0,-1
 53 538 l 1,1,-1
 184 538 l 1,2,-1
 184 199 l 2,3,4
 184 148 184 148 199 123 c 128,-1,5
 214 98 214 98 249 98 c 0,6,7
 293 98 293 98 319.5 135 c 128,-1,8
 346 172 346 172 346 224 c 2,9,-1
 346 538 l 1,10,-1
 476 538 l 1,11,-1
 476 194 l 2,12,13
 476 98 476 98 540 98 c 0,14,15
 588 98 588 98 612.5 132 c 128,-1,16
 637 166 637 166 637 223 c 2,17,-1
 637 538 l 1,18,-1
 768 538 l 1,19,-1
 768 -215 l 1,20,-1
 643 -215 l 1,21,-1
 643 57 l 1,22,-1
 641 57 l 1,23,24
 625 32 625 32 591 9 c 128,-1,25
 557 -14 557 -14 509 -14 c 0,26,27
 422 -14 422 -14 380 75 c 1,28,29
 363 44 363 44 323.5 15 c 128,-1,30
 284 -14 284 -14 221 -14 c 0,31,32
 53 -14 53 -14 53 195 c 2,0,-1
EndSplineSet
EndChar

